<?xml version="1.0" encoding="utf-8"?>
<!-- Generator: Adobe Illustrator 16.0.3, SVG Export Plug-In . SVG Version: 6.00 Build 0)  -->
<!DOCTYPE svg PUBLIC "-//W3C//DTD SVG 1.1//EN" "http://www.w3.org/Graphics/SVG/1.1/DTD/svg11.dtd">
<svg version="1.1" xmlns="http://www.w3.org/2000/svg" xmlns:xlink="http://www.w3.org/1999/xlink" x="0px" y="0px" width="67px"
	 height="61px" viewBox="0 0 67 61" enable-background="new 0 0 67 61" xml:space="preserve">
<g id="Layer_1" display="none">
	<path display="inline" fill="#0E4164" stroke="#135684" stroke-width="0.7498" stroke-miterlimit="10" d="M57.281,32.158
		c0,12.432-10.066,22.5-22.49,22.5c-12.431,0-22.5-10.068-22.5-22.5c0-12.424,10.069-22.491,22.5-22.491
		C47.215,9.667,57.281,19.734,57.281,32.158z"/>
	<g display="inline">
		<path fill="#BDCCD4" d="M33.439,40.891V29.188h-4.537V26.43c0.636,0.018,1.25-0.03,1.843-0.142
			c0.593-0.111,1.125-0.309,1.598-0.593c0.472-0.284,0.872-0.657,1.198-1.121c0.327-0.464,0.542-1.04,0.645-1.727h2.913v18.043
			H33.439z"/>
	</g>
</g>
<g id="Layer_4" display="none">
	<g display="inline">
		<path fill="#BDCCD4" stroke="#135684" stroke-width="0.7498" stroke-miterlimit="10" d="M55.994,30.496
			c0,12.432-10.066,22.5-22.49,22.5c-12.43,0-22.499-10.068-22.499-22.5c0-12.424,10.069-22.491,22.499-22.491
			C45.928,8.005,55.994,18.072,55.994,30.496z"/>
		<g>
			<path fill="#0E4164" d="M32.152,39.229V27.526h-4.536v-2.758c0.636,0.018,1.25-0.03,1.843-0.142
				c0.593-0.111,1.125-0.309,1.599-0.593c0.472-0.284,0.871-0.657,1.198-1.121c0.326-0.464,0.541-1.04,0.645-1.727h2.912v18.043
				H32.152z"/>
		</g>
	</g>
</g>
<g id="Layer_2" display="none">
	<path display="inline" fill="#0E4164" stroke="#135684" stroke-width="0.7498" stroke-miterlimit="10" d="M55.994,32.158
		c0,12.432-10.066,22.5-22.49,22.5c-12.43,0-22.499-10.068-22.499-22.5c0-12.424,10.069-22.491,22.499-22.491
		C45.928,9.667,55.994,19.734,55.994,32.158z"/>
	<g display="inline">
		<path fill="#BDCCD4" d="M27.023,26.907c0.274-0.885,0.687-1.658,1.237-2.32c0.55-0.661,1.241-1.177,2.075-1.546
			c0.833-0.37,1.791-0.554,2.874-0.554c0.824,0,1.61,0.129,2.358,0.386c0.747,0.258,1.404,0.628,1.972,1.108
			c0.567,0.481,1.018,1.074,1.354,1.779c0.335,0.705,0.502,1.495,0.502,2.371c0,0.911-0.146,1.693-0.438,2.346
			c-0.293,0.653-0.68,1.233-1.16,1.74c-0.481,0.507-1.027,0.967-1.637,1.379c-0.61,0.412-1.225,0.821-1.843,1.224
			c-0.619,0.404-1.221,0.838-1.805,1.302c-0.585,0.464-1.1,1.005-1.547,1.624h8.532v3.145H26.25c0-1.048,0.15-1.959,0.451-2.732
			c0.301-0.773,0.709-1.465,1.225-2.075s1.121-1.173,1.816-1.688c0.696-0.516,1.431-1.04,2.204-1.572
			c0.396-0.275,0.816-0.554,1.264-0.838c0.446-0.283,0.854-0.597,1.224-0.94s0.679-0.73,0.929-1.16
			c0.248-0.429,0.373-0.919,0.373-1.469c0-0.876-0.254-1.56-0.76-2.049c-0.508-0.49-1.156-0.734-1.946-0.734
			c-0.533,0-0.984,0.125-1.354,0.374c-0.37,0.25-0.666,0.576-0.89,0.979c-0.223,0.404-0.382,0.851-0.477,1.34
			s-0.142,0.976-0.142,1.457h-3.506C26.627,28.75,26.748,27.792,27.023,26.907z"/>
	</g>
</g>
<g id="Layer_5" display="none">
	<path display="inline" fill="#BDCCD4" stroke="#135684" stroke-width="0.7498" stroke-miterlimit="10" d="M55.994,30.496
		c0,12.432-10.066,22.5-22.49,22.5c-12.43,0-22.499-10.068-22.499-22.5c0-12.424,10.069-22.491,22.499-22.491
		C45.928,8.005,55.994,18.072,55.994,30.496z"/>
	<g display="inline">
		<path fill="#0E4164" d="M27.022,25.245c0.274-0.885,0.687-1.658,1.237-2.32c0.55-0.661,1.241-1.177,2.075-1.546
			c0.833-0.37,1.791-0.554,2.874-0.554c0.824,0,1.61,0.129,2.358,0.386c0.747,0.258,1.404,0.628,1.972,1.108
			c0.567,0.481,1.018,1.074,1.354,1.779c0.335,0.705,0.502,1.495,0.502,2.371c0,0.911-0.146,1.693-0.438,2.346
			c-0.293,0.653-0.68,1.233-1.16,1.74c-0.481,0.507-1.027,0.967-1.637,1.379c-0.61,0.412-1.225,0.821-1.843,1.224
			c-0.619,0.404-1.221,0.838-1.805,1.302c-0.585,0.464-1.1,1.005-1.547,1.624h8.532v3.145H26.249c0-1.048,0.15-1.959,0.451-2.732
			c0.301-0.773,0.709-1.465,1.225-2.075s1.121-1.173,1.816-1.688c0.696-0.516,1.431-1.04,2.204-1.572
			c0.396-0.275,0.816-0.554,1.264-0.838c0.446-0.283,0.854-0.597,1.224-0.94s0.679-0.73,0.929-1.16
			c0.248-0.429,0.373-0.919,0.373-1.469c0-0.876-0.254-1.56-0.76-2.049c-0.508-0.49-1.156-0.734-1.946-0.734
			c-0.533,0-0.984,0.125-1.354,0.374c-0.37,0.25-0.666,0.576-0.89,0.979c-0.223,0.404-0.382,0.851-0.477,1.34
			s-0.142,0.976-0.142,1.457h-3.506C26.627,27.088,26.747,26.13,27.022,25.245z"/>
	</g>
</g>
<g id="Layer_3" display="none">
	<path display="inline" fill="#BDCCD4" stroke="#135684" stroke-width="0.7498" stroke-miterlimit="10" d="M55.994,30.496
		c0,12.432-10.066,22.5-22.49,22.5c-12.43,0-22.499-10.068-22.499-22.5c0-12.424,10.069-22.491,22.499-22.491
		C45.928,8.005,55.994,18.072,55.994,30.496z"/>
	<g display="inline">
		<path fill="#0E4164" d="M32.848,28.48c0.446-0.034,0.863-0.133,1.25-0.296c0.387-0.163,0.704-0.399,0.954-0.709
			c0.249-0.309,0.373-0.722,0.373-1.237c0-0.773-0.257-1.366-0.772-1.778c-0.516-0.413-1.108-0.619-1.779-0.619
			c-0.928,0-1.628,0.305-2.101,0.915c-0.473,0.61-0.7,1.379-0.683,2.307h-3.479c0.034-0.928,0.201-1.774,0.502-2.539
			s0.722-1.422,1.264-1.972c0.541-0.549,1.189-0.975,1.945-1.276c0.756-0.3,1.599-0.451,2.526-0.451
			c0.722,0,1.443,0.107,2.165,0.322c0.722,0.215,1.37,0.538,1.946,0.967c0.575,0.43,1.044,0.954,1.404,1.572
			c0.361,0.619,0.542,1.332,0.542,2.14c0,0.876-0.211,1.649-0.632,2.32c-0.421,0.67-1.053,1.125-1.895,1.366v0.051
			c0.996,0.224,1.778,0.705,2.346,1.443c0.567,0.739,0.851,1.624,0.851,2.655c0,0.945-0.185,1.787-0.554,2.526
			c-0.37,0.739-0.864,1.357-1.482,1.856c-0.619,0.499-1.332,0.876-2.14,1.134c-0.808,0.258-1.649,0.387-2.526,0.387
			c-1.014,0-1.938-0.146-2.771-0.438c-0.834-0.292-1.543-0.717-2.127-1.276c-0.584-0.558-1.035-1.241-1.353-2.049
			c-0.318-0.808-0.469-1.735-0.451-2.784h3.479c0.017,0.481,0.095,0.941,0.232,1.379c0.137,0.438,0.335,0.816,0.593,1.134
			s0.58,0.571,0.967,0.76c0.386,0.189,0.846,0.284,1.379,0.284c0.824,0,1.521-0.253,2.088-0.761
			c0.566-0.506,0.851-1.198,0.851-2.075c0-0.687-0.134-1.211-0.399-1.572c-0.268-0.361-0.606-0.623-1.019-0.786
			c-0.412-0.163-0.863-0.258-1.354-0.284c-0.489-0.026-0.958-0.039-1.404-0.039V28.48C31.98,28.515,32.401,28.515,32.848,28.48z"/>
	</g>
</g>
<g id="Layer_6">
	<path fill="#0E4164" stroke="#135684" stroke-width="0.7498" stroke-miterlimit="10" d="M55.994,30.496
		c0,12.432-10.066,22.5-22.49,22.5c-12.43,0-22.499-10.068-22.499-22.5c0-12.424,10.069-22.491,22.499-22.491
		C45.928,8.005,55.994,18.072,55.994,30.496z"/>
	<g>
		<path fill="#BDCCD4" d="M32.848,28.48c0.446-0.034,0.863-0.133,1.25-0.296c0.387-0.163,0.704-0.399,0.954-0.709
			c0.249-0.309,0.373-0.722,0.373-1.237c0-0.773-0.257-1.366-0.772-1.778c-0.516-0.413-1.108-0.619-1.779-0.619
			c-0.928,0-1.628,0.305-2.101,0.915c-0.473,0.61-0.7,1.379-0.683,2.307h-3.479c0.034-0.928,0.201-1.774,0.502-2.539
			s0.722-1.422,1.264-1.972c0.541-0.549,1.189-0.975,1.945-1.276c0.756-0.3,1.599-0.451,2.526-0.451
			c0.722,0,1.443,0.107,2.165,0.322c0.722,0.215,1.37,0.538,1.946,0.967c0.575,0.43,1.044,0.954,1.404,1.572
			c0.361,0.619,0.542,1.332,0.542,2.14c0,0.876-0.211,1.649-0.632,2.32c-0.421,0.67-1.053,1.125-1.895,1.366v0.051
			c0.996,0.224,1.778,0.705,2.346,1.443c0.567,0.739,0.851,1.624,0.851,2.655c0,0.945-0.185,1.787-0.554,2.526
			c-0.37,0.739-0.864,1.357-1.482,1.856c-0.619,0.499-1.332,0.876-2.14,1.134c-0.808,0.258-1.649,0.387-2.526,0.387
			c-1.014,0-1.938-0.146-2.771-0.438c-0.834-0.292-1.543-0.717-2.127-1.276c-0.584-0.558-1.035-1.241-1.353-2.049
			c-0.318-0.808-0.469-1.735-0.451-2.784h3.479c0.017,0.481,0.095,0.941,0.232,1.379c0.137,0.438,0.335,0.816,0.593,1.134
			s0.58,0.571,0.967,0.76c0.386,0.189,0.846,0.284,1.379,0.284c0.824,0,1.521-0.253,2.088-0.761
			c0.566-0.506,0.851-1.198,0.851-2.075c0-0.687-0.134-1.211-0.399-1.572c-0.268-0.361-0.606-0.623-1.019-0.786
			c-0.412-0.163-0.863-0.258-1.354-0.284c-0.489-0.026-0.958-0.039-1.404-0.039V28.48C31.98,28.515,32.401,28.515,32.848,28.48z"/>
	</g>
</g>
</svg>
