<?xml version="1.0" encoding="utf-8"?>
<!-- Generator: Adobe Illustrator 16.0.3, SVG Export Plug-In . SVG Version: 6.00 Build 0)  -->
<!DOCTYPE svg PUBLIC "-//W3C//DTD SVG 1.1//EN" "http://www.w3.org/Graphics/SVG/1.1/DTD/svg11.dtd">
<svg version="1.1" id="Layer_1" xmlns="http://www.w3.org/2000/svg" xmlns:xlink="http://www.w3.org/1999/xlink" x="0px" y="0px"
	 width="280px" height="280px" viewBox="0 0 280 280" enable-background="new 0 0 280 280" xml:space="preserve">
<g>
	<rect fill="#EEEEEE" width="280" height="280"/>
	<rect x="14" y="14" fill="#FFFFFF" width="250" height="245.5"/>
	<rect y="10" fill="#D43B0D" width="280" height="27"/>
	
		<text transform="matrix(1 0 0 1 8.3457 27.1123)" fill="#FFFFFF" font-family="'AlphaRuler'" font-size="14.6042" text-decoration=" underline">Web Experience Toolkit</text>
	<g>
		<rect x="155" y="18" fill="#FFFFFF" width="89" height="11"/>
		<g>
			<g>
				<g>
					<g>
						<g opacity="0.85">
							<g opacity="0.9">
								<path fill="#D3D3D3" d="M155.039,25.818c0.125-0.588,0.268-1.089,0.434-1.488c0-1.126,0.002-2.244,0.002-3.37
									c-0.002-0.458-0.002-0.913-0.004-1.367c-0.063,1.031-0.127,2.054-0.188,3.07C155.2,23.722,155.119,24.772,155.039,25.818z"
									/>
								<path fill="#D3D3D3" d="M173.74,30.617c-2.598-0.461-8.053-0.517-13.18-0.725C165.078,30.222,169.49,30.494,173.74,30.617z"
									/>
								<path fill="#D3D3D3" d="M190.08,27.619c-0.464-0.064-0.916-0.135-1.354-0.217c-2.395,0.058-4.779,0.116-7.164,0.174
									c0.506,0.048,1.004,0.095,1.513,0.143L190.08,27.619z"/>
								<path fill="#D3D3D3" d="M155.895,26.079c0.004,0.407,0.008,0.817,0.013,1.23c-0.003,0.298-0.005,0.598-0.007,0.9
									c0.988,0.026,1.99,0.052,3,0.079c1.343,0.046,2.697,0.093,4.055,0.14c2.715,0.102,5.445,0.205,8.126,0.306
									c5.364,0.166,10.55,0.186,15.084-0.344c-1.55-0.243-3.229-0.451-4.952-0.647c-5.064,0.043-10.131,0.086-15.188,0.129
									l-4.565,0.025l-4.38-0.018l-0.844-0.006c0.014-1.515,0.025-3.029,0.039-4.542c-0.313,0.11-0.577,0.452-0.803,0.999
									c-0.007,1.444-0.013,2.886-0.019,4.324l1.026,0.007c-0.287-0.053-0.576-0.106-0.873-0.161
									c0.053-0.369,0.104-0.743,0.158-1.123l0.068-0.498C155.854,26.615,155.875,26.348,155.895,26.079z"/>
								<path fill="#D3D3D3" d="M180.059,27.614c-4.678,0.113-9.356,0.212-14.033,0.258c5.057-0.043,10.121-0.086,15.188-0.129
									C180.83,27.7,180.445,27.657,180.059,27.614z"/>
								<path fill="#D3D3D3" d="M167.43,29.883c-2.033-0.082-3.91-0.272-5.734-0.499c-0.91-0.121-1.813-0.24-2.717-0.36
									c-0.873-0.123-1.908-0.247-2.496-0.362l-1.027-0.007c0.006-1.438,0.012-2.88,0.018-4.324
									c-0.164,0.399-0.308,0.9-0.433,1.488c-0.097,1.184-0.19,2.362-0.284,3.536c1.086,0.082,2.169,0.163,3.251,0.244l3.104,0.192
									C163.188,29.895,165.285,29.94,167.43,29.883z"/>
								<path fill="#D3D3D3" d="M160.561,29.892c-1.942-0.144-3.91-0.289-5.906-0.437c0.061-0.82,0.121-1.661,0.184-2.503
									c-0.104,0.703-0.191,1.57-0.268,2.588c0.473,0.036,0.961,0.073,1.463,0.112c0.517,0.03,1.048,0.062,1.588,0.094
									C158.572,29.793,159.561,29.842,160.561,29.892z"/>
								<path fill="#D3D3D3" d="M157.079,27.879l4.38,0.018l4.566-0.025C163.041,27.875,160.057,27.877,157.079,27.879z"/>
								<path fill="#D3D3D3" d="M197.427,27.502c-0.709-0.048-1.411-0.096-2.12-0.144c-1.355-0.001-2.707-0.002-4.057-0.003
									l-1.048,0.014l-1.476,0.034c0.438,0.082,0.89,0.153,1.354,0.217L197.427,27.502z"/>
								<path fill="#D3D3D3" d="M207.273,29.204c-0.308-0.057-0.619-0.115-0.93-0.172c-1.498,0-3.002,0-4.502,0
									C203.648,29.107,205.457,29.167,207.273,29.204z"/>
								<path fill="#D3D3D3" d="M156.391,23.294c-0.041,0.002-0.076,0.024-0.115,0.038c-0.014,1.512-0.025,3.026-0.039,4.542
									l0.844,0.006l-0.826-0.023L156.391,23.294z"/>
								<path fill="#D3D3D3" d="M206.346,29.031c5.924-0.011,11.832-0.068,17.736-0.192c-5.387-0.314-10.771-0.646-16.363-0.832
									c-3.414-0.086-6.863-0.277-10.292-0.504l-7.347,0.117C195.006,28.308,201.207,28.156,206.346,29.031z"/>
								<path fill="#D3D3D3" d="M183.075,27.72l-1.863,0.023c1.724,0.196,3.401,0.404,4.952,0.647
									c-4.534,0.53-9.719,0.51-15.084,0.344c-2.682-0.101-5.411-0.204-8.126-0.306c-1.356-0.047-2.712-0.093-4.054-0.14
									c-1.012-0.027-2.014-0.053-3.002-0.079c0.002-0.302,0.006-0.603,0.008-0.9c-0.004-0.413-0.008-0.823-0.012-1.23
									c-0.021,0.27-0.041,0.537-0.061,0.802l-0.068,0.498c-0.054,0.379-0.105,0.753-0.158,1.123
									c0.297,0.054,0.586,0.107,0.873,0.161c7.633,0.07,15.197,0.139,22.715,0.208c7.591,0.079,15.133,0.15,22.646,0.162
									C195.502,28.766,189.234,28.288,183.075,27.72z"/>
								<path fill="#D3D3D3" d="M190.08,27.619l-7.005,0.101c6.159,0.568,12.427,1.046,18.768,1.312c1.5,0,3.005,0,4.503,0
									C201.207,28.156,195.006,28.308,190.08,27.619z"/>
								<path fill="#D3D3D3" d="M183.075,27.72c-0.509-0.048-1.007-0.095-1.513-0.143l-1.504,0.037
									c0.387,0.043,0.771,0.086,1.152,0.129L183.075,27.72z"/>
								<path fill="#D3D3D3" d="M155.505,18.958l-0.034,0.636c0.002,0.454,0.002,0.908,0.004,1.367c0,1.126-0.002,2.244-0.002,3.37
									c0.226-0.547,0.49-0.889,0.803-0.999c0.012-0.939,0.021-1.877,0.031-2.813l0.021-0.84l0.021-0.519l0.553,0.023l0.265,0.013
									l0.619,0.013l2.86,0.058c1.904,0.048,3.805,0.097,5.701,0.145c0.747-0.053,1.471-0.12,2.17-0.199
									c-2.262-0.092-4.531-0.213-6.801-0.354l-3.404-0.226c-0.563-0.04-1.195-0.081-1.492-0.122l-1.245-0.127L155.505,18.958z"/>
								<path fill="#D3D3D3" d="M181.563,27.577c-0.39-0.037-0.779-0.075-1.172-0.112c-0.559,0-1.119,0.001-1.685,0.001l1.353,0.147
									L181.563,27.577z"/>
								<path fill="#D3D3D3" d="M190.202,27.369c-0.517,0.007-1.025,0.015-1.543,0.021c0.019,0.003,0.042,0.008,0.067,0.012
									L190.202,27.369z"/>
								<path fill="#D3D3D3" d="M188.727,27.402c-0.024-0.004-0.049-0.009-0.066-0.012c-2.73,0.025-5.479,0.049-8.27,0.075
									c0.393,0.037,0.782,0.075,1.172,0.112C183.947,27.519,186.333,27.46,188.727,27.402z"/>
								<path fill="#D3D3D3" d="M156.391,23.294l-0.138,4.563l0.826,0.023c2.978-0.002,5.962-0.005,8.946-0.007
									c4.676-0.046,9.354-0.146,14.033-0.258l-1.354-0.147c-3.487-0.001-7.057-0.042-10.783-0.155
									c-4.086,0.033-7.636,0.063-11.217,0.092c0.008-1.061,0.016-2.126,0.021-3.223c0.016-0.853,0.028-1.718,0.043-2.601
									c0.01-0.441,0.021-0.886,0.031-1.336c0.006-0.311,0.012-0.222,0.018-0.291l0.021-0.108c-0.001-0.059-0.001-0.12-0.002-0.191
									c1.081-0.005,2.321-0.012,3.604-0.02c1.968-0.026,3.996-0.085,5.902-0.221c-1.896-0.048-3.797-0.097-5.701-0.145
									l-2.86-0.058l-0.619-0.013l-0.265-0.013l-0.553-0.023l-0.021,0.519l-0.021,0.84c-0.01,0.936-0.021,1.874-0.031,2.813
									C156.314,23.318,156.35,23.296,156.391,23.294z"/>
								<path fill="#D3D3D3" d="M189.031,17.525c-9.074,0.126-18.143,0.475-27.361,0.653c4.514,0.404,9.008,0.806,13.536,1.212
									c1.088,0.001,2.167,0.002,3.244,0.004c0.856-0.207,1.708-0.408,2.362-0.364c1.143,0.076,2.229,0.146,3.291,0.218
									c4.596-0.208,9.088-0.646,13.402-1.405C194.662,17.737,191.837,17.631,189.031,17.525z"/>
								<path fill="#D3D3D3" d="M173.491,19.362c1.146,0.118,2.351,0.251,3.597,0.335c0.146-0.029,0.299-0.06,0.455-0.091
									l-2.337-0.216C174.639,19.381,174.063,19.372,173.491,19.362z"/>
								<path fill="#D3D3D3" d="M201.829,17.998c-1.45-0.052-2.888-0.103-4.322-0.154c-4.313,0.759-8.808,1.197-13.401,1.405
									c3.631,0.233,6.963,0.405,11.039,0.443c2.25-0.154,3.194-1.317,5.207-1.181c7.047,0.477,15.918,1.479,23.137,0.433
									c3.086-0.121,6.443-0.252,9.863-0.387c1.709-0.072,3.434-0.144,5.147-0.216c0.856-0.041,1.71-0.081,2.558-0.122
									c0.727-0.044,1.446-0.089,2.158-0.133c0.141,1.978,0.276,3.899,0.404,5.721c0.154,1.93,0.328,3.745,0.527,5.392
									c-0.099-4.121-0.193-8.076-0.283-11.761c-7.979,0.167-15.318,0.322-22.277,0.469
									C214.714,18.013,208.214,18.058,201.829,17.998z"/>
								<path fill="#D3D3D3" d="M177.543,19.606c0.294-0.069,0.602-0.14,0.907-0.212c-1.077-0.001-2.156-0.002-3.244-0.004
									L177.543,19.606z"/>
								<path fill="#D3D3D3" d="M197.427,27.502l4.401-0.073c-2.182-0.024-4.359-0.047-6.521-0.071
									C196.016,27.406,196.718,27.454,197.427,27.502z"/>
								<path fill="#D3D3D3" d="M155.463,18.644l0.006,0.663c0.012-0.118,0.024-0.231,0.036-0.349l0.028-0.542L155.463,18.644z"/>
								<path fill="#D3D3D3" d="M155.092,30.007c-0.322-0.018-0.643-0.036-0.938-0.052c0.037-0.689,0.076-1.368,0.113-2.038
									c0.021-0.316,0.041-0.63,0.062-0.942l0.063-0.742c0.088-0.959,0.184-1.892,0.289-2.801c0.106-0.91,0.225-1.796,0.354-2.666
									c0.129-0.924,0.271-1.602,0.428-2.123l-0.004-0.371c2.082-0.032,4.148-0.063,6.211-0.095
									c-1.119-0.091-2.238-0.182-3.363-0.273c-1.152-0.085-2.309-0.171-3.472-0.257c-0.127,1.904-0.255,3.822-0.384,5.756
									c-0.055,0.957-0.11,1.917-0.167,2.882l-0.076,1.71l-0.072,1.976C154.443,29.984,154.768,29.996,155.092,30.007z"/>
								<path fill="#D3D3D3" d="M155.533,18.416l-0.028,0.542l0.065-0.573l1.246,0.127c0.297,0.042,0.931,0.082,1.492,0.122
									l3.404,0.226c2.27,0.141,4.539,0.262,6.801,0.354c0.174-0.021,0.348-0.041,0.516-0.06c1.322-0.091,2.83,0.042,4.462,0.208
									c0.571,0.009,1.146,0.019,1.715,0.028c-4.529-0.406-9.022-0.808-13.536-1.212c-2.063,0.031-4.129,0.063-6.211,0.095
									l0.004,0.371L155.533,18.416z"/>
								<path fill="#D3D3D3" d="M154.837,26.952c0.062-0.406,0.128-0.785,0.202-1.133c0.08-1.046,0.161-2.097,0.242-3.154
									c0.063-1.016,0.125-2.039,0.188-3.07l-0.001-0.288C155.257,21.865,155.046,24.423,154.837,26.952z"/>
								<path fill="#D3D3D3" d="M155.471,19.594l0.034-0.636c-0.012,0.118-0.024,0.23-0.036,0.349L155.471,19.594z"/>
								<path fill="#D3D3D3" d="M206.346,29.031c0.309,0.058,0.621,0.115,0.93,0.172c-1.817-0.037-3.625-0.097-5.433-0.172
									c-7.515-0.012-15.057-0.083-22.647-0.162c-7.516-0.069-15.08-0.138-22.713-0.208c0.588,0.115,1.623,0.239,2.496,0.362
									c0.903,0.12,1.807,0.239,2.717,0.36c1.824,0.227,3.701,0.417,5.734,0.499c-2.145,0.058-4.24,0.012-6.318-0.092l-3.104-0.192
									c-1.082-0.081-2.165-0.163-3.251-0.244c0.094-1.174,0.188-2.353,0.284-3.536c-0.074,0.349-0.142,0.727-0.202,1.133
									c-0.063,0.842-0.123,1.683-0.184,2.503c1.996,0.148,3.964,0.293,5.906,0.437c5.127,0.208,10.582,0.264,13.181,0.725
									c-4.25-0.123-8.662-0.395-13.181-0.725c-1-0.05-1.988-0.099-2.939-0.146c-0.54-0.032-1.071-0.063-1.588-0.094
									c-0.502-0.039-0.99-0.076-1.463-0.112c0.076-1.018,0.164-1.886,0.268-2.588c0.209-2.529,0.42-5.086,0.633-7.645
									l-0.007-0.663c-0.155,0.521-0.299,1.199-0.428,2.123c-0.129,0.87-0.246,1.756-0.353,2.666
									c-0.106,0.909-0.203,1.841-0.291,2.801l-0.063,0.742c-0.021,0.312-0.041,0.626-0.063,0.942
									c-0.037,0.67-0.074,1.349-0.113,2.038c0.296,0.017,0.615,0.034,0.938,0.052c-0.323-0.012-0.647-0.023-0.956-0.035
									l0.072-1.976l0.076-1.71c0.057-0.965,0.111-1.925,0.167-2.882c0.129-1.934,0.257-3.852,0.384-5.756
									c1.163,0.086,2.319,0.171,3.471,0.257c1.125,0.091,2.246,0.182,3.364,0.272c9.22-0.178,18.287-0.526,27.361-0.653
									c-5.671-0.204-11.289-0.407-16.942-0.61c-2.828-0.081-5.666-0.162-8.523-0.244c-1.432-0.032-2.865-0.064-4.308-0.096
									c-1.849-0.025-3.704-0.05-5.571-0.075c-0.023,3.052-0.049,6.166-0.074,9.32c-0.072,0.79-0.108,3.003-0.12,4.797
									c0.812,0.001,1.627,0.001,2.448,0.002c0.67-0.006,1.346-0.013,2.022-0.019c1.028-0.024,2.065-0.049,3.103-0.074
									c4.502-0.31,9.061,0.612,13.562,0.303c17.761-0.947,36.595-0.594,54.72,0.631c3.021,0.203,6.748-0.464,10.476-1.133
									c0.995-0.178,1.755-0.439,2.298-0.732c-6.193-0.088-12.116-0.412-18.036-0.757C218.178,28.963,212.27,29.02,206.346,29.031z
									"/>
								<path fill="#D3D3D3" d="M207.719,28.007c5.592,0.186,10.979,0.518,16.363,0.832c6.363-0.133,12.725-0.347,19.088-0.675
									c-0.082-0.333-0.43-0.605-0.99-0.742c-2.08-1.366-7.756,0.397-12.021,0.416c-9.299,0.04-18.881-0.261-28.329-0.408
									l-4.401,0.073C200.854,27.729,204.305,27.92,207.719,28.007z"/>
								<path fill="#D3D3D3" d="M242.118,29.596c0.844-0.458,1.169-0.995,1.052-1.432c-6.363,0.328-12.725,0.542-19.088,0.675
									C230.002,29.184,235.924,29.508,242.118,29.596z"/>
								<path fill="#A1A1A1" d="M190.146,27.63c-0.021-0.003-0.037-0.005-0.058-0.009c-0.045,0.003-0.095,0.006-0.138,0.009H190.146
									z"/>
								<path fill="#A1A1A1" d="M157.079,27.879l4.38,0.018l4.566-0.025C163.041,27.875,160.057,27.877,157.079,27.879z"/>
								<path fill="#A1A1A1" d="M195.715,27.386c-1.355-0.001-2.703-0.002-4.041-0.003c-0.188,0.002-0.363,0.004-0.544,0.007
									c-0.114,0.031-0.217,0.058-0.328,0.087c0.498,0.034,0.498,0.034,1.003,0.068c-0.604,0.027-1.162,0.051-1.677,0.074
									c2.435-0.039,4.868-0.078,7.299-0.117C196.855,27.464,196.283,27.425,195.715,27.386z"/>
								<path fill="#A1A1A1" d="M165.439,19.417c0.103-0.008,0.197-0.015,0.301-0.022c-0.109-0.003-0.217-0.006-0.321-0.009
									C165.422,19.396,165.438,19.406,165.439,19.417z"/>
								<path fill="#A1A1A1" d="M163.541,19.515c0.066-0.002,0.139-0.005,0.208-0.008c-0.013-0.048-0.065-0.108-0.123-0.169
									c-0.375-0.009-0.756-0.019-1.13-0.028C162.836,19.353,163.188,19.431,163.541,19.515z"/>
								<path fill="#A1A1A1" d="M207.273,29.204c-0.308-0.057-0.619-0.115-0.93-0.172c-1.498,0-3.002,0-4.502,0
									C203.648,29.107,205.457,29.167,207.273,29.204z"/>
								<path opacity="0.9" fill="#A1A1A1" enable-background="new    " d="M156.391,23.294l-0.138,4.563l0.826,0.023
									c2.978-0.002,5.962-0.005,8.946-0.007c4.676-0.046,9.354-0.146,14.033-0.258c-0.199-0.021-0.4-0.043-0.599-0.065
									c-0.679,0.042-1.373,0.077-2.075,0.095l0.621-0.111c-0.154-0.01-0.367-0.024-0.6-0.04c-1.92-0.023-3.875-0.047-5.873-0.071
									c-1.063,0.033-2.037,0.04-2.754-0.071l-0.44-0.011c-4.065,0.031-7.659,0.059-11.218,0.086
									c-0.014,0.068-0.04,0.135-0.071,0.2c-0.183-0.04-0.329-0.086-0.437-0.132c0.021-0.085,0.043-0.168,0.063-0.251
									c0.021-1.683,0.042-3.383,0.064-5.167c-0.121-0.3-0.341,0.833-0.441,0.258c-0.004-0.074-0.008-0.138-0.011-0.205
									c-0.005,0.403-0.01,0.801-0.016,1.204C156.314,23.318,156.35,23.296,156.391,23.294z"/>
								<path fill="#A1A1A1" d="M181.563,27.577c-0.293-0.028-0.59-0.056-0.877-0.083c-0.15,0.001-0.295,0.001-0.439,0.002
									l-0.784,0.053c0.197,0.021,0.397,0.043,0.599,0.065L181.563,27.577z"/>
								<path fill="#A1A1A1" d="M163.622,18.972l-4.361-0.272l-2.129-0.153l-1.562-0.162l-0.065,0.573l-0.034,0.636
									c0.002,0.454,0.002,0.908,0.004,1.367c0,1.126-0.002,2.244-0.002,3.37c0.225-0.547,0.49-0.889,0.803-0.999
									c0.006-0.403,0.011-0.801,0.016-1.204c-0.021-0.398-0.016-0.727,0.011-1.006l0.021-1.327l0.025-0.634l0.649,0.027
									l0.466,0.015l0.85,0.016l3.391,0.072c0.254-0.026,0.518-0.017,0.794,0.02c0.374,0.009,0.755,0.019,1.13,0.028
									C163.494,19.201,163.363,19.053,163.622,18.972z"/>
								<path fill="#A1A1A1" d="M210.98,17.849c-0.045-0.007-0.088-0.013-0.127-0.019c-0.053,0.002-0.104,0.004-0.153,0.006
									C210.79,17.84,210.885,17.844,210.98,17.849z"/>
								<path opacity="0.9" fill="#AFAFAF" enable-background="new    " d="M189.271,17.522c-9.16,0.125-18.301,0.476-27.603,0.656
									c3.399,0.301,6.79,0.601,10.188,0.902c0.248,0.003,0.502,0.006,0.765,0.009c-0.124,0.011-0.237,0.02-0.34,0.029
									c0.317,0.029,0.633,0.059,0.946,0.088c0.127-0.104,0.18-0.227,0.133-0.372c0.892,0.212,3.14,0.058,2.781,0.494
									c-0.014,0.025-0.061,0.048-0.115,0.068l1.871,0.002c0.898-0.218,1.811-0.442,2.496-0.396
									c0.125,0.008,0.246,0.017,0.369,0.025c0.424,0.004,0.879,0.033,1.377,0.091l0.014,0.002
									c0.354-0.437-1.543-0.716-0.922-0.827c2.871-0.283,3.602,0.296,3.365,0.933c4.446-0.219,8.787-0.656,12.969-1.394
									C194.781,17.729,192.018,17.625,189.271,17.522z"/>
								<path opacity="0.9" fill="#ADADAD" enable-background="new    " d="M210.854,17.83c0.041,0.006,0.082,0.012,0.129,0.019
									c-0.098-0.004-0.191-0.009-0.281-0.013c-3.115,0.109-6.215,0.163-9.288,0.134c-1.288-0.046-2.565-0.092-3.845-0.137
									c-4.182,0.738-8.521,1.174-12.969,1.394l-0.02,0.048c3.29,0.206,6.406,0.354,10.146,0.39
									c2.254-0.155,5.467-0.473,7.48-0.336c7.052,0.476,11.82,0.106,19.04-0.938c3.972-0.008,7.759-0.025,11.451-0.091
									c1.845-0.047,3.666-0.095,5.478-0.142c0.904-0.036,1.807-0.072,2.706-0.108l2.507-0.138c0.09,1.265,0.178,2.532,0.269,3.805
									c0.103,1.333,0.22,2.668,0.353,4.013c-0.033-1.271-0.066-2.571-0.101-3.904c-0.021-1.42-0.043-2.875-0.065-4.367
									c-5.408,0.031-11.128,0.064-16.793,0.097C221.477,17.584,215.956,17.645,210.854,17.83z"/>
								<path fill="#A1A1A1" d="M175.824,19.447c0.445,0.041,0.893,0.082,1.334,0.123c0.244-0.057,0.488-0.113,0.74-0.172
									l-1.869-0.002C175.971,19.411,175.898,19.428,175.824,19.447z"/>
								<path fill="#A1A1A1" d="M156.813,19.887c-0.002-0.067-0.002-0.138-0.002-0.21c-0.026-0.038-0.041-0.071-0.049-0.101
									c0.038-0.014,0.135,0.017,0.204,0.048c0.623-0.002,1.278-0.005,1.955-0.008l0.056-0.069c0,0,0.119,0.027,0.291,0.066
									c0.584-0.008,1.174-0.017,1.771-0.024c0.085-0.069,0.146-0.143,0.188-0.196c0.15-0.054,0.315-0.085,0.477-0.102
									l-3.391-0.072l-0.85-0.016l-0.466-0.015l-0.649-0.027l-0.025,0.634l-0.021,1.327c0.036-0.404,0.112-0.71,0.205-1.001
									C156.6,19.906,156.708,19.938,156.813,19.887z"/>
								<path fill="#A1A1A1" d="M164.743,19.034c0.364,0.083,0.591,0.215,0.676,0.352c0.104,0.003,0.212,0.006,0.321,0.009
									c0.787-0.054,1.553-0.121,2.287-0.202C166.938,19.141,165.84,19.087,164.743,19.034z"/>
								<path fill="#A1A1A1" d="M175.148,19.545c0.496,0.041,1.004,0.082,1.519,0.124c0.16-0.032,0.322-0.065,0.491-0.099
									c-0.441-0.041-0.889-0.082-1.334-0.123C175.641,19.485,175.404,19.515,175.148,19.545z"/>
								<path fill="#A1A1A1" d="M156.391,23.294c-0.041,0.002-0.076,0.024-0.115,0.038c-0.014,1.512-0.025,3.026-0.039,4.542
									l0.844,0.006l-0.826-0.023L156.391,23.294z"/>
								<path opacity="0.9" fill="#A1A1A1" enable-background="new    " d="M201.843,29.031c1.5,0,3.005,0,4.503,0
									c-5.113-0.87-11.27-0.727-16.183-1.399c-0.382,0.03-0.806,0.104-1.229,0.179c0.301-0.104,0.644-0.152,1.018-0.181
									c-0.07-0.002-0.148-0.003-0.219-0.005c-2.217,0.031-4.44,0.063-6.657,0.095C189.234,28.288,195.502,28.766,201.843,29.031z"
									/>
								<path opacity="0.9" fill="#CCCCCC" enable-background="new    " d="M206.346,29.031c0.309,0.058,0.621,0.115,0.93,0.172
									c-1.817-0.037-3.625-0.097-5.433-0.172c-7.515-0.012-15.057-0.083-22.647-0.162c-7.516-0.069-15.08-0.138-22.713-0.208
									c0.588,0.115,1.623,0.239,2.496,0.362c0.903,0.12,1.807,0.239,2.717,0.36c1.824,0.227,3.701,0.417,5.734,0.499
									c-2.145,0.058-4.24,0.012-6.318-0.092l-3.104-0.192c-1.082-0.081-2.165-0.163-3.251-0.244
									c0.094-1.174,0.188-2.353,0.284-3.536c-0.074,0.349-0.142,0.727-0.202,1.133c-0.063,0.842-0.123,1.683-0.184,2.503
									c1.996,0.148,3.964,0.293,5.906,0.437c4.242,0.172,8.705,0.241,11.588,0.521c3.272,0.103,6.568,0.177,10.065,0.01
									c0.687-0.047,1.606-0.134,2.503-0.108c0.741-0.047,1.521-0.07,2.34-0.078c0.961-0.198,2.573-0.119,3.418-0.177
									c1.896-0.129,3.762-0.021,5.572,0.138c0.18-0.01,0.359-0.021,0.533-0.03c0.473-0.085,1.744-0.027,2.672,0.162
									c0.963,0.01,1.932,0.019,2.895,0.029c0.215,0.003,0.424,0.006,0.631,0.009l2.531,0.045c0.322-0.081,0.678-0.058,1.073,0.021
									c7.833,0.172,15.671,0.534,23.384,1.054c3.021,0.204,6.748-0.463,10.477-1.131c1.023-0.184,1.793-0.454,2.339-0.756
									c-6.363-0.077-12.431-0.408-18.498-0.762C218.178,28.963,212.27,29.02,206.346,29.031z"/>
								<path fill="#A1A1A1" d="M163.369,30.09l-0.102,0.125c0.748,0.004,1.496,0.009,2.236,0.013
									C164.796,30.183,164.083,30.136,163.369,30.09z"/>
								<path fill="#A1A1A1" d="M183.075,27.72c2.217-0.032,4.44-0.063,6.657-0.095c-0.967-0.011-2.002-0.073-2.92-0.177
									l-5.25,0.128C182.068,27.625,182.566,27.671,183.075,27.72z"/>
								<path fill="#B8B8B8" d="M154.837,26.952c0.209-2.529,0.42-5.086,0.632-7.645l-0.006-0.663
									c-0.156,0.521-0.299,1.199-0.428,2.123c-0.129,0.87-0.246,1.756-0.354,2.666c-0.105,0.909-0.201,1.841-0.289,2.801
									l-0.063,0.742c-0.021,0.312-0.041,0.626-0.062,0.942c-0.037,0.67-0.076,1.349-0.113,2.038
									c0.295,0.017,0.615,0.034,0.938,0.052c-0.324-0.012-0.646-0.023-0.955-0.035l0.071-1.976l0.076-1.71
									c0.057-0.965,0.112-1.925,0.167-2.882c0.129-1.934,0.257-3.853,0.384-5.756c1.163,0.086,2.319,0.171,3.472,0.257
									c1.125,0.091,2.244,0.182,3.363,0.273c9.301-0.18,18.441-0.531,27.602-0.656c-7.935-0.3-15.756-0.602-23.707-0.815
									c-0.551,0.075-0.949,0.252-1.108,0.451c-1.542-0.238-3.112-0.375-4.707-0.452c-0.797-0.038-1.599-0.06-2.405-0.071
									c-1.171-0.002-2.347-0.004-3.527-0.007c0.027,6.457,0.188,7.173,0.015,13.651l1.933,0.075
									c0.368,0.128-0.688,0.113-1.152,0.16c1.221-0.004,2.431-0.009,3.646-0.013c1.467-0.169,2.996-0.436,4.84-0.43
									c-0.84-0.06-1.684-0.119-2.535-0.18c-1-0.05-1.987-0.099-2.939-0.146c-0.54-0.032-1.07-0.063-1.588-0.094
									c-0.502-0.039-0.99-0.076-1.463-0.112C154.646,28.522,154.732,27.654,154.837,26.952z"/>
								<path fill="#A1A1A1" d="M155.092,30.007c-0.322-0.018-0.643-0.036-0.938-0.052c0.037-0.689,0.076-1.368,0.113-2.038
									c0.021-0.316,0.041-0.63,0.062-0.942l0.063-0.742c0.088-0.959,0.184-1.892,0.289-2.801c0.106-0.91,0.225-1.796,0.354-2.666
									c0.129-0.924,0.271-1.602,0.428-2.123l-0.004-0.371c2.082-0.032,4.148-0.063,6.211-0.095
									c-1.119-0.091-2.238-0.182-3.363-0.273c-1.152-0.085-2.309-0.171-3.472-0.257c-0.127,1.904-0.255,3.822-0.384,5.756
									c-0.055,0.957-0.11,1.917-0.167,2.882l-0.076,1.71l-0.072,1.976C154.443,29.984,154.768,29.996,155.092,30.007z"/>
								<path fill="#A1A1A1" d="M160.561,29.892c0.853,0.061,1.695,0.12,2.535,0.18c0.098,0,0.189-0.001,0.285-0.001l-0.012,0.02
									c0.714,0.046,1.427,0.093,2.136,0.139c2.238,0.031,4.435,0.113,6.644,0.185C169.266,30.133,164.803,30.063,160.561,29.892z"
									/>
								<path fill="#A1A1A1" d="M195.715,27.386c0.568,0.039,1.141,0.078,1.712,0.116l3.347-0.056l-0.053-0.012
									C199.047,27.418,197.378,27.402,195.715,27.386z"/>
								<path opacity="0.9" fill="#C4C4C4" enable-background="new    " d="M224.082,28.839c6.498-0.136,12.99-0.357,19.495-0.696
									c-0.11-0.31-0.445-0.563-0.981-0.693c-0.871-0.574-2.383-0.595-4.158-0.425c-0.011,0.129,2.104-0.013,0.887,0.204
									c-0.738,0.257-2.485,0.445-3.992,0.344c-0.277-0.021-0.521-0.038-0.745-0.054l-0.312,0.042
									c-0.102,0.117-0.231,0.203-0.543,0.069c-1.086,0.131-6.936-0.23-7.932-0.227c0.018,0.001,4.698,0.46,4.721,0.462
									c-0.264,0.03-0.53,0.062-0.815,0.095c0.024-0.032,0.049-0.063,0.081-0.094c-0.297,0-0.59,0.001-0.887,0.002
									c-0.319,0.163-0.435,0.382-1.059,0.425c0.504,0.034,0.504,0.034,1.006,0.069c-0.738,0.256-2.248,0.154-3.255,0.086
									c0.233-0.29,1.242-0.222,1.744-0.188l-0.502-0.034c0.502,0.034,1.628-0.044,1.239-0.222
									c-0.286-0.135-1.053-0.045-1.631-0.004c-0.121,0.014-0.254,0.021-0.389,0.016c-0.039-0.001-0.074-0.002-0.109-0.004
									c0.035,0.001,0.07,0.002,0.109,0.004c0.108-0.004,0.242-0.01,0.389-0.016c0.205-0.023,0.354-0.071,0.354-0.137
									c-0.498-0.003-0.999-0.006-1.5-0.009c-0.078,0.025-0.165,0.048-0.255,0.069c0.12,0.012,0.255,0.03,0.399,0.056l-0.506-0.034
									l0.105-0.021c-1.072-0.104-1.461,0.252-2.471,0.321c0.582-0.104-0.166-0.3,0.255-0.415
									c-0.113-0.001-0.228-0.002-0.347-0.003c-0.512,0.072-1.06,0.095-1.627,0.093c-0.717,0.107-1.397,0.263-2.041,0.378
									c-0.088-0.266,0.356-0.35,0.895-0.417c-0.555-0.039-1.124-0.079-1.705-0.12c-0.396,0.195-0.332,0.331-1.708,0.366
									c0.101-0.123,0.134-0.279,0.278-0.395c-1.027-0.02-2.051-0.039-3.082-0.059c-0.199,0.024-0.402,0.048-0.604,0.073
									c-0.015,0.012-0.138,0.141-0.617,0.109c0.2-0.043,0.408-0.079,0.617-0.109v-0.002c-0.443-0.036-0.906-0.073-1.38-0.111
									l-5.187-0.104c0.024,0.023,0.059,0.045,0.104,0.063c0.059,0.011,0.119,0.022,0.186,0.035
									c-0.078-0.006-0.141-0.019-0.186-0.035c-0.759-0.118-1.122,0.242-1.945,0.044l0.502,0.034
									c-1.285-0.19-2.379-0.015-3.424,0.084c2.059,0.112,4.115,0.202,6.162,0.254C213.311,28.193,218.695,28.525,224.082,28.839z"
									/>
								<path fill="#A1A1A1" d="M200.635,27.702c0.188-0.034,0.34-0.061,0.704-0.125l-0.565-0.13l-3.347,0.056
									C198.497,27.569,199.57,27.636,200.635,27.702z"/>
								<path fill="#B3B3B3" d="M190.128,27.619c-0.01,0-0.028,0.001-0.039,0.002c0.021,0.003,0.035,0.005,0.058,0.009
									c0.014,0,0.035,0,0.049,0c0.17-0.014,0.334-0.019,0.484-0.007c-0.156,0.002-0.32,0.004-0.484,0.007l-0.031,0.002
									c4.913,0.673,11.068,0.53,16.182,1.399c5.924-0.011,11.834-0.068,17.737-0.192c-5.386-0.314-10.771-0.646-16.362-0.832
									c-2.048-0.052-4.104-0.142-6.162-0.254c-0.492,0.048-0.978,0.079-1.461,0.046c0.258-0.046,0.404-0.073,0.539-0.097
									c-1.064-0.066-2.139-0.133-3.209-0.2C194.996,27.542,192.563,27.58,190.128,27.619z"/>
								<path fill="#ADADAD" d="M242.58,29.601c0.846-0.469,1.148-1.02,0.997-1.458c-6.505,0.338-12.997,0.56-19.495,0.696
									C230.148,29.193,236.217,29.524,242.58,29.601z"/>
								<path fill="#DFDFDF" d="M155.533,18.416l-0.028,0.542l0.065-0.573l1.562,0.162l2.13,0.153l4.36,0.272
									c0.026-0.008,0.052-0.015,0.088-0.025c0.421-0.01,0.763,0.025,1.033,0.087c1.097,0.053,2.194,0.106,3.284,0.159
									c0.195-0.023,0.394-0.046,0.586-0.068c0.438-0.03,0.898-0.035,1.38-0.022c0.585-0.02,1.207-0.026,1.866-0.022
									c-3.399-0.301-6.789-0.601-10.189-0.902c-2.063,0.031-4.129,0.063-6.211,0.095l0.004,0.371L155.533,18.416z"/>
								<path fill="#A1A1A1" d="M155.471,19.594l0.034-0.636c-0.012,0.118-0.024,0.23-0.036,0.349L155.471,19.594z"/>
								<path fill="#A1A1A1" d="M167.43,29.883c-2.033-0.082-3.91-0.272-5.734-0.499c-0.91-0.121-1.813-0.24-2.717-0.36
									c-0.873-0.123-1.908-0.247-2.496-0.362l-1.027-0.007c0.006-1.438,0.012-2.88,0.018-4.324
									c-0.164,0.399-0.308,0.9-0.433,1.488c-0.097,1.184-0.19,2.362-0.284,3.536c1.086,0.082,2.169,0.163,3.251,0.244l3.104,0.192
									C163.188,29.895,165.285,29.94,167.43,29.883z"/>
								<path fill="#ADADAD" d="M155.895,26.079c0.004,0.407,0.008,0.817,0.013,1.23c-0.003,0.298-0.005,0.598-0.007,0.9
									c0.988,0.026,1.99,0.052,3,0.079c1.343,0.046,2.697,0.093,4.055,0.14c2.715,0.102,5.445,0.205,8.126,0.306
									c5.364,0.166,10.55,0.186,15.084-0.344c-1.55-0.243-3.229-0.451-4.952-0.647c-5.064,0.043-10.131,0.086-15.188,0.129
									l-4.565,0.025l-4.38-0.018l-0.844-0.006c0.014-1.515,0.025-3.029,0.039-4.542c-0.313,0.11-0.577,0.452-0.803,0.999
									c-0.007,1.444-0.013,2.886-0.019,4.324l1.026,0.007c-0.287-0.053-0.576-0.106-0.873-0.161
									c0.053-0.369,0.104-0.743,0.158-1.123l0.068-0.498C155.854,26.615,155.875,26.348,155.895,26.079z"/>
								<path fill="#CACACA" d="M180.059,27.614c-4.678,0.113-9.356,0.212-14.033,0.258c5.057-0.043,10.121-0.086,15.188-0.129
									C180.83,27.7,180.445,27.657,180.059,27.614z"/>
								<path fill="#A1A1A1" d="M186.813,27.448l-0.014-0.002c-2.023,0.016-4.057,0.031-6.113,0.047
									c0.287,0.027,0.582,0.056,0.877,0.083L186.813,27.448z"/>
								<path fill="#CCCCCC" d="M160.561,29.892c-1.942-0.144-3.91-0.289-5.906-0.437c0.061-0.82,0.121-1.661,0.184-2.503
									c-0.104,0.703-0.191,1.57-0.268,2.588c0.473,0.036,0.961,0.073,1.463,0.112c0.517,0.03,1.048,0.062,1.588,0.094
									C158.572,29.793,159.561,29.842,160.561,29.892z"/>
								<path fill="#A1A1A1" d="M183.075,27.72c-0.509-0.048-1.007-0.095-1.513-0.143l-1.504,0.037
									c0.387,0.043,0.771,0.086,1.152,0.129L183.075,27.72z"/>
								<path fill="#A1A1A1" d="M171.736,19.208c0.416,0.04,0.847,0.081,1.289,0.123c0.088-0.037,0.146-0.079,0.205-0.124
									c-0.314-0.029-0.629-0.059-0.947-0.088C172.047,19.143,171.874,19.172,171.736,19.208z"/>
								<path fill="#A1A1A1" d="M155.463,18.644l0.006,0.663c0.012-0.118,0.024-0.231,0.036-0.349l0.028-0.542L155.463,18.644z"/>
								<path fill="#A1A1A1" d="M154.837,26.952c0.062-0.406,0.128-0.785,0.202-1.133c0.08-1.046,0.161-2.097,0.242-3.154
									c0.063-1.016,0.125-2.039,0.188-3.07l-0.001-0.288C155.257,21.865,155.046,24.423,154.837,26.952z"/>
								<path fill="#CACACA" d="M155.039,25.818c0.125-0.588,0.268-1.089,0.434-1.488c0-1.126,0.002-2.244,0.002-3.37
									c-0.002-0.458-0.002-0.913-0.004-1.367c-0.063,1.031-0.127,2.054-0.188,3.07C155.2,23.722,155.119,24.772,155.039,25.818z"
									/>
								<path fill="#A1A1A1" d="M186.164,28.39c-4.534,0.53-9.719,0.51-15.084,0.344c-2.682-0.101-5.411-0.204-8.126-0.306
									c-1.356-0.047-2.712-0.093-4.054-0.14c-1.012-0.027-2.014-0.053-3.002-0.079c0.002-0.302,0.006-0.603,0.008-0.9
									c-0.004-0.413-0.008-0.823-0.012-1.23c-0.021,0.27-0.041,0.537-0.061,0.802l-0.068,0.498
									c-0.054,0.379-0.105,0.753-0.158,1.123c0.297,0.054,0.586,0.107,0.873,0.161c7.633,0.07,15.197,0.139,22.715,0.208
									c7.591,0.079,15.133,0.15,22.646,0.162c-6.341-0.265-12.607-0.744-18.768-1.312l-1.863,0.023
									C182.936,27.938,184.613,28.147,186.164,28.39z"/>
							</g>
						</g>
					</g>
				</g>
			</g>
		</g>
	</g>
	<rect y="37" fill="#555555" width="280" height="12"/>
	<g>
		<path fill="#E5EEEC" d="M276,27.436C276,28.3,275.3,29,274.436,29h-28.871C244.7,29,244,28.3,244,27.436v-7.871
			C244,18.7,244.7,18,245.564,18h28.871C275.3,18,276,18.7,276,19.564V27.436z"/>
		<g>
			<g>
				<g>
					<g>
						<path fill="#202020" d="M275.568,27.634c0.045,0.044,0.146,0.02,0.125-0.104l-0.172-0.088L275.568,27.634z"/>
						<path fill="#202020" d="M275.889,26.806c-0.084-0.145-0.23-0.312-0.391-0.218c0.166,0.144,0.097,0.178,0.295,0.333
							c0.02,0.124-0.057,0.215-0.119,0.194c0.044,0.044-0.037,0.191,0.07,0.258c0.134-0.16,0.139-0.363,0.027-0.576
							C275.811,26.751,275.855,26.795,275.889,26.806z"/>
						<path fill="#202020" d="M272.277,17.482l0.078,0.021C272.334,17.491,272.309,17.485,272.277,17.482z"/>
						<path fill="#202020" d="M264.814,17.388c0.059-0.004,0.082-0.021,0.084-0.037C264.848,17.362,264.805,17.373,264.814,17.388z"
							/>
						<path fill="#202020" d="M263.542,17.197c0.028,0.004,0.05,0.008,0.075,0.012C263.589,17.193,263.561,17.184,263.542,17.197z"
							/>
						<path fill="#202020" d="M272.277,17.482l-0.199-0.054C272.064,17.484,272.182,17.47,272.277,17.482z"/>
						<path fill="#202020" d="M275.473,25.145c0.008,0.042,0.023,0.077,0.045,0.108l-0.02-0.102L275.473,25.145z"/>
						<path fill="#202020" d="M275.717,17.904c0.004-0.003,0.051,0.056,0.051,0.056c0.028,0.003,0.061,0.003,0.094,0.001
							C275.859,17.961,275.719,17.9,275.717,17.904z"/>
						<path fill="#202020" d="M276.323,20.576c0.007-0.057-0.14-0.077-0.204-0.099c0.061,0.032,0.089,0.075,0.102,0.125
							C276.247,20.603,276.281,20.595,276.323,20.576z"/>
						<path fill="#202020" d="M276.064,24.579l0.021,0.071C276.08,24.631,276.072,24.602,276.064,24.579z"/>
						<path fill="#202020" d="M273.761,17.311c-0.005-0.021-0.014-0.041-0.022-0.052C273.736,17.276,273.746,17.294,273.761,17.311z
							"/>
						<path fill="#202020" d="M273.878,28.511c-0.002,0.01,0.001,0.017,0,0.026C273.893,28.521,273.896,28.511,273.878,28.511z"/>
						<path fill="#202020" d="M275.953,27.634l0.004,0.042c0.027,0.005,0.054,0.011,0.081,0.012L275.953,27.634z"/>
						<path fill="#202020" d="M261.21,17.009l0.011,0.003C261.282,16.996,261.247,16.999,261.21,17.009z"/>
						<path fill="#202020" d="M242.971,22.17c0.131-0.243,0.168,0.395,0.313,0.029C243.227,22.234,243.057,21.868,242.971,22.17z"/>
						<path fill="#202020" d="M275.49,25.08l-0.002-0.104C275.484,25.023,275.484,25.055,275.49,25.08z"/>
						<path fill="#202020" d="M243.284,22.2L243.284,22.2l0.016-0.038C243.293,22.178,243.289,22.187,243.284,22.2z"/>
						<path fill="#202020" d="M255.838,17.098c0.012,0.026,0.032,0.045,0.055,0.064C255.891,17.146,255.879,17.128,255.838,17.098z"
							/>
						<path fill="#202020" d="M259.84,17.306l-0.099-0.02C259.779,17.3,259.813,17.305,259.84,17.306z"/>
						<path fill="#202020" d="M253.76,17.305c-0.054-0.011-0.072-0.032-0.146-0.012l0.023,0.018
							C253.663,17.291,253.699,17.281,253.76,17.305z"/>
						<polygon fill="#202020" points="251.598,17.305 251.637,17.335 251.706,17.327 						"/>
						<path fill="#202020" d="M267.305,28.581c0.047,0.042,0.077,0.087,0.1,0.132C267.371,28.608,267.689,28.571,267.305,28.581z"/>
						<path fill="#202020" d="M275.555,25.144c-0.037-0.013-0.057-0.031-0.063-0.064l0.008,0.072
							C275.521,25.158,275.541,25.159,275.555,25.144z"/>
						<path fill="#202020" d="M253.672,18.461l-0.344-0.021C253.425,18.454,253.55,18.461,253.672,18.461z"/>
						<path fill="#202020" d="M251.788,28.602l0.079-0.018C251.836,28.581,251.809,28.585,251.788,28.602z"/>
						<path fill="#202020" d="M252.309,18.461c-0.062-0.052-0.125-0.082-0.192-0.101c-0.015,0.011-0.03,0.021-0.04,0.038
							L252.309,18.461z"/>
						<path fill="#202020" d="M267.404,28.714L267.404,28.714L267.404,28.714z"/>
						<path fill="#202020" d="M269.669,28.366c-0.327-0.004-0.153,0.188-0.224,0.299c-0.391,0.055-0.182-0.142-0.313-0.241
							c-0.243,0.051-0.432,0.228-0.612,0.221c-0.015-0.032-0.049-0.043-0.008-0.083c-0.259,0.153-0.767,0.008-1.066,0.2
							c-0.022-0.017-0.033-0.033-0.039-0.048c0.049,0.097,0.056,0.195,0.046,0.264c-0.146,0.003-0.272,0.122-0.327-0.004
							c0.09,0.003,0.098-0.047,0.141-0.086l-0.154,0.055c-0.139-0.181,0.209-0.063,0.209-0.197
							c-0.299,0.059-0.648,0.209-0.879,0.158c-0.047-0.177,0.537-0.06,0.23-0.217l0.355,0.068c-0.271-0.279,0.216,0.02-0.033-0.279
							c-0.469-0.052-0.523,0.09-0.99,0.039c-0.105,0.098,0.034,0.146-0.07,0.244c-0.664,0.177-0.521-0.446-1.011-0.21
							c-0.126,0.118-0.175,0.342-0.522,0.224l0.119-0.2c-0.453-0.02-0.258,0.288-0.732,0.153c0.084-0.079,0.355-0.066,0.287-0.09
							c-0.307-0.158-0.217,0.114-0.453,0.114l-0.049-0.177c-0.482,0.028-1.014,0.156-1.549,0.188
							c0.029-0.053,0.121-0.108-0.004-0.162c-0.674,0.088-1.438-0.022-2.088-0.127l-0.248,0.153
							c-0.059-0.001-0.107-0.069-0.045-0.099c-0.254-0.058-0.014,0.097-0.136,0.157c-0.146,0.011-0.19-0.088-0.099-0.134
							c-0.447,0.129-1.273,0.279-1.744,0.115l0.092-0.045c-0.367-0.062-0.414,0.314-0.754,0.171l0.064-0.027
							c-0.797-0.066-1.676,0.074-2.283-0.157c-0.114,0.221-0.787-0.098-0.838,0.209c-0.455-0.152-0.324-0.207-0.965-0.31
							c-0.172-0.014-0.256,0.192-0.467,0.224l-0.005-0.161l-0.287,0.168l-0.151-0.192l-0.198,0.042
							c0.077,0.009,0.167,0.072,0.155,0.119c-0.311,0.072-0.756-0.112-0.764-0.195l-0.732,0.136
							c0.018-0.065,0.141-0.087,0.236-0.128c-0.392,0.164-0.07-0.169-0.43-0.019c0.048,0.036-0.025,0.096-0.034,0.128
							c-0.179-0.097-0.585-0.098-0.886-0.057l0.059-0.111c-0.543-0.028-1.146,0.053-1.756,0.051
							c0.219,0.052,0.168,0.244-0.011,0.262l-0.071-0.17c-0.115,0.105,0.188,0.064-0.051,0.193c-0.229-0.02-0.152-0.193-0.021-0.249
							l-0.276,0.059c-0.017-0.051,0.049-0.078,0.065-0.143c-0.113,0.106-0.479-0.17-0.643,0.013l-0.016-0.051
							c-0.609-0.001-0.887,0.057-1.383,0.065c-0.017,0.148-0.209,0.116-0.297,0.218c-0.255-0.079-0.431-0.298-0.598-0.488
							c-0.182-0.104-0.137,0.029-0.262-0.004c0.091-0.083-0.018-0.331,0.123-0.233c-0.064-0.148-0.075-0.238-0.104-0.368
							c-0.019-0.186-0.046-0.389-0.101-0.723c-0.055,0.072-0.078,0.154-0.124,0.111c-0.021-0.121,0.057-0.275,0.12-0.258
							l0.014,0.032c-0.2-0.749,0.391-1.729,0.111-2.326l0.014,0.034l-0.145-0.619c0.021-0.285,0.1,0.17,0.183-0.04
							c-0.224-0.667,0.032-1.054-0.116-1.604c0.395-0.425-0.027-1.509,0.225-2.083l-0.094,0.033
							c-0.091-0.148,0.055-0.18,0.074-0.289c-0.07,0.016-0.083,0.161-0.134,0.069c-0.025-0.291-0.041-0.702-0.005-0.843
							c0.052-0.192,0.171-0.36,0.324-0.473c0.155-0.116,0.349-0.146,0.515-0.139c0.294,0.024,0.586,0.048,0.873,0.071
							c0.472,0.025,0.268-0.48,0.862-0.259l-0.17,0.172c0.951-0.207,1.945,0.007,2.877-0.168c-0.057,0.04-0.058,0.091-0.147,0.091
							c0.196,0.125,0.728,0.006,0.729-0.096c0.146,0.012,0.033,0.092,0.123,0.145c0.197,0.074,0.495-0.16,0.601-0.036
							c0.018,0.021-0.056,0.041-0.093,0.05c0.129-0.061,0.601,0.016,0.478-0.129c0.351,0.069,0.668-0.064,0.947,0.021
							c0.182-0.162,0.599,0.078,0.655-0.151c-0.024,0.236,0.612,0.19,0.834,0.08c-0.073,0.071,0.191,0.074,0.105,0.172
							c0.252-0.003,0.482-0.047,0.438-0.168c0.465,0.282,0.936-0.228,1.197,0.134c0.748-0.127,1.441-0.212,2.115-0.268
							c-0.023,0.235-0.745,0.023-0.717,0.271c0.64-0.097,1.009-0.299,1.643-0.242c0.164,0.032-0.094,0.102-0.148,0.142
							c0.64-0.097,1.234,0.021,1.804-0.107c-0.001,0.022-0.063,0.046-0.121,0.064c0.112-0.008,0.261,0.035,0.248-0.072l-0.108,0.029
							c-0.18-0.155,0.444-0.324,0.465-0.406c-0.189,0.307,0.562,0.077,0.26,0.464c0.072-0.02,0.166-0.071,0.148-0.143
							c0.109,0.021,0.145,0.063,0.033,0.144c0.401-0.058,0.26-0.172,0.622-0.169c-0.002,0.052-0.075,0.072-0.112,0.133
							c0.185-0.101,0.369-0.202,0.676-0.158c-0.019,0.031,0.019,0.072-0.073,0.071c0.526-0.016,0.899-0.269,1.478-0.171
							c-0.171,0.225,0.197,0.074,0.229,0.269l0.313-0.058l-0.125-0.094c0.271,0.003,0.514-0.139,0.747-0.075l-0.202,0.08l0.51-0.037
							l-0.289-0.074c0.277-0.1-0.028-0.247,0.334-0.192c-0.073,0.02,0.272,0.002,0.414,0.117l0,0
							c0.136-0.062,0.273-0.127,0.476-0.079c0.054,0.062-0.042,0.215-0.008,0.257c0.133-0.163,0.639-0.045,0.807-0.219
							c-0.056,0.041-0.059,0.143-0.041,0.164l0.112-0.132c0.126,0.042,0.145,0.063,0.124,0.144c0.38,0.024-0.121-0.247,0.33-0.141
							c-0.035,0.011-0.019,0.031-0.093,0.051c0.453,0.056,0.875-0.084,1.291-0.019c0.123,0.196-0.363,0.048-0.224,0.213
							c0.601-0.036,1.242-0.235,1.823-0.188l-0.107-0.022c0.079-0.276,0.432,0.137,0.726,0.006
							c-0.072,0.021-0.095,0.154-0.075,0.123c0.396,0.045,0.813-0.068,1.415-0.155l-0.074,0.071c0.234,0.063,0.617,0.036,0.87,0.069
							c0.075-0.071,0.221-0.06,0.132-0.163c0.392,0.203,0.763,0.148,1.123,0.085c0.19-0.038,0.351-0.059,0.495-0.045
							c0.146,0.029,0.294,0.095,0.369,0.244c-0.061-0.031-0.161-0.019-0.117,0.006c0,0,0.105,0.035,0.212,0.083
							c0.095,0.063,0.204,0.119,0.197,0.126c0.063-0.117,0.006-0.091-0.019-0.235c0.103-0.02,0.26,0.053,0.346,0.172
							c-0.227-0.145-0.141,0.127-0.15,0.234c0.023-0.035,0.073-0.027,0.102-0.054c-0.076,0.344,0.272-0.086,0.262,0.358
							l-0.067-0.003c0.087,0.123,0.158,0.26,0.16,0.428c-0.134,0.066-0.075-0.163-0.192-0.158c0.034,0.198,0.271,0.459,0.139,0.666
							c-0.039-0.102-0.04-0.247-0.078-0.348c-0.164,0.235-0.122,0.262-0.148,0.437l0.004-0.017l-0.074,0.404l0.045-0.103
							c0.363,0.298,0.066,0.608,0.305,1.01c-0.225-0.391-0.13-0.065-0.288-0.095c-0.044,0.103-0.093,0.259-0.138,0.214
							c0.128,0.19-0.1,0.317,0.086,0.585c-0.051,0.012-0.006,0.203-0.133,0.161c0.041,0.247,0.089-0.059,0.152-0.038
							c0.174,0.38-0.211,0.895,0.027,1.442c0.098,0.472,0.27,0.56,0.355,0.998c-0.082,0.148-0.187-0.121-0.187-0.121
							c-0.075,0.239-0.062,0.418-0.003,0.643c-0.045-0.046-0.082,0.001-0.141,0.07c0.015,0.18,0.187,0.121,0.11,0.358
							c-0.057-0.041-0.147-0.093-0.204-0.18c0.047,0.213,0.143,0.423,0.188,0.643c-0.089,0.059-0.134-0.133-0.192-0.21
							c0.04,0.247,0.08,0.641,0.221,0.717l0.051-0.159c0.007,0.09-0.12,0.046-0.146-0.021c-0.109-0.212,0.049-0.306,0.1-0.317
							l0.033,0.157c0.299-0.161-0.049-0.63-0.031-0.945l0.218,0.131l-0.181-0.323c0.058-0.069,0.179-0.116,0.211,0.04
							c0.106-0.226-0.077-0.2,0.041-0.395c0.021-0.021,0.029-0.012,0.039,0.008l-0.064-0.221c0.046,0.043,0.152-0.037,0.122,0.099
							c0.125-0.397-0.163-0.64,0.001-0.789l0.014,0.033c-0.072-0.551-0.158-0.053-0.347-0.466l0.394-0.278l-0.158-0.054
							c0.006-0.057,0.018-0.169,0.08-0.148c-0.108-0.211-0.068,0.036-0.172-0.086c0.146-0.273-0.067-0.754,0.187-0.815
							c-0.121-0.098-0.095,0.262-0.179-0.03c0.273-0.083-0.047-0.337,0.08-0.587c0.141,0.077,0.064,0.313,0.19,0.063
							c-0.237-0.15,0.054-0.486,0.007-0.697c-0.188-0.01-0.078-0.458-0.143-0.812c0.048,0.027,0.156-0.647,0.072-1.088l0.033,0.001
							c-0.197-0.018-0.306-0.389-0.537-0.562c0.093-0.067,0.16-0.059,0.306,0.041l-0.185-0.223c-0.084-0.014-0.18-0.04-0.326-0.136
							l0.143-0.068c-0.324-0.236-0.725-0.264-1.188-0.364c-0.008,0.135,0.297,0.396-0.111,0.457
							c-0.016-0.072-0.031-0.197,0.08-0.224c-0.038,0.007-0.129,0.06-0.202,0.028l0.168-0.121c-0.181-0.054-0.095,0.101-0.239,0.09
							c0.004-0.103-0.107-0.073-0.086-0.155c0.036-0.01,0.126,0.043,0.182,0.002c-0.164-0.019-0.36-0.08-0.426-0.158
							c0.014,0.059,0,0.139-0.119,0.152c-0.31,0.007-0.105-0.124-0.287-0.177c-0.073,0.071-0.271-0.003-0.275,0.151
							c-0.091,0-0.107-0.072-0.143-0.114c-0.16,0.068-0.748,0.02-0.566,0.183l0.041,0.011l-0.026,0.006h0.001h-0.001
							c-0.524,0.153-1.089-0.087-1.608-0.021l0.002-0.052c-0.312,0.059-0.691,0.035-0.913,0.146c-0.093,0-0.218-0.094-0.179-0.155
							c-0.236,0.039-0.264,0.097-0.605,0.012c0.238-0.09-0.082-0.08,0.244-0.066c-0.309-0.044-0.378-0.127-0.709,0.014
							c0.111-0.132-0.232-0.166-0.379-0.126l0.217,0.094c-0.165,0.02-0.311,0.008-0.456-0.003l0.079-0.174
							c-0.631-0.211-1.139,0.359-1.618,0.006c-0.167,0.122,0.343,0.085,0.192,0.228c-0.289-0.023-0.592-0.272-0.684-0.273
							c-0.396-0.096-0.371,0.253-0.787,0.188c0.055,0.062,0.104,0.228-0.207,0.286c-0.289-0.023-0.356-0.26-0.174-0.309
							c0.07-0.005,0.104,0.014,0.102,0.035c0.094-0.022,0.217-0.049,0.102-0.116l-0.037,0.062c-0.145-0.063-0.544-0.057-0.449-0.158
							c-0.221,0.059-0.095,0.102,0.067,0.134c-0.372-0.09-0.582-0.003-0.965-0.063c0.062,0.034,0.116,0.107,0.057,0.106
							c-0.563-0.077-0.247,0.117-0.629,0.145c-0.217-0.095,0.077-0.226-0.307-0.146c-0.234-0.064-0.05-0.164,0.044-0.215
							c-0.35,0.12-0.653-0.078-0.854-0.1l0.185-0.05c-0.109,0.029-0.2,0.029-0.292,0.028l0.105,0.124
							c-0.109-0.022-0.201-0.022-0.199-0.074c-0.11,0.081,0.086,0.206-0.135,0.317c-0.145-0.063-0.438,0.067-0.488-0.097
							c0.453,0.056-0.051-0.165,0.334-0.191c-0.074,0.02-0.166,0.019-0.273-0.003c-0.016-0.018,0.016-0.034,0.045-0.043
							c-0.434-0.146-0.199,0.186-0.648,0.182c0.058-0.093-0.104-0.176-0.178-0.156c0.182,0.002,0.088,0.154-0.078,0.225
							c-0.289-0.072-0.313,0.054-0.466,0.045l0.173,0.034c-0.059,0.092-0.201,0.08-0.402,0.109c-0.018-0.072,0.183-0.05,0.109-0.082
							c-0.223,0.163-0.504-0.168-0.813-0.059c-0.146-0.063-0.015-0.174-0.142-0.217c-0.349,0.12-0.377-0.126-0.744-0.027
							c0.105,0.125,0.125,0.094-0.133,0.215l0.602-0.088l-0.387,0.181c0.183,0.002,0.384-0.078,0.492-0.057
							c-0.185,0.102-0.164,0.071-0.078,0.174c-0.248-0.188-0.492,0.109-0.78-0.017l0.009-0.309
							c-0.432-0.137-0.768,0.158-1.329,0.081l0.181,0.053c-0.074,0.123-0.347,0.017-0.527,0.067c0.017-0.104-0.098-0.14-0.176-0.205
							c0.011,0.077-0.41-0.007-0.461,0.199l-0.25-0.136c-0.453-0.055-0.519,0.293-0.953,0.258c0.131-0.112-0.067-0.185,0.225-0.265
							c-0.146-0.001-0.275-0.02-0.277,0.051c-0.086-0.064-0.404,0.139-0.537,0.041c-0.063,0.045-0.082,0.153-0.246,0.145
							c-0.018-0.021,0.002-0.051,0.002-0.051c-0.002,0.051-0.256,0.069-0.113,0.183c-0.447-0.321-1.252,0.023-1.643-0.252
							c-0.317,0.035-0.699,0.067-0.988,0.075c0.019-0.031,0-0.051,0.056-0.041c-0.397-0.096-0.244,0.295-0.696,0.188
							c-0.23-0.167,0.24-0.09,0.096-0.153c-0.063-0.339-0.545,0.046-0.851-0.152l0.074-0.02c-0.233-0.115-0.567,0.128-0.948,0.104
							c0,0,0.02-0.03,0.002-0.051c-0.26,0.173-0.752,0.229-1.117,0.278c0.113-0.132,0.166-0.07,0.097-0.205
							c-0.164,0.02,0.048,0.217-0.279,0.254c-0.106-0.073-0.342-0.136-0.374-0.28l0.311-0.008c-0.158-0.186-0.4,0.006-0.563-0.026
							l0.021-0.082c-0.473,0.026-0.479,0.231-0.987,0.217l0.053,0.062c-0.284,0.208-0.22-0.126-0.522,0.049l-0.119-0.195
							c-0.236,0.056-0.713,0.384-0.924,0.678c0.037-0.26,0.412-0.579,0.705-0.728c-0.24,0.038-0.75,0.322-0.752,0.501
							c0.055-0.073,0.117-0.189,0.219-0.202c-0.158,0.281-0.353,0.545-0.533,0.901c-0.162-0.133-0.331,0.115-0.404,0.461
							c-0.064,0.379-0.041,0.647-0.203,0.791c0.147,0.641-0.063,1.271-0.039,2.018c0.311-0.265,0.01,0.218,0.327,0.172
							c0.021,0.174,0.017,0.24-0.006,0.256l-0.19,0.527c-0.093,0.125-0.07-0.166-0.142-0.149c-0.024,0.381-0.135,0.16-0.22,0.412
							c0.113-0.052,0.162,0.132,0.119,0.35L243,23.032c0.17,0.532-0.268,0.459-0.1,0.996l-0.101-0.17
							c0.06,0.275-0.003,1.015,0.255,1.285c-0.037,0.048-0.125,0.113-0.147-0.008c-0.038,0.658,0.272,1.464,0.114,1.975l-0.078-0.05
							c0.022,0.123,0.146,0.213,0.068,0.367c-0.031-0.008-0.078-0.049-0.082,0.008c0.014,0.034,0.047,0.111,0.073,0.21
							c0.034,0.127,0.063,0.265,0.056,0.378l-0.107-0.179c-0.016,0.463,0.215,0.788,0.441,1.007c0.254,0.211,0.514,0.35,0.82,0.479
							c-0.143,0.217,0.504,0.57,0.891,0.583l-0.015,0.031c0.78,0.036,1.278-0.188,1.978-0.276c0.43,0.249,1.455,0.104,2.146,0.244
							c-0.104-0.042,0.017-0.179,0.14-0.202c0.162,0.047,0.447-0.159,0.422,0.051l-0.058-0.004c0.122,0.207,0.455,0.151,0.716,0.157
							l0.041-0.275c0.68,0.4,1.781-0.147,2.152,0.211c0.164-0.069,0.367-0.068,0.529-0.137l-0.01,0.147
							c0.455,0.038,0.683,0.057,1.244,0.021l-0.115,0.106c0.316,0.009,0.4-0.426,0.692-0.435l0.089,0.22
							c0.553-0.003,1.111,0.19,1.657-0.01c-0.009,0.032-0.024,0.096-0.114,0.105c0.26,0.006,1.006,0.149,0.912-0.153
							c0.006,0.197,0.57,0.019,0.868-0.067l-0.046,0.145c0.252-0.186,0.26-0.236,0.611-0.288c0.084,0.019,0.072,0.117-0.037,0.08
							c0.277,0.076,0.216-0.138,0.554-0.061l-0.126,0.093c0.286,0.011,0.264-0.039,0.421-0.146c0.181-0.059,0.542,0.037,0.584,0.168
							c0.039-0.08,0.195-0.188,0.363-0.149c0.022,0.05-0.038,0.081-0.069,0.096c0.479,0.099,0.711-0.169,1.04-0.026
							c0.007,0.048,0.028,0.072,0.056,0.087c-0.379-0.004-0.686-0.012-0.656-0.022c0,0.134,0.307,0.158,0.063,0.343
							c0.246-0.101,0.668-0.32,0.967-0.257c0.015,0.013,0.028,0.025,0.039,0.046l-0.031,0.015c0.069,0.014,0.132,0.001,0.189-0.021
							c0.096,0.022,0.156,0.038,0.248,0.04c0.035,0.111,0.352,0.06,0.504,0.065c-0.013-0.146,0.188-0.123,0-0.244
							c0.023,0.01-0.027,0.018-0.13,0.023c-0.022,0.004-0.051,0.007-0.065,0.016l0.012-0.013c-0.102,0.002-0.231,0.006-0.381,0.01
							c0.121-0.074,0.246-0.137,0.416-0.056c0.078-0.094,0.164-0.191,0.213-0.237c0.211,0.205,0.613,0.315,0.67,0.441
							c0.467-0.083,1.101-0.054,1.395-0.33c0.133-0.036,0.152,0.079,0.202,0.122c-0.077,0.028-0.168,0.023-0.21,0.063
							c0.266-0.071,0.787-0.027,0.852-0.22c0.334,0.087-0.188,0.177,0.271,0.146l-0.062,0.059c0.903,0.307,1.47-0.491,2.473-0.097
							c-0.069-0.024-0.104-0.035-0.118-0.067c1.144,0.174,2.356-0.164,3.483,0.113c0.322,0.055,0.355-0.067,0.553-0.161l0.068,0.158
							l0.334-0.182c0.484-0.138,0.803,0.397,1.443,0.125l-0.095-0.098c0.261,0.027,0.739-0.215,0.743-0.108
							c0.017-0.031,0.023-0.137,0.135-0.135l0.048,0.067c0.032,0.022,0.405-0.489,0.375-0.5c0.17-0.155,0.222-0.105,0.291-0.07
							c0.062,0.031,0.164,0.046,0.33-0.318c0.101-0.309-0.103-0.832-0.159-0.719c-0.013,0.104-0.076,0.256-0.158,0.248l-0.021-0.215
							c-0.236-0.067-0.479-0.112-0.685,0.167c-0.002-0.011,0.082,0.259,0.063,0.261l-0.142,0.011
							c0.004,0.001,0.08-0.164,0.068-0.168c-0.121,0.062-0.085,0.134-0.056,0.248c-0.06-0.016-0.12-0.023-0.162-0.006
							c0.019-0.003,0.026,0.318,0.008,0.319c-0.077-0.06-0.05-0.205-0.185-0.159c-0.018,0.154,0.213,0.108,0.099,0.276
							c-0.169-0.041-0.159-0.129-0.247,0.004c-0.04-0.056-0.023-0.095,0.006-0.14c-0.07,0.112-0.254,0.109-0.308,0.233
							c-0.114-0.118-0.572,0.041-0.542-0.186c-0.055,0.055-0.307,0.181-0.467,0.19c0.292-0.275-0.6-0.016-0.521-0.311
							c-0.217,0.247-0.781,0.11-1.166,0.247c0.021-0.02,0.063-0.06,0.098-0.047c-0.215-0.021-0.277-0.095-0.416-0.142
							c-0.028,0.205-0.364,0.251-0.545,0.377c-0.266-0.197,0.16-0.24,0.076-0.429c0.014,0.166-0.459,0.165-0.369,0.303
							c-0.201-0.122-0.174-0.06-0.277-0.229c-0.036,0.255-0.188,0.043-0.355,0.2c-0.293-0.126-0.076-0.24-0.396-0.162
							C269.383,28.457,269.669,28.366,269.669,28.366z M262.021,28.808v-0.003c0.064-0.003,0.121-0.006,0.156-0.008
							C262.146,28.799,262.102,28.802,262.021,28.808z M261.378,28.81c0.078,0.006,0.177,0.007,0.279,0.006
							c0.022,0.051-0.003,0.103-0.066,0.1C261.626,28.882,261.475,28.853,261.378,28.81z M262.736,29.826
							c-0.102,0.021-0.135-0.008-0.148-0.038c0.049-0.004,0.104-0.01,0.178-0.018l0.012-0.018
							C262.77,29.781,262.757,29.807,262.736,29.826z"/>
						<path fill="#202020" d="M262.921,29.634c0.015-0.003,0.022-0.009,0.042-0.01c-0.021-0.012-0.043-0.023-0.061-0.033
							l-0.036,0.046L262.921,29.634z"/>
						<path fill="#202020" d="M272.369,17.506l-0.014-0.003c0.012,0.006,0.021,0.011,0.027,0.021
							C272.375,17.517,272.375,17.512,272.369,17.506z"/>
						<polygon fill="#202020" points="252.504,28.53 252.505,28.567 252.561,28.534 						"/>
						<path fill="#202020" d="M275.423,18.596c-0.008,0.012-0.015,0.029-0.014,0.053C275.416,18.643,275.42,18.622,275.423,18.596z"
							/>
						<path fill="#202020" d="M275.598,19.922l-0.053,0.216C275.574,20.045,275.589,19.977,275.598,19.922z"/>
						<path fill="#202020" d="M275.523,21.098c0.025,0.015,0.045,0.019,0.063,0.023l0.001-0.002L275.523,21.098z"/>
						<path fill="#202020" d="M259.921,18.287c-0.017,0.001-0.03,0.003-0.045,0.007C259.77,18.322,259.842,18.311,259.921,18.287z"
							/>
						<path fill="#202020" d="M265.484,17.945c-0.061,0.026-0.118,0.052-0.18,0.069C265.404,18.025,265.48,18.028,265.484,17.945z"
							/>
						<polygon fill="#202020" points="253.71,18.464 253.711,18.461 253.672,18.461 						"/>
						<path fill="#202020" d="M265.047,18.011c0.1,0.029,0.182,0.023,0.258,0.002C265.225,18.004,265.128,17.989,265.047,18.011z"/>
						<path fill="#202020" d="M275.458,26.193l-0.006,0.057c0.009-0.001,0.019,0.002,0.022,0.007L275.458,26.193z"/>
						<path fill="#202020" d="M275.477,26.256l0.017,0.063C275.492,26.291,275.491,26.266,275.477,26.256z"/>
						<path fill="#202020" d="M275.529,26.452l-0.037-0.132C275.492,26.365,275.486,26.422,275.529,26.452z"/>
						<path fill="#202020" d="M275.525,24.637l-0.053-0.018C275.482,24.628,275.5,24.635,275.525,24.637z"/>
						<path fill="#202020" d="M275.51,24.164c-0.012,0.113-0.113,0.283-0.08,0.44l0.043,0.015
							C275.395,24.545,275.6,24.271,275.51,24.164z"/>
						<path fill="#202020" d="M276.167,22.19l-0.042,0.396c0.057-0.069,0.133-0.16,0.146,0.02
							C276.439,22.106,276.145,22.709,276.167,22.19z"/>
						<path fill="#202020" d="M276.249,20.961c0.026,0.213,0.083-0.002,0.114,0.009C276.313,20.834,276.299,20.802,276.249,20.961z"
							/>
						<path fill="#202020" d="M269.598,17.389l0.021-0.133C269.454,17.275,269.616,17.308,269.598,17.389z"/>
						<polygon fill="#202020" points="267.898,18.079 268.059,18.162 268.135,18.04 						"/>
						<polygon fill="#202020" points="266.896,17.128 266.968,17.109 266.693,17.158 						"/>
						<path fill="#202020" d="M251.98,17.176l0.051,0.165C252.143,17.311,252.166,17.126,251.98,17.176z"/>
						<path fill="#202020" d="M245.543,17.343c-0.07-0.083-0.251-0.135-0.361-0.054C245.325,17.3,245.471,17.364,245.543,17.343z"/>
						<polygon fill="#202020" points="250.796,29.848 250.667,29.902 250.91,29.856 						"/>
					</g>
				</g>
			</g>
		</g>
	</g>
	<text transform="matrix(1.1049 0 0 1 8.3438 46.4111)" fill="#FFFFFF" font-family="'AlphaRuler'" font-size="9.3884">WET project</text>
	<text transform="matrix(1.1049 0 0 1 65.46 46.4111)" fill="#FFFFFF" font-family="'AlphaRuler'" font-size="9.3884">Implement WET</text>
	<text transform="matrix(1.1049 0 0 1 141.7412 46.4111)" fill="#FFFFFF" font-family="'AlphaRuler'" font-size="9.3884">Contribute to WET</text>
	<text transform="matrix(1 0 0 1 249.8359 27.1123)" font-family="'AlphaRuler'" font-size="9.3884">search</text>
	<rect fill="#343434" width="280" height="10"/>
	<text transform="matrix(1 0 0 1 224.2783 7.292)" fill="#FFFFFF" font-family="'AlphaRuler'" font-size="7.3021">english   francais</text>
	<line fill="none" stroke="#FFFFFF" stroke-miterlimit="10" x1="61.5" y1="37" x2="61.5" y2="49"/>
	<line fill="none" stroke="#FFFFFF" stroke-miterlimit="10" x1="138.148" y1="37" x2="138.148" y2="47"/>
	<line fill="none" stroke="#FFFFFF" stroke-miterlimit="10" x1="220.299" y1="37" x2="220.299" y2="49"/>
	<text transform="matrix(1 0 0 1 19.2979 90.2705)" font-family="'AlphaRuler'" font-size="12.5179">Base theme</text>
	<g>
		
			<text transform="matrix(1 0 0 1 20.3418 67.4492)" fill="#662D91" font-family="'AlphaRuler'" font-size="7.3021" text-decoration=" underline">Home</text>
		<text transform="matrix(1 0 0 1 34.2007 67.4492)" fill="#662D91" font-family="'AlphaRuler'" font-size="7.3021">            </text>
		
			<text transform="matrix(1 0 0 1 55.4058 67.4492)" fill="#662D91" font-family="'AlphaRuler'" font-size="7.3021" text-decoration=" underline"> Working examples</text>
		
			<text transform="matrix(1 0 0 1 103.5029 67.4492)" fill="#662D91" font-family="'AlphaRuler'" font-size="7.3021" letter-spacing="7"> </text>
		<text transform="matrix(1 0 0 1 114.2256 67.4492)" fill="#662D91" font-family="'AlphaRuler'" font-size="7.3021">     </text>
		<text transform="matrix(1 0 0 1 123.062 67.4492)" fill="#231F20" font-family="'AlphaRuler'" font-size="7.3021">Base theme</text>
		<g>
			<g>
				<g>
					<polygon fill="#202020" points="41,64 44.626,64 45.982,64 45.272,62.346 51.144,64.833 45.272,67.492 45.982,66 44.626,66 
						41,66 					"/>
				</g>
			</g>
		</g>
		<g>
			<g>
				<g>
					<polygon fill="#202020" points="109,64 112.626,64 113.982,64 113.272,62.346 119.144,64.833 113.272,67.492 113.982,66 
						112.626,66 109,66 					"/>
				</g>
			</g>
		</g>
	</g>
	<g>
		<path fill="#2671AD" d="M69,111.809C69,112.3,68.786,114,68.233,114H20.822c-0.553,0-1.822-1.7-1.822-2.191v-11.261
			c0-0.491,1.269-0.548,1.822-0.548h47.411c0.553,0,0.767,0.057,0.767,0.548V111.809z"/>
		
			<text transform="matrix(1 0 0 1 26.6357 107.3633)" fill="#FFFFFF" font-family="'AlphaRuler'" font-size="4.1489" text-decoration=" underline">Questions or comments?</text>
	</g>
	<text transform="matrix(1 0 0 1 20.3408 139.998)" font-family="'AlphaRuler'" font-size="7.3021">Purpose</text>
	<text transform="matrix(1 0 0 1 20.3408 150.4297)" font-family="'AlphaRuler'" font-size="7.3021">A theme template to aid in creation of new themes</text>
	<text transform="matrix(1 0 0 1 20.3408 168.1631)" font-family="'AlphaRuler'" font-size="7.3021">Use When</text>
	<text transform="matrix(1 0 0 1 20.3408 178.5947)" font-family="'AlphaRuler'" font-size="7.3021">This theme can be used to build additional themes for the Toolkit</text>
	<text transform="matrix(1 0 0 1 20.3408 194.2422)" font-family="'AlphaRuler'" font-size="7.3021">Do not use when</text>
	<text transform="matrix(1 0 0 1 20.3408 204.6748)" font-family="'AlphaRuler'" font-size="7.3021">This theme can be used to build additional themes for the Toolkit</text>
	<text transform="matrix(1 0 0 1 20.3408 225.5381)" font-family="'AlphaRuler'" font-size="7.3021">Working examples</text>
	
		<text transform="matrix(1 0 0 1 20.3408 235.9678)" fill="#662D91" font-family="'AlphaRuler'" font-size="7.3021" text-decoration=" underline">English and french examples</text>
	<polygon fill="#FFFFFF" stroke="#FFFFFF" stroke-miterlimit="10" points="55.745,42 57.182,42 56.463,42.751 55.745,43.748 
		55.027,42.874 54.309,42 	"/>
	<polygon fill="#FFFFFF" stroke="#FFFFFF" stroke-miterlimit="10" points="127.745,42 129.182,42 128.463,42.751 127.745,43.748 
		127.027,42.874 126.309,42 	"/>
	<polygon fill="#FFFFFF" stroke="#FFFFFF" stroke-miterlimit="10" points="213.745,42 215.182,42 214.463,42.751 213.745,43.748 
		213.027,42.874 212.309,42 	"/>
</g>
</svg>
