<?xml version="1.0" encoding="utf-8"?>
<!-- Generator: Adobe Illustrator 16.0.3, SVG Export Plug-In . SVG Version: 6.00 Build 0)  -->
<!DOCTYPE svg PUBLIC "-//W3C//DTD SVG 1.1//EN" "http://www.w3.org/Graphics/SVG/1.1/DTD/svg11.dtd">
<svg version="1.1" id="Layer_1" xmlns="http://www.w3.org/2000/svg" xmlns:xlink="http://www.w3.org/1999/xlink" x="0px" y="0px"
	 width="280px" height="280px" viewBox="0 0 280 280" enable-background="new 0 0 280 280" xml:space="preserve">
<g>
	<rect y="27" fill="#FFFFFF" width="280" height="227"/>
	<rect x="13.5" y="44.5" fill="#FFFFFF" stroke="#999999" stroke-miterlimit="10" width="250" height="208"/>
	<rect x="13" y="44" fill="#224A82" width="251" height="11"/>
	<text transform="matrix(1.1049 0 0 1 19.9775 52.4761)" fill="#FFFFFF" font-family="'AlphaRuler'" font-size="9.3984">WET project</text>
	<text transform="matrix(1.1049 0 0 1 82.5005 52.4761)" fill="#FFFFFF" font-family="'AlphaRuler'" font-size="9.3984">Implement WET</text>
	<text transform="matrix(1.1049 0 0 1 155.5996 52.4761)" fill="#FFFFFF" font-family="'AlphaRuler'" font-size="9.3984">Contribute to WET</text>
	<rect y="1" fill="#FFFFFF" width="280" height="17"/>
	<line fill="none" stroke="#FFFFFF" stroke-miterlimit="10" x1="75.5" y1="44" x2="75.5" y2="55"/>
	<line fill="none" stroke="#FFFFFF" stroke-miterlimit="10" x1="148.5" y1="45" x2="148.5" y2="54"/>
	<line fill="none" stroke="#FFFFFF" stroke-miterlimit="10" x1="232.5" y1="44" x2="232.5" y2="55"/>
	<text transform="matrix(1 0 0 1 18.9331 92.5469)" font-family="'AlphaRuler'" font-size="12.5312">Government of Canada Usability theme</text>
	<g>
		<path fill="#2671AD" d="M68,114.108C68,114.6,68.474,115,67.92,115H20.458c-0.554,0-0.458-0.4-0.458-0.892v-11.273
			c0-0.491-0.095-0.835,0.458-0.835H67.92c0.553,0,0.08,0.344,0.08,0.835V114.108z"/>
		
			<text transform="matrix(1 0 0 1 26.2788 109.6597)" fill="#FFFFFF" font-family="'AlphaRuler'" font-size="4.1533" text-decoration=" underline">Questions or comments?</text>
	</g>
	<text transform="matrix(1 0 0 1 19.9775 128.3125)" font-family="'AlphaRuler'" font-size="7.3099">Purpose</text>
	<text transform="matrix(1 0 0 1 19.9771 138.7549)" font-family="'AlphaRuler'" font-size="7.3099">This theme implements the requirements of the Standard on Web Usability .</text>
	<text transform="matrix(1 0 0 1 19.9775 156.5088)" font-family="'AlphaRuler'" font-size="7.3099">Use When</text>
	<text transform="matrix(1 0 0 1 19.9771 166.9512)" font-family="'AlphaRuler'" font-size="7.3099">This theme must be used on Government of Canada websites (including web applications).</text>
	<text transform="matrix(1 0 0 1 19.9775 182.6152)" font-family="'AlphaRuler'" font-size="7.3099">Do not use when</text>
	<text transform="matrix(1 0 0 1 19.9771 193.0576)" font-family="'AlphaRuler'" font-size="7.3099">This theme can only be used on Government of Canada websites.</text>
	<text transform="matrix(1 0 0 1 19.9775 221.6094)" font-family="'AlphaRuler'" font-size="7.3099">Working examples</text>
	
		<text transform="matrix(1 0 0 1 19.9771 232.0527)" fill="#662D91" font-family="'AlphaRuler'" font-size="7.3099" text-decoration=" underline">English and french examples</text>
	<rect fill="#456F92" width="280" height="44"/>
	
		<text transform="matrix(1.4054 0 0 1 13.1895 29.4194)" fill="#FFFFFF" font-family="'AlphaRuler'" font-size="5.6434" text-decoration=" underline">Web Experience Toolkit</text>
	<rect fill="#40403D" width="280" height="13"/>
	<text transform="matrix(1 0 0 1 256.4063 5.9819)" fill="#FFFFFF" font-family="'AlphaRuler'" font-size="4.6632">francais</text>
	<text transform="matrix(1 0 0 1 230.6094 5.9819)" fill="#FFFFFF" font-family="'AlphaRuler'" font-size="4.6632">Departments</text>
	<text transform="matrix(1 0 0 1 209.7236 5.9819)" fill="#FFFFFF" font-family="'AlphaRuler'" font-size="4.6632">Services</text>
	<text transform="matrix(1 0 0 1 188.3164 5.9819)" fill="#FFFFFF" font-family="'AlphaRuler'" font-size="4.6632">Canada.ca</text>
	<polygon fill="#FFFFFF" stroke="#FFFFFF" stroke-miterlimit="10" points="68.364,48.5 69.808,48.5 69.086,49.681 68.364,50.896 
		67.643,49.698 66.921,48.5 	"/>
	<polygon fill="#FFFFFF" stroke="#FFFFFF" stroke-miterlimit="10" points="141.852,48.5 143.296,48.5 142.574,49.353 
		141.852,50.404 141.131,49.452 140.409,48.5 	"/>
	<polygon fill="#FFFFFF" stroke="#FFFFFF" stroke-miterlimit="10" points="225.394,48.5 226.837,48.5 226.115,49.681 
		225.394,50.896 224.672,49.698 223.95,48.5 	"/>
	<g>
		
			<text transform="matrix(1 0 0 1 18.9331 71.1396)" fill="#662D91" font-family="'AlphaRuler'" font-size="7.3099" text-decoration=" underline">Home       Working examples</text>
		<g>
			<g>
				<g>
					<polygon fill="#202020" points="34,68 38.239,68 39.596,68 38.885,66.187 44.763,68.598 38.885,70.876 39.596,69 38.239,69 
						34,69 					"/>
				</g>
			</g>
		</g>
	</g>
	<rect x="154" y="26" fill="#224A82" width="110" height="18"/>
	<line fill="none" stroke="#FFFFFF" stroke-miterlimit="10" x1="207.5" y1="2" x2="207.5" y2="7"/>
	<line fill="none" stroke="#FFFFFF" stroke-miterlimit="10" x1="226.5" y1="2" x2="226.5" y2="7"/>
	<line fill="none" stroke="#FFFFFF" stroke-miterlimit="10" x1="253.5" y1="2" x2="253.5" y2="7"/>
	<g>
		<rect x="161" y="29" fill="#FFFFFF" width="71" height="8"/>
		<g>
			<g>
				<g>
					<g>
						<g opacity="0.85">
							<g opacity="0.9">
								<path fill="#D3D3D3" d="M161.572,35.249c0.094-0.461,0.201-0.854,0.325-1.167c0.001-0.883,0.002-1.761,0.003-2.644
									c-0.002-0.366-0.003-0.729-0.004-1.091c-0.048,0.814-0.095,1.623-0.142,2.427C161.693,33.603,161.633,34.427,161.572,35.249
									z"/>
								<path fill="#D3D3D3" d="M177.079,38.138c-2.038-0.347-6.318-0.389-10.341-0.545
									C170.283,37.841,173.744,38.045,177.079,38.138z"/>
								<path fill="#D3D3D3" d="M189.899,35.883c-0.364-0.048-0.719-0.101-1.062-0.163c-1.878,0.044-3.75,0.087-5.621,0.131
									c0.397,0.036,0.788,0.072,1.187,0.108L189.899,35.883z"/>
								<path fill="#D3D3D3" d="M162.216,35.402c0.003,0.304,0.006,0.611,0.009,0.92c0.811,0.015,1.635,0.03,2.469,0.045
									c1.084,0.033,2.179,0.067,3.279,0.101c2.199,0.081,4.417,0.161,6.595,0.241c4.361,0.136,8.583,0.166,12.26-0.246
									c-1.216-0.183-2.534-0.339-3.886-0.486c-3.975,0.032-7.948,0.065-11.916,0.097c-2.388,0.022-4.777,0.027-7.165,0.005
									l-1.385-0.008l0.026-2.773c-0.235,0.086-0.435,0.354-0.604,0.784c-0.003,0.86-0.006,1.72-0.009,2.577l1.474,0.009
									c-0.551-0.075-0.905-0.145-1.277-0.206C162.128,36.115,162.172,35.762,162.216,35.402z"/>
								<path fill="#D3D3D3" d="M182.037,35.879c-3.671,0.085-7.343,0.159-11.012,0.194c3.968-0.032,7.941-0.065,11.916-0.097
									C182.642,35.944,182.34,35.912,182.037,35.879z"/>
								<path fill="#D3D3D3" d="M172.127,37.586c-3.19-0.124-5.887-0.571-8.765-0.918l-1.474-0.009
									c0.003-0.857,0.006-1.717,0.009-2.577c-0.124,0.313-0.231,0.706-0.325,1.167c-0.049,0.626-0.098,1.25-0.146,1.873
									C165.049,37.407,168.454,37.68,172.127,37.586z"/>
								<path fill="#D3D3D3" d="M166.738,37.592c-1.772-0.129-3.571-0.26-5.391-0.393c0.023-0.34,0.049-0.689,0.073-1.038
									c-0.043,0.318-0.082,0.673-0.117,1.083c0.371,0.043,0.798,0.081,1.271,0.116c0.446,0.03,0.908,0.062,1.382,0.094
									C164.851,37.499,165.787,37.545,166.738,37.592z"/>
								<path fill="#D3D3D3" d="M163.86,36.079c2.388,0.021,4.777,0.017,7.165-0.005C168.636,36.076,166.245,36.077,163.86,36.079z"
									/>
								<path fill="#D3D3D3" d="M195.664,35.796c-0.557-0.037-1.107-0.072-1.664-0.109c-1.063,0-2.124-0.001-3.183-0.002
									l-0.822,0.011l-1.157,0.025c0.343,0.062,0.697,0.115,1.062,0.163L195.664,35.796z"/>
								<path fill="#D3D3D3" d="M203.391,37.075l-0.729-0.129c-1.176,0-2.355,0-3.532,0
									C200.546,37.002,201.964,37.047,203.391,37.075z"/>
								<path fill="#D3D3D3" d="M162.588,33.268c-0.029,0.002-0.057,0.019-0.086,0.03l-0.026,2.773l1.385,0.008l-0.878-0.013
									l-0.484-0.017l0.038-0.88L162.588,33.268z"/>
								<path fill="#D3D3D3" d="M202.661,36.945c4.648-0.008,9.284-0.051,13.917-0.145c-4.226-0.236-8.451-0.486-12.839-0.626
									c-2.68-0.065-5.387-0.208-8.075-0.379l-5.765,0.087C193.765,36.401,198.63,36.288,202.661,36.945z"/>
								<path fill="#D3D3D3" d="M184.403,35.959l-1.462,0.018c1.352,0.147,2.67,0.304,3.886,0.486
									c-3.677,0.412-7.898,0.382-12.26,0.246c-2.178-0.08-4.396-0.16-6.595-0.241c-1.101-0.034-2.195-0.067-3.279-0.101
									c-0.834-0.015-1.658-0.03-2.469-0.045c-0.003-0.31-0.006-0.616-0.009-0.92c-0.044,0.36-0.088,0.712-0.131,1.059
									c0.372,0.061,0.727,0.131,1.277,0.206c12.097,0.064,23.975,0.26,35.767,0.278C194.153,36.746,189.236,36.386,184.403,35.959
									z"/>
								<path fill="#D3D3D3" d="M189.899,35.883l-5.496,0.076c4.833,0.427,9.75,0.787,14.726,0.986c1.177,0,2.356,0,3.532,0
									C198.63,36.288,193.765,36.401,189.899,35.883z"/>
								<path fill="#D3D3D3" d="M184.403,35.959c-0.398-0.036-0.789-0.072-1.187-0.108l-1.18,0.028
									c0.303,0.033,0.604,0.065,0.904,0.097L184.403,35.959z"/>
								<path fill="#D3D3D3" d="M161.923,29.846l-0.026,0.5c0.001,0.362,0.002,0.725,0.004,1.091
									c-0.001,0.883-0.002,1.761-0.003,2.644c0.17-0.429,0.369-0.697,0.604-0.784c0.008-0.737,0.017-1.473,0.024-2.207
									l0.014-0.705l0.016-0.408c2.646,0.063,5.271,0.126,7.891,0.189c0.587-0.04,1.154-0.089,1.703-0.149
									c-1.774-0.069-3.555-0.16-5.336-0.267c-1.744-0.106-3.754-0.228-4.841-0.356L161.923,29.846z"/>
								<path fill="#D3D3D3" d="M183.217,35.851c-0.306-0.028-0.612-0.056-0.921-0.084c-0.438,0-0.877,0.001-1.32,0.001l1.062,0.111
									L183.217,35.851z"/>
								<path fill="#D3D3D3" d="M189.995,35.695c-0.404,0.005-0.805,0.011-1.21,0.016c0.015,0.002,0.033,0.005,0.053,0.009
									L189.995,35.695z"/>
								<path fill="#D3D3D3" d="M188.838,35.72c-0.02-0.003-0.038-0.006-0.053-0.009c-2.144,0.019-4.299,0.037-6.489,0.056
									c0.309,0.028,0.615,0.056,0.921,0.084C185.088,35.808,186.96,35.764,188.838,35.72z"/>
								<path fill="#D3D3D3" d="M162.588,33.268l-0.052,1.902l-0.038,0.88l0.484,0.017l0.878,0.013
									c2.385-0.002,4.775-0.003,7.165-0.005c3.669-0.035,7.341-0.109,11.012-0.194l-1.062-0.111
									c-2.736-0.001-5.536-0.031-8.461-0.117c-3.54,0.025-6.576,0.047-9.689,0.069c0.008-0.716,0.016-1.44,0.023-2.185
									c0.01-0.602,0.021-1.212,0.031-1.834c0.007-0.311,0.015-0.624,0.021-0.941l0.003-0.119l0.003-0.029l0.007-0.041l0.014-0.076
									c-0.001-0.046-0.001-0.094-0.002-0.15c0.867-0.004,1.862-0.009,2.891-0.014c1.543-0.02,3.134-0.064,4.63-0.167
									c-2.619-0.063-5.245-0.126-7.891-0.189l-0.016,0.408l-0.014,0.705c-0.008,0.734-0.017,1.47-0.024,2.207
									C162.531,33.286,162.559,33.27,162.588,33.268z"/>
								<path fill="#D3D3D3" d="M188.248,28.748c-7.12,0.095-14.235,0.357-21.469,0.491c3.538,0.304,7.064,0.606,10.621,0.912
									c0.853,0.001,1.7,0.002,2.545,0.003c0.672-0.156,1.34-0.307,1.854-0.274c0.896,0.057,1.749,0.111,2.582,0.165
									c3.604-0.156,7.13-0.486,10.516-1.057C192.665,28.907,190.449,28.827,188.248,28.748z"/>
								<path fill="#D3D3D3" d="M176.054,30.129c0.9,0.089,1.845,0.189,2.822,0.252c0.114-0.022,0.234-0.045,0.357-0.068
									L177.4,30.15C176.954,30.144,176.503,30.136,176.054,30.129z"/>
								<path fill="#D3D3D3" d="M198.289,29.103c-1.139-0.039-2.266-0.077-3.392-0.116c-3.386,0.571-6.911,0.9-10.516,1.057
									c2.85,0.175,5.464,0.305,8.662,0.333c1.766-0.116,2.507-0.991,4.084-0.888c5.531,0.358,12.49,1.111,18.154,0.325
									c2.552-0.096,5.338-0.2,8.17-0.307c1.414-0.058,2.84-0.117,4.253-0.175c0.705-0.034,1.408-0.067,2.104-0.1
									c0.619-0.037,1.232-0.074,1.838-0.11c0.1,1.417,0.196,2.792,0.288,4.1c0.108,1.373,0.229,2.666,0.367,3.848
									c-0.067-2.946-0.133-5.785-0.194-8.409c-6.452,0.132-12.367,0.252-17.961,0.366
									C208.622,29.113,203.408,29.149,198.289,29.103z"/>
								<path fill="#D3D3D3" d="M179.233,30.313c0.229-0.052,0.471-0.105,0.712-0.16c-0.845-0.001-1.692-0.002-2.545-0.003
									L179.233,30.313z"/>
								<path fill="#D3D3D3" d="M195.664,35.796l3.453-0.056c-1.712-0.018-3.421-0.036-5.117-0.053
									C194.557,35.724,195.107,35.759,195.664,35.796z"/>
								<polygon fill="#D3D3D3" points="161.891,29.601 161.896,30.121 161.923,29.846 161.944,29.42 								"/>
								<path fill="#D3D3D3" d="M162.764,37.679c-0.617-0.034-1.224-0.067-1.797-0.099c0.027-0.473,0.056-0.939,0.083-1.401
									c0.03-0.403,0.061-0.801,0.091-1.196c0.07-0.673,0.139-1.332,0.207-1.983c0.151-1.237,0.329-2.699,0.543-3.4l-0.002-0.291
									c1.64-0.024,3.267-0.047,4.891-0.071c-1.778-0.132-3.56-0.265-5.36-0.398c-0.088,1.36-0.176,2.728-0.264,4.106
									c-0.039,0.682-0.078,1.366-0.117,2.052c-0.035,0.868-0.07,1.74-0.105,2.616C161.525,37.635,162.145,37.657,162.764,37.679z"
									/>
								<path fill="#D3D3D3" d="M161.944,29.42l-0.021,0.426l0.05-0.452c1.087,0.129,3.097,0.25,4.841,0.356
									c1.781,0.106,3.562,0.198,5.336,0.267c0.136-0.015,0.273-0.03,0.404-0.045c1.038-0.068,2.221,0.032,3.5,0.157
									c0.449,0.007,0.9,0.014,1.347,0.021c-3.557-0.305-7.083-0.608-10.621-0.912c-1.624,0.024-3.251,0.047-4.891,0.071
									l0.002,0.291L161.944,29.42z"/>
								<path fill="#D3D3D3" d="M161.421,36.161c0.046-0.349,0.096-0.648,0.151-0.913c0.061-0.821,0.121-1.646,0.183-2.475
									c0.047-0.805,0.094-1.613,0.142-2.427l-0.001-0.225C161.736,32.141,161.578,34.163,161.421,36.161z"/>
								<polygon fill="#D3D3D3" points="161.896,30.346 161.923,29.846 161.896,30.121 								"/>
								<path fill="#D3D3D3" d="M202.661,36.945l0.729,0.129c-1.427-0.027-2.845-0.073-4.262-0.129
									c-11.792-0.018-23.67-0.213-35.767-0.278c2.878,0.347,5.574,0.795,8.765,0.918c-3.673,0.094-7.078-0.179-10.701-0.464
									c0.049-0.623,0.098-1.247,0.146-1.873c-0.056,0.264-0.105,0.563-0.151,0.913c-0.024,0.349-0.05,0.698-0.073,1.038
									c1.819,0.133,3.618,0.264,5.391,0.393c4.022,0.157,8.303,0.198,10.341,0.545c-3.335-0.093-6.796-0.297-10.341-0.545
									c-0.951-0.047-1.888-0.094-2.781-0.138c-0.474-0.033-0.936-0.064-1.382-0.094c-0.474-0.035-0.9-0.073-1.271-0.116
									c0.035-0.409,0.074-0.764,0.117-1.083c0.157-1.999,0.315-4.02,0.475-6.04l-0.005-0.52c-0.214,0.701-0.392,2.163-0.543,3.4
									c-0.068,0.651-0.137,1.31-0.207,1.983c-0.03,0.395-0.061,0.793-0.091,1.196c-0.027,0.461-0.056,0.928-0.083,1.401
									c0.573,0.031,1.18,0.065,1.797,0.099c-0.619-0.022-1.238-0.044-1.831-0.065c0.035-0.875,0.07-1.748,0.105-2.616
									c0.039-0.687,0.078-1.371,0.117-2.052c0.088-1.378,0.176-2.746,0.264-4.106c1.801,0.134,3.582,0.267,5.36,0.398
									c7.233-0.134,14.349-0.396,21.469-0.491c-4.451-0.154-8.859-0.306-13.294-0.459c-2.22-0.061-4.446-0.122-6.688-0.183
									c-1.122-0.024-2.248-0.048-3.379-0.072c-1.438-0.019-2.88-0.038-4.331-0.057c-0.019,2.381-0.037,4.811-0.056,7.272
									c-0.039,0.834-0.063,1.891-0.078,2.875c0.737,0.005,1.48,0.011,2.229,0.016c0.538-0.003,1.08-0.006,1.625-0.009
									c0.945-0.021,1.901-0.041,2.857-0.062c3.532-0.233,7.109,0.46,10.64,0.227c13.936-0.711,28.713-0.446,42.935,0.475
									c2.37,0.152,5.294-0.349,8.219-0.852c0.781-0.134,1.376-0.331,1.803-0.551c-4.86-0.066-9.507-0.31-14.151-0.569
									C211.945,36.895,207.31,36.937,202.661,36.945z"/>
								<path fill="#D3D3D3" d="M203.739,36.175c4.388,0.14,8.613,0.39,12.839,0.626c4.993-0.101,9.983-0.261,14.977-0.507
									c-0.064-0.25-0.338-0.456-0.778-0.558c-1.631-1.028-6.084,0.298-9.433,0.312c-7.294,0.03-14.813-0.196-22.227-0.307
									l-3.453,0.056C198.353,35.966,201.06,36.11,203.739,36.175z"/>
								<path fill="#D3D3D3" d="M230.729,37.37c0.662-0.344,0.917-0.748,0.825-1.077c-4.993,0.246-9.983,0.407-14.977,0.507
									C221.223,37.06,225.869,37.304,230.729,37.37z"/>
								<path fill="#A1A1A1" d="M189.951,35.891c-0.018-0.002-0.028-0.004-0.045-0.006c-0.035,0.002-0.074,0.004-0.107,0.006
									H189.951z"/>
								<path fill="#A1A1A1" d="M163.86,36.079c2.388,0.021,4.777,0.017,7.165-0.005C168.636,36.076,166.245,36.077,163.86,36.079z"
									/>
								<path fill="#A1A1A1" d="M194.321,35.708c-1.064,0-2.122-0.001-3.171-0.002c-0.147,0.002-0.286,0.003-0.427,0.005
									c-0.091,0.023-0.169,0.043-0.258,0.065c0.391,0.026,0.391,0.026,0.786,0.051c-0.475,0.02-0.911,0.039-1.315,0.056
									c1.911-0.029,3.82-0.059,5.728-0.087L194.321,35.708z"/>
								<path fill="#A1A1A1" d="M169.737,30.17c0.08-0.005,0.155-0.011,0.235-0.017c-0.086-0.002-0.169-0.004-0.252-0.007
									L169.737,30.17z"/>
								<path fill="#A1A1A1" d="M168.247,30.244c0.053-0.002,0.108-0.004,0.164-0.006c-0.01-0.036-0.053-0.081-0.098-0.127
									c-0.293-0.007-0.593-0.014-0.886-0.021C167.694,30.123,167.971,30.181,168.247,30.244z"/>
								<path fill="#A1A1A1" d="M203.391,37.075l-0.729-0.129c-1.176,0-2.355,0-3.532,0
									C200.546,37.002,201.964,37.047,203.391,37.075z"/>
								<path opacity="0.9" fill="#A1A1A1" d="M162.588,33.268l-0.052,1.902l-0.038,0.88l0.484,0.017l0.878,0.013
									c2.385-0.002,4.775-0.003,7.165-0.005c3.669-0.035,7.341-0.109,11.012-0.194l-0.469-0.049
									c-0.533,0.031-1.078,0.058-1.629,0.071l0.487-0.083c-0.122-0.008-0.288-0.018-0.471-0.029
									c-1.506-0.018-3.039-0.036-4.607-0.054c-0.834,0.024-1.599,0.03-2.161-0.054l-0.346-0.009
									c-3.281,0.023-6.182,0.044-9.053,0.065c-0.006,0.052-0.048,0.102-0.086,0.15l-0.497-0.034l-0.142-0.037
									c-0.086-0.025-0.157-0.051-0.214-0.075l-0.046,0c0.016-1.115,0.032-2.245,0.049-3.43c-0.091-0.235-0.256,0.653-0.332,0.202
									c-0.003-0.059-0.006-0.108-0.009-0.161l-0.011,0.944C162.531,33.286,162.559,33.27,162.588,33.268z"/>
								<path fill="#A1A1A1" d="M183.217,35.851c-0.23-0.021-0.463-0.042-0.688-0.062c-0.119,0-0.233,0.001-0.347,0.001l-0.614,0.04
									l0.469,0.049L183.217,35.851z"/>
								<path fill="#A1A1A1" d="M168.312,29.836c-1.139-0.068-2.28-0.136-3.423-0.205l-1.697-0.115l-1.219-0.122l-0.05,0.452
									l-0.026,0.5c0.001,0.362,0.002,0.725,0.004,1.091c-0.001,0.883-0.002,1.761-0.003,2.644c0.17-0.429,0.369-0.697,0.604-0.784
									l0.011-0.944c-0.016-0.313-0.011-0.571,0.009-0.79l0.016-1.087l0.019-0.499l0.51,0.021l1.079,0.023l2.66,0.054
									c0.199-0.02,0.406-0.012,0.623,0.015c0.293,0.007,0.593,0.014,0.886,0.021C168.211,30.008,168.109,29.896,168.312,29.836z"
									/>
								<path fill="#A1A1A1" d="M205.47,28.991c-0.035-0.005-0.069-0.009-0.101-0.014l-0.12,0.004
									C205.319,28.984,205.395,28.988,205.47,28.991z"/>
								<path opacity="0.9" fill="#AFAFAF" d="M188.436,28.746c-7.186,0.093-14.358,0.357-21.656,0.493
									c2.666,0.227,5.326,0.452,7.995,0.679c0.194,0.002,0.394,0.004,0.6,0.007c-0.098,0.008-0.187,0.015-0.267,0.021l0.742,0.066
									c0.1-0.078,0.141-0.17,0.104-0.28c0.699,0.16,2.462,0.043,2.182,0.372c-0.01,0.019-0.047,0.036-0.09,0.051l1.467,0.001
									c0.707-0.164,1.421-0.333,1.959-0.298c0.099,0.006,0.193,0.012,0.29,0.019c0.332,0.003,0.689,0.025,1.08,0.069l0.011,0.001
									c0.277-0.328-1.21-0.539-0.723-0.622c2.252-0.212,2.825,0.223,2.64,0.702c3.489-0.165,6.896-0.493,10.176-1.048
									C192.76,28.901,190.59,28.823,188.436,28.746z"/>
								<path opacity="0.9" fill="#ADADAD" d="M205.369,28.977c0.031,0.004,0.065,0.009,0.101,0.014
									c-0.075-0.003-0.15-0.006-0.221-0.009c-2.444,0.083-4.875,0.122-7.287,0.101c-1.011-0.035-2.014-0.069-3.017-0.104
									c-3.28,0.555-6.687,0.883-10.176,1.048l-0.015,0.037c2.582,0.155,5.026,0.266,7.962,0.293
									c1.768-0.117,4.289-0.355,5.869-0.253c5.533,0.357,9.274,0.08,14.939-0.706c3.269-0.006,6.379-0.02,9.41-0.076
									c1.514-0.041,3.009-0.081,4.498-0.121l2.224-0.092l2.123-0.118c0.062,0.871,0.123,1.745,0.185,2.625
									c0.078,0.904,0.156,1.813,0.234,2.733c-0.053-1.767-0.089-3.416-0.114-5.663c-4.344,0.026-8.971,0.054-13.565,0.082
									C213.997,28.79,209.508,28.833,205.369,28.977z"/>
								<path fill="#A1A1A1" d="M177.885,30.193c0.35,0.031,0.7,0.062,1.047,0.093c0.19-0.042,0.383-0.085,0.581-0.129l-1.467-0.001
									C177.998,30.166,177.943,30.179,177.885,30.193z"/>
								<path fill="#A1A1A1" d="M162.905,30.532c0-0.052-0.001-0.108-0.001-0.165c-0.021-0.029-0.031-0.055-0.036-0.078
									c0.03-0.01,0.105,0.013,0.158,0.036c0.509-0.002,1.044-0.004,1.596-0.006l0.044-0.052c0,0,0.094,0.021,0.228,0.05
									c0.459-0.006,0.922-0.012,1.391-0.018c0.066-0.052,0.113-0.107,0.146-0.147c0.119-0.041,0.249-0.064,0.374-0.077
									l-2.66-0.054l-1.079-0.023l-0.51-0.021l-0.019,0.499l-0.016,1.087c0.027-0.317,0.084-0.557,0.154-0.786
									c0.018-0.048,0.035-0.133,0.055-0.151l0.058-0.042C162.826,30.561,162.866,30.543,162.905,30.532z"/>
								<path fill="#A1A1A1" d="M169.19,29.883c0.286,0.063,0.464,0.162,0.53,0.264c0.083,0.002,0.166,0.004,0.252,0.007
									c0.617-0.041,1.219-0.09,1.795-0.151C170.913,29.963,170.052,29.923,169.19,29.883z"/>
								<path fill="#A1A1A1" d="M177.355,30.267c0.391,0.031,0.789,0.062,1.191,0.093c0.124-0.024,0.252-0.048,0.385-0.074
									c-0.347-0.031-0.697-0.062-1.047-0.093C177.74,30.222,177.555,30.244,177.355,30.267z"/>
								<path fill="#A1A1A1" d="M162.588,33.268c-0.029,0.002-0.057,0.019-0.086,0.03l-0.026,2.773l1.385,0.008l-0.878-0.013
									l-0.484-0.017l0.038-0.88L162.588,33.268z"/>
								<path opacity="0.9" fill="#A1A1A1" d="M199.129,36.945c1.177,0,2.356,0,3.532,0c-4.011-0.654-8.842-0.546-12.696-1.052
									c-0.299,0.023-0.632,0.078-0.964,0.134c0.235-0.078,0.504-0.115,0.798-0.136c-0.056-0.001-0.117-0.002-0.172-0.003
									c-1.739,0.024-3.484,0.047-5.224,0.071C189.236,36.386,194.153,36.746,199.129,36.945z"/>
								<path opacity="0.9" fill="#CCCCCC" d="M202.661,36.945l0.729,0.129c-1.427-0.027-2.845-0.073-4.262-0.129
									c-11.792-0.018-23.67-0.213-35.767-0.278c2.878,0.347,5.574,0.795,8.765,0.918c-3.673,0.094-7.078-0.179-10.701-0.464
									c0.049-0.623,0.098-1.247,0.146-1.873c-0.056,0.264-0.105,0.563-0.151,0.913c-0.024,0.349-0.05,0.698-0.073,1.038
									c1.819,0.133,3.618,0.264,5.391,0.393c3.328,0.129,6.829,0.181,9.092,0.392c2.567,0.077,5.153,0.133,7.897,0.007
									c0.538-0.035,1.261-0.101,1.964-0.081c0.582-0.036,1.193-0.053,1.836-0.058c0.754-0.149,2.02-0.09,2.681-0.133
									c1.487-0.097,2.952-0.015,4.373,0.104c0.142-0.008,0.282-0.015,0.418-0.022c0.371-0.064,1.369-0.021,2.097,0.122
									l2.271,0.021c0.169,0.002,0.332,0.004,0.496,0.007l1.985,0.034c0.253-0.061,0.532-0.043,0.843,0.016
									c6.146,0.129,12.295,0.401,18.347,0.792c2.37,0.153,5.295-0.348,8.219-0.85c0.804-0.139,1.407-0.341,1.836-0.569
									c-4.992-0.057-9.753-0.307-14.514-0.573C211.945,36.895,207.31,36.937,202.661,36.945z"/>
								<path fill="#A1A1A1" d="M168.941,37.741l-0.079,0.094c0.587,0.003,1.174,0.007,1.756,0.01
									C170.062,37.811,169.502,37.776,168.941,37.741z"/>
								<path fill="#A1A1A1" d="M184.403,35.959c1.739-0.024,3.484-0.047,5.224-0.071c-0.759-0.008-1.57-0.055-2.29-0.133
									l-4.12,0.096C183.614,35.887,184.005,35.923,184.403,35.959z"/>
								<path fill="#B8B8B8" d="M161.421,36.161c0.157-1.999,0.315-4.02,0.475-6.04l-0.005-0.52c-0.214,0.701-0.392,2.163-0.543,3.4
									c-0.068,0.651-0.137,1.31-0.207,1.983c-0.03,0.395-0.061,0.793-0.091,1.196c-0.027,0.461-0.056,0.928-0.083,1.401
									c0.573,0.031,1.18,0.065,1.797,0.099c-0.619-0.022-1.238-0.044-1.831-0.065c0.035-0.875,0.07-1.748,0.105-2.616
									c0.039-0.687,0.078-1.371,0.117-2.052c0.088-1.378,0.176-2.746,0.264-4.106c1.801,0.134,3.582,0.267,5.36,0.398
									c7.298-0.135,14.471-0.399,21.656-0.493c-6.225-0.226-12.362-0.453-18.602-0.613c-0.432,0.056-0.745,0.189-0.869,0.339
									c-1.21-0.179-2.443-0.282-3.693-0.339c-0.625-0.029-1.255-0.045-1.888-0.054c-0.906-0.001-1.816-0.003-2.731-0.004
									c0.018,4.692,0.119,5.116,0.04,9.78l1.348,0.035l1.313,0.052c0.108,0.048,0.026,0.069-0.109,0.083
									c-0.208,0.012-0.486,0.028-0.66,0.038c0.785-0.003,1.563-0.007,2.346-0.01c1.151-0.127,2.352-0.328,3.797-0.323
									c-0.658-0.045-1.32-0.09-1.988-0.135c-0.951-0.047-1.888-0.094-2.781-0.138c-0.474-0.033-0.936-0.064-1.382-0.094
									c-0.474-0.035-0.9-0.073-1.271-0.116C161.339,36.834,161.378,36.479,161.421,36.161z"/>
								<path fill="#A1A1A1" d="M162.764,37.679c-0.617-0.034-1.224-0.067-1.797-0.099c0.027-0.473,0.056-0.939,0.083-1.401
									c0.03-0.403,0.061-0.801,0.091-1.196c0.07-0.673,0.139-1.332,0.207-1.983c0.151-1.237,0.329-2.699,0.543-3.4l-0.002-0.291
									c1.64-0.024,3.267-0.047,4.891-0.071c-1.778-0.132-3.56-0.265-5.36-0.398c-0.088,1.36-0.176,2.728-0.264,4.106
									c-0.039,0.682-0.078,1.366-0.117,2.052c-0.035,0.868-0.07,1.74-0.105,2.616C161.525,37.635,162.145,37.657,162.764,37.679z"
									/>
								<path fill="#A1A1A1" d="M166.738,37.592c0.668,0.045,1.33,0.09,1.988,0.135c0.077,0,0.149,0,0.225-0.001l-0.01,0.015
									c0.561,0.035,1.12,0.07,1.677,0.104c1.756,0.023,3.479,0.085,5.212,0.139C173.567,37.773,170.066,37.722,166.738,37.592z"/>
								<path fill="#A1A1A1" d="M194.321,35.708l1.343,0.088l2.625-0.042l-0.041-0.009C196.935,35.732,195.626,35.72,194.321,35.708
									z"/>
								<path opacity="0.9" fill="#C4C4C4" d="M216.578,36.801c5.099-0.103,10.192-0.269,15.296-0.523
									c-0.087-0.233-0.35-0.423-0.77-0.521c-0.686-0.432-1.87-0.447-3.264-0.319c-0.008,0.097,1.65-0.01,0.695,0.153
									c-0.579,0.193-1.949,0.334-3.132,0.258c-0.219-0.015-0.409-0.028-0.585-0.041l-0.243,0.031
									c-0.08,0.088-0.183,0.152-0.427,0.052c-0.853,0.099-5.441-0.173-6.223-0.17c0.014,0.001,3.687,0.346,3.703,0.347
									c-0.206,0.023-0.417,0.046-0.64,0.071c0.019-0.024,0.037-0.047,0.063-0.071l-0.695,0.002
									c-0.251,0.123-0.341,0.287-0.83,0.319c0.396,0.026,0.396,0.026,0.788,0.052c-0.578,0.192-1.764,0.116-2.553,0.064
									c0.183-0.217,0.975-0.167,1.368-0.142l-0.394-0.025c0.394,0.025,1.276-0.033,0.972-0.167
									c-0.224-0.102-0.825-0.034-1.279-0.003c-0.094,0.011-0.199,0.015-0.305,0.012c-0.03-0.001-0.058-0.002-0.086-0.003
									c0.028,0.001,0.056,0.002,0.086,0.003c0.086-0.003,0.19-0.008,0.305-0.012c0.161-0.018,0.277-0.054,0.277-0.103
									c-0.391-0.002-0.784-0.005-1.177-0.007l-0.2,0.052c0.092,0.012,0.196,0.026,0.313,0.042l-0.396-0.025l0.083-0.016
									c-0.842-0.078-1.146,0.189-1.938,0.242c0.456-0.079-0.13-0.226,0.198-0.312c-0.088-0.001-0.177-0.002-0.271-0.003
									c-0.401,0.054-0.831,0.072-1.277,0.07c-0.562,0.081-1.097,0.198-1.601,0.285c-0.069-0.2,0.28-0.263,0.701-0.313
									c-0.434-0.029-0.882-0.06-1.338-0.09c-0.311,0.147-0.261,0.25-1.341,0.275c0.078-0.092,0.105-0.209,0.219-0.297
									c-0.806-0.015-1.608-0.029-2.418-0.044c-0.155,0.018-0.314,0.037-0.473,0.055c-0.012,0.009-0.108,0.106-0.484,0.082
									c0.157-0.033,0.32-0.059,0.484-0.082v-0.001c-0.347-0.027-0.711-0.055-1.083-0.083l-4.068-0.078
									c0.02,0.018,0.045,0.034,0.08,0.047c0.046,0.008,0.093,0.017,0.146,0.026c-0.062-0.005-0.109-0.014-0.146-0.026
									c-0.595-0.088-0.88,0.182-1.525,0.033l0.394,0.025c-1.009-0.143-1.867-0.011-2.687,0.063
									c1.614,0.084,3.229,0.152,4.835,0.191C208.127,36.315,212.353,36.565,216.578,36.801z"/>
								<path fill="#A1A1A1" d="M198.182,35.946c0.146-0.025,0.266-0.045,0.552-0.095l-0.444-0.098l-2.625,0.042
									C196.504,35.846,197.346,35.896,198.182,35.946z"/>
								<path fill="#B3B3B3" d="M189.937,35.883c-0.007,0-0.021,0.001-0.03,0.001c0.017,0.002,0.027,0.004,0.045,0.006
									c0.011,0,0.027,0,0.039,0c0.132-0.01,0.261-0.014,0.38-0.005c-0.123,0.002-0.253,0.003-0.38,0.005l-0.025,0.002
									c3.854,0.506,8.686,0.398,12.696,1.052c4.648-0.008,9.284-0.051,13.917-0.145c-4.226-0.236-8.451-0.486-12.839-0.626
									c-1.606-0.039-3.221-0.106-4.835-0.191c-0.385,0.036-0.767,0.059-1.146,0.035c0.202-0.035,0.317-0.055,0.424-0.073
									c-0.836-0.05-1.678-0.1-2.518-0.15C193.757,35.825,191.848,35.854,189.937,35.883z"/>
								<path fill="#ADADAD" d="M231.092,37.374c0.663-0.352,0.9-0.767,0.782-1.096c-5.104,0.254-10.197,0.421-15.296,0.523
									C221.339,37.067,226.1,37.316,231.092,37.374z"/>
								<path fill="#DFDFDF" d="M161.944,29.42l-0.021,0.426l0.05-0.452l1.219,0.122l1.697,0.115
									c1.143,0.068,2.284,0.137,3.423,0.205c0.021-0.005,0.041-0.011,0.068-0.019c0.331-0.008,0.599,0.019,0.811,0.066
									c0.861,0.04,1.723,0.08,2.577,0.12c0.154-0.017,0.309-0.035,0.459-0.052c0.344-0.022,0.707-0.026,1.083-0.017
									c0.459-0.015,0.947-0.02,1.465-0.017c-2.669-0.227-5.329-0.452-7.995-0.679c-1.624,0.024-3.251,0.047-4.891,0.071
									l0.002,0.291L161.944,29.42z"/>
								<polygon fill="#A1A1A1" points="161.896,30.346 161.923,29.846 161.896,30.121 								"/>
								<path fill="#A1A1A1" d="M172.127,37.586c-3.19-0.124-5.887-0.571-8.765-0.918l-1.474-0.009
									c0.003-0.857,0.006-1.717,0.009-2.577c-0.124,0.313-0.231,0.706-0.325,1.167c-0.049,0.626-0.098,1.25-0.146,1.873
									C165.049,37.407,168.454,37.68,172.127,37.586z"/>
								<path fill="#ADADAD" d="M162.216,35.402c0.003,0.304,0.006,0.611,0.009,0.92c0.811,0.015,1.635,0.03,2.469,0.045
									c1.084,0.033,2.179,0.067,3.279,0.101c2.199,0.081,4.417,0.161,6.595,0.241c4.361,0.136,8.583,0.166,12.26-0.246
									c-1.216-0.183-2.534-0.339-3.886-0.486c-3.975,0.032-7.948,0.065-11.916,0.097c-2.388,0.022-4.777,0.027-7.165,0.005
									l-1.385-0.008l0.026-2.773c-0.235,0.086-0.435,0.354-0.604,0.784c-0.003,0.86-0.006,1.72-0.009,2.577l1.474,0.009
									c-0.551-0.075-0.905-0.145-1.277-0.206C162.128,36.115,162.172,35.762,162.216,35.402z"/>
								<path fill="#CACACA" d="M182.037,35.879c-3.671,0.085-7.343,0.159-11.012,0.194c3.968-0.032,7.941-0.065,11.916-0.097
									C182.642,35.944,182.34,35.912,182.037,35.879z"/>
								<path fill="#A1A1A1" d="M187.337,35.755l-0.011-0.001c-1.588,0.012-3.183,0.023-4.797,0.036
									c0.225,0.02,0.457,0.042,0.688,0.062L187.337,35.755z"/>
								<path fill="#CCCCCC" d="M166.738,37.592c-1.772-0.129-3.571-0.26-5.391-0.393c0.023-0.34,0.049-0.689,0.073-1.038
									c-0.043,0.318-0.082,0.673-0.117,1.083c0.371,0.043,0.798,0.081,1.271,0.116c0.446,0.03,0.908,0.062,1.382,0.094
									C164.851,37.499,165.787,37.545,166.738,37.592z"/>
								<path fill="#A1A1A1" d="M184.403,35.959c-0.398-0.036-0.789-0.072-1.187-0.108l-1.18,0.028
									c0.303,0.033,0.604,0.065,0.904,0.097L184.403,35.959z"/>
								<path fill="#A1A1A1" d="M174.678,30.013c0.325,0.029,0.664,0.06,1.011,0.092c0.069-0.027,0.115-0.059,0.161-0.093
									l-0.742-0.066C174.922,29.964,174.786,29.986,174.678,30.013z"/>
								<polygon fill="#A1A1A1" points="161.891,29.601 161.896,30.121 161.923,29.846 161.944,29.42 								"/>
								<path fill="#A1A1A1" d="M161.421,36.161c0.046-0.349,0.096-0.648,0.151-0.913c0.061-0.821,0.121-1.646,0.183-2.475
									c0.047-0.805,0.094-1.613,0.142-2.427l-0.001-0.225C161.736,32.141,161.578,34.163,161.421,36.161z"/>
								<path fill="#CACACA" d="M161.572,35.249c0.094-0.461,0.201-0.854,0.325-1.167c0.001-0.883,0.002-1.761,0.003-2.644
									c-0.002-0.366-0.003-0.729-0.004-1.091c-0.048,0.814-0.095,1.623-0.142,2.427C161.693,33.603,161.633,34.427,161.572,35.249
									z"/>
								<path fill="#A1A1A1" d="M186.827,36.463c-3.677,0.412-7.898,0.382-12.26,0.246c-2.178-0.08-4.396-0.16-6.595-0.241
									c-1.101-0.034-2.195-0.067-3.279-0.101c-0.834-0.015-1.658-0.03-2.469-0.045c-0.003-0.31-0.006-0.616-0.009-0.92
									c-0.044,0.36-0.088,0.712-0.131,1.059c0.372,0.061,0.727,0.131,1.277,0.206c12.097,0.064,23.975,0.26,35.767,0.278
									c-4.976-0.199-9.893-0.559-14.726-0.986l-1.462,0.018C184.293,36.124,185.611,36.28,186.827,36.463z"/>
							</g>
						</g>
					</g>
				</g>
			</g>
		</g>
	</g>
	<g>
		<path fill="#E5EEEC" d="M258,36.479c0,0.615-1.008,1.521-1.693,1.521h-23.191C232.43,38,232,37.094,232,36.479v-5.944
			c0-0.615,0.43-1.534,1.115-1.534h23.191c0.686,0,1.693,0.919,1.693,1.534V36.479z"/>
		<g>
			<g>
				<g>
					<g>
						<path fill="#202020" d="M257.287,36.479c0.033,0.035,0.11,0.015,0.095-0.08l-0.13-0.068L257.287,36.479z"/>
						<path fill="#202020" d="M257.527,35.838c-0.063-0.112-0.174-0.241-0.293-0.169c0.125,0.111,0.073,0.138,0.222,0.257
							c0.015,0.095-0.042,0.167-0.09,0.15c0.033,0.034-0.028,0.148,0.054,0.199c0.1-0.124,0.104-0.281,0.021-0.445
							C257.47,35.795,257.503,35.83,257.527,35.838z"/>
						<path fill="#202020" d="M254.146,29.238l0.061,0.015C254.19,29.245,254.17,29.24,254.146,29.238z"/>
						<path fill="#202020" d="M248.377,29.167c0.044-0.003,0.062-0.016,0.064-0.028C248.4,29.147,248.367,29.155,248.377,29.167z"/>
						<path fill="#202020" d="M247.392,29.023c0.022,0.003,0.039,0.006,0.059,0.009C247.428,29.02,247.405,29.014,247.392,29.023z"
							/>
						<path fill="#202020" d="M254.146,29.238l-0.154-0.041C253.981,29.239,254.071,29.228,254.146,29.238z"/>
						<path fill="#202020" d="M257.214,34.554c0.007,0.032,0.019,0.059,0.034,0.083l-0.014-0.079L257.214,34.554z"/>
						<path fill="#202020" d="M256.764,29.202l0.055,0.016c0.021-0.01,0.042-0.022,0.063-0.037L256.764,29.202z"/>
						<path fill="#202020" d="M257.854,31.021c0.005-0.044-0.105-0.059-0.153-0.076c0.045,0.025,0.067,0.058,0.075,0.096
							C257.798,31.042,257.823,31.036,257.854,31.021z"/>
						<path fill="#202020" d="M257.661,34.116l0.015,0.055C257.672,34.156,257.666,34.135,257.661,34.116z"/>
						<path fill="#202020" d="M255.293,29.108c-0.003-0.017-0.011-0.031-0.018-0.04C255.275,29.083,255.282,29.096,255.293,29.108z"
							/>
						<path fill="#202020" d="M255.893,37.076l0.001,0.02C255.904,37.084,255.908,37.077,255.893,37.076z"/>
						<polygon fill="#202020" points="257.576,36.479 257.579,36.511 257.64,36.52 						"/>
						<path fill="#202020" d="M245.589,28.882l0.008,0.002C245.644,28.872,245.617,28.874,245.589,28.882z"/>
						<path fill="#202020" d="M231.418,32.763c0.099-0.188,0.127,0.305,0.236,0.023C231.61,32.812,231.481,32.529,231.418,32.763z"
							/>
						<path fill="#202020" d="M257.229,34.503l-0.001-0.08C257.224,34.459,257.224,34.484,257.229,34.503z"/>
						<path fill="#202020" d="M231.654,32.786L231.654,32.786l0.011-0.029C231.66,32.768,231.658,32.775,231.654,32.786z"/>
						<path fill="#202020" d="M241.435,28.948c0.009,0.02,0.025,0.034,0.042,0.048C241.476,28.985,241.466,28.971,241.435,28.948z"
							/>
						<path fill="#202020" d="M244.529,29.105l-0.077-0.015C244.483,29.101,244.508,29.104,244.529,29.105z"/>
						<path fill="#202020" d="M239.828,29.104c-0.042-0.008-0.056-0.024-0.113-0.009l0.018,0.013
							C239.753,29.093,239.78,29.086,239.828,29.104z"/>
						<polygon fill="#202020" points="238.155,29.104 238.186,29.127 238.239,29.121 						"/>
						<path fill="#202020" d="M250.811,37.129c0.036,0.031,0.06,0.065,0.077,0.099C250.861,37.149,251.107,37.122,250.811,37.129z"
							/>
						<path fill="#202020" d="M257.276,34.553c-0.028-0.01-0.042-0.024-0.048-0.05l0.006,0.056
							C257.251,34.563,257.267,34.564,257.276,34.553z"/>
						<path fill="#202020" d="M239.76,29.974l-0.266-0.016C239.568,29.968,239.665,29.974,239.76,29.974z"/>
						<path fill="#202020" d="M238.812,37.145l0.062-0.013C238.85,37.129,238.828,37.132,238.812,37.145z"/>
						<path fill="#202020" d="M238.706,29.974c-0.048-0.039-0.098-0.062-0.15-0.076c-0.011,0.008-0.023,0.016-0.03,0.028
							L238.706,29.974z"/>
						<path fill="#202020" d="M250.888,37.229v-0.001V37.229z"/>
						<path fill="#202020" d="M252.638,36.967c-0.253-0.003-0.118,0.142-0.172,0.225c-0.303,0.041-0.141-0.106-0.243-0.181
							c-0.188,0.039-0.333,0.171-0.474,0.166c-0.011-0.024-0.038-0.032-0.006-0.062c-0.199,0.115-0.592,0.005-0.825,0.15
							c-0.017-0.013-0.025-0.025-0.03-0.036c0.038,0.073,0.044,0.146,0.036,0.199c-0.113,0.002-0.211,0.091-0.254-0.003
							c0.07,0.002,0.076-0.036,0.108-0.065l-0.119,0.042c-0.106-0.136,0.163-0.047,0.163-0.148
							c-0.232,0.044-0.503,0.157-0.681,0.119c-0.037-0.133,0.416-0.045,0.179-0.164l0.274,0.051c-0.21-0.21,0.168,0.015-0.025-0.21
							c-0.362-0.039-0.404,0.068-0.766,0.029c-0.081,0.074,0.027,0.109-0.055,0.183c-0.513,0.133-0.404-0.335-0.781-0.157
							c-0.098,0.089-0.136,0.257-0.404,0.168l0.092-0.15c-0.351-0.015-0.199,0.216-0.566,0.115c0.064-0.059,0.275-0.05,0.223-0.067
							c-0.238-0.119-0.169,0.085-0.352,0.085l-0.038-0.133c-0.372,0.021-0.783,0.117-1.196,0.142
							c0.022-0.04,0.094-0.082-0.003-0.122c-0.521,0.066-1.112-0.017-1.615-0.096l-0.191,0.115
							c-0.045-0.001-0.083-0.052-0.035-0.075c-0.195-0.043-0.01,0.073-0.104,0.119c-0.112,0.008-0.147-0.066-0.077-0.101
							c-0.346,0.098-0.984,0.21-1.349,0.087l0.071-0.034c-0.283-0.047-0.32,0.236-0.583,0.128l0.051-0.021
							c-0.616-0.05-1.296,0.056-1.766-0.118c-0.09,0.166-0.609-0.074-0.648,0.157c-0.352-0.115-0.251-0.156-0.746-0.233
							c-0.132-0.011-0.196,0.145-0.36,0.168l-0.004-0.121l-0.222,0.127l-0.118-0.145l-0.153,0.031
							c0.061,0.007,0.13,0.054,0.12,0.089c-0.239,0.054-0.583-0.084-0.59-0.146l-0.565,0.102c0.012-0.048,0.106-0.065,0.183-0.096
							c-0.303,0.124-0.056-0.127-0.332-0.014c0.036,0.027-0.021,0.072-0.026,0.096c-0.139-0.073-0.453-0.074-0.686-0.043
							l0.045-0.083c-0.421-0.021-0.886,0.041-1.357,0.039c0.169,0.039,0.13,0.183-0.008,0.197l-0.056-0.127
							c-0.09,0.079,0.145,0.048-0.039,0.145c-0.176-0.015-0.118-0.145-0.017-0.187l-0.215,0.044
							c-0.012-0.038,0.038-0.058,0.051-0.107c-0.088,0.08-0.369-0.128-0.496,0.01l-0.012-0.038
							c-0.472-0.001-0.686,0.043-1.069,0.049c-0.008,0.11-0.158,0.086-0.272,0.175c-0.137-0.019-0.299-0.045-0.437-0.075
							c-0.108-0.03-0.206-0.068-0.31-0.102c-0.162-0.02-0.08,0.064-0.181,0.088c0.031-0.092-0.146-0.217-0.01-0.206
							c-0.104-0.07-0.149-0.132-0.202-0.197c-0.051-0.08-0.098-0.118-0.146-0.331c-0.043,0.063-0.054,0.103-0.091,0.081
							c-0.021-0.082,0.041-0.21,0.088-0.193l0.011,0.024c-0.15-0.579,0.293-1.337,0.083-1.798l0.011,0.026l-0.109-0.478
							c0.018-0.22,0.076,0.132,0.138-0.031c-0.167-0.516,0.024-0.815-0.087-1.24c0.296-0.329-0.021-1.167,0.168-1.611l-0.069,0.025
							c-0.068-0.114,0.04-0.139,0.056-0.223c-0.055,0.012-0.063,0.125-0.101,0.053c-0.021-0.221-0.03-0.551-0.005-0.637
							c0.042-0.133,0.143-0.249,0.273-0.323c0.129-0.078,0.288-0.108,0.438-0.088c0.239,0.019,0.476,0.038,0.707,0.056
							c0.364,0.019,0.206-0.361,0.666-0.194l-0.131,0.129c0.736-0.155,1.504,0.005,2.225-0.126c-0.043,0.03-0.044,0.068-0.114,0.068
							c0.151,0.094,0.563,0.005,0.564-0.072c0.112,0.009,0.026,0.07,0.096,0.109c0.152,0.056,0.383-0.12,0.464-0.027
							c0.014,0.016-0.043,0.031-0.071,0.038c0.1-0.046,0.464,0.012,0.368-0.097c0.271,0.052,0.517-0.048,0.732,0.016
							c0.141-0.121,0.463,0.059,0.508-0.113c-0.02,0.177,0.474,0.143,0.645,0.06c-0.058,0.054,0.148,0.056,0.082,0.13
							c0.194-0.002,0.373-0.036,0.339-0.126c0.359,0.212,0.723-0.171,0.925,0.101c0.579-0.095,1.115-0.16,1.636-0.201
							c-0.019,0.177-0.575,0.018-0.554,0.203c0.495-0.073,0.78-0.225,1.271-0.182c0.127,0.024-0.072,0.077-0.115,0.107
							c0.494-0.073,0.955,0.016,1.395-0.08c-0.001,0.017-0.049,0.035-0.094,0.048c0.087-0.006,0.201,0.026,0.191-0.054l-0.084,0.021
							c-0.139-0.117,0.344-0.244,0.359-0.305c-0.147,0.23,0.434,0.058,0.2,0.349c0.058-0.015,0.129-0.053,0.116-0.107
							c0.084,0.016,0.111,0.047,0.025,0.108c0.31-0.043,0.199-0.129,0.48-0.127c0,0.039-0.058,0.054-0.086,0.1
							c0.142-0.076,0.285-0.152,0.522-0.119c-0.015,0.023,0.013,0.054-0.058,0.054c0.408-0.012,0.695-0.203,1.143-0.129
							c-0.132,0.169,0.152,0.056,0.176,0.202l0.24-0.043l-0.096-0.071c0.211,0.002,0.396-0.104,0.578-0.057l-0.157,0.061
							l0.396-0.028l-0.224-0.056c0.214-0.075-0.023-0.185,0.258-0.144c-0.057,0.015,0.211,0.001,0.32,0.088l-0.001,0
							c0.105-0.047,0.212-0.096,0.368-0.06c0.04,0.047-0.033,0.162-0.007,0.193c0.104-0.123,0.494-0.034,0.624-0.165
							c-0.043,0.031-0.045,0.107-0.031,0.123l0.086-0.099c0.098,0.032,0.112,0.047,0.097,0.108c0.294,0.018-0.094-0.186,0.255-0.106
							c-0.026,0.008-0.014,0.023-0.07,0.038c0.35,0.042,0.676-0.063,0.998-0.014c0.095,0.147-0.281,0.036-0.173,0.161
							c0.464-0.027,0.96-0.177,1.409-0.142l-0.084-0.016c0.063-0.208,0.334,0.103,0.562,0.004c-0.056,0.016-0.073,0.116-0.058,0.092
							c0.308,0.034,0.629-0.051,1.094-0.116l-0.058,0.053c0.182,0.048,0.478,0.027,0.673,0.052c0.059-0.053,0.17-0.044,0.103-0.123
							c0.599,0.307,1.161-0.168,1.676,0.096c-0.047-0.008-0.146,0.043-0.092,0.042c0.016-0.013,0.373-0.011,0.378,0.006
							c-0.004-0.095-0.031-0.065-0.1-0.158c0.058-0.034,0.197-0.056,0.298-0.003c-0.203-0.024-0.046,0.134-0.011,0.212
							c0.001-0.03,0.039-0.046,0.047-0.074c0.092,0.245,0.139-0.146,0.313,0.141l-0.044,0.022c0.096,0.058,0.213,0.109,0.263,0.231
							c-0.067,0.091-0.106-0.081-0.182-0.039c0.084,0.11,0.339,0.224,0.243,0.407c-0.031-0.071-0.053-0.169-0.11-0.223
							c-0.059,0.182-0.055,0.183-0.053,0.29l0.001-0.01l-0.052,0.304l0.033-0.08c0.273,0.231,0.05,0.47,0.229,0.781
							c-0.169-0.302-0.098-0.05-0.217-0.073c-0.032,0.079-0.069,0.2-0.103,0.166c0.096,0.147-0.076,0.245,0.064,0.453
							c-0.039,0.009-0.004,0.157-0.1,0.124c0.029,0.191,0.066-0.045,0.114-0.029c0.131,0.294-0.158,0.692,0.021,1.115
							c0.074,0.365,0.203,0.433,0.268,0.771c-0.062,0.115-0.14-0.093-0.14-0.093c-0.057,0.185-0.046,0.323-0.002,0.497
							c-0.033-0.035-0.062,0.001-0.104,0.054c0.01,0.139,0.139,0.093,0.082,0.277c-0.042-0.031-0.11-0.072-0.153-0.139
							c0.035,0.165,0.106,0.327,0.142,0.497c-0.067,0.045-0.102-0.103-0.145-0.163c0.029,0.191,0.06,0.496,0.165,0.555l0.038-0.123
							c0.005,0.07-0.091,0.036-0.109-0.016c-0.083-0.164,0.036-0.236,0.074-0.246l0.024,0.122c0.225-0.125-0.036-0.487-0.022-0.731
							l0.163,0.102l-0.136-0.25c0.043-0.053,0.134-0.089,0.158,0.031c0.081-0.175-0.058-0.155,0.032-0.305
							c0.014-0.017,0.021-0.009,0.028,0.006l-0.049-0.171c0.034,0.033,0.115-0.029,0.092,0.076c0.094-0.307-0.123-0.495,0.001-0.61
							l0.01,0.025c-0.055-0.425-0.119-0.041-0.26-0.36l0.295-0.215l-0.119-0.042c0.004-0.044,0.013-0.13,0.061-0.115
							c-0.082-0.163-0.052,0.028-0.129-0.067c0.109-0.211-0.051-0.583,0.14-0.63c-0.091-0.076-0.07,0.202-0.134-0.023
							c0.205-0.064-0.035-0.261,0.059-0.454c0.106,0.06,0.05,0.242,0.145,0.049c-0.179-0.117,0.04-0.376,0.005-0.539
							c-0.148-0.014-0.045-0.34-0.121-0.641c0.092,0.016-0.056-0.613-0.3-0.838l0.022-0.011c-0.141,0.063-0.357-0.132-0.572-0.172
							c0.037-0.081,0.085-0.101,0.216-0.078c0.001-0.004-0.2-0.092-0.203-0.083c-0.063,0.033-0.132,0.029-0.266,0.024l0.071-0.099
							c-0.315-0.039-0.534,0.1-0.845,0.024c-0.018,0.1,0.244,0.279-0.081,0.347c-0.012-0.054-0.024-0.147,0.062-0.169
							c-0.028,0.007-0.1,0.045-0.156,0.022l0.13-0.091c-0.14-0.04-0.073,0.076-0.185,0.068c0.002-0.078-0.083-0.056-0.067-0.117
							c0.029-0.007,0.098,0.032,0.141,0.002c-0.126-0.014-0.278-0.06-0.329-0.119c0.011,0.044,0,0.104-0.092,0.114
							c-0.239,0.006-0.082-0.093-0.222-0.133c-0.058,0.054-0.211-0.002-0.215,0.114c-0.069,0-0.082-0.055-0.109-0.086
							c-0.123,0.051-0.577,0.015-0.438,0.138l0.032,0.008c-0.007,0.001-0.013,0.003-0.021,0.005h0.001h-0.001
							c-0.405,0.115-0.842-0.065-1.244-0.016l0.001-0.039c-0.24,0.044-0.534,0.026-0.706,0.109c-0.071,0-0.167-0.071-0.138-0.117
							c-0.183,0.029-0.203,0.073-0.469,0.009c0.185-0.068-0.063-0.06,0.189-0.05c-0.238-0.033-0.293-0.095-0.549,0.011
							c0.088-0.1-0.18-0.125-0.292-0.095l0.166,0.071c-0.127,0.015-0.238,0.006-0.352-0.003l0.062-0.13
							c-0.488-0.159-0.88,0.27-1.252,0.004c-0.129,0.091,0.266,0.064,0.15,0.171c-0.225-0.018-0.459-0.205-0.529-0.205
							c-0.308-0.072-0.286,0.19-0.608,0.141c0.041,0.046,0.08,0.171-0.16,0.214c-0.225-0.017-0.276-0.195-0.135-0.232
							c0.054-0.004,0.08,0.011,0.078,0.027c0.072-0.017,0.168-0.037,0.078-0.087l-0.028,0.046c-0.111-0.047-0.421-0.042-0.348-0.119
							c-0.17,0.044-0.073,0.076,0.053,0.101c-0.288-0.067-0.45-0.002-0.746-0.047c0.046,0.025,0.09,0.08,0.043,0.08
							c-0.435-0.058-0.191,0.088-0.486,0.109c-0.167-0.071,0.06-0.169-0.236-0.11c-0.182-0.048-0.038-0.124,0.033-0.162
							c-0.27,0.09-0.505-0.059-0.659-0.076l0.143-0.038c-0.085,0.022-0.155,0.022-0.226,0.021l0.081,0.093
							c-0.084-0.016-0.154-0.017-0.152-0.055c-0.087,0.061,0.065,0.155-0.105,0.238c-0.111-0.047-0.339,0.051-0.378-0.073
							c0.351,0.042-0.039-0.124,0.258-0.144c-0.058,0.015-0.127,0.014-0.211-0.002c-0.013-0.014,0.012-0.025,0.035-0.032
							c-0.336-0.111-0.154,0.14-0.502,0.137c0.044-0.07-0.08-0.132-0.137-0.117c0.14,0.001,0.066,0.116-0.062,0.169
							c-0.224-0.054-0.243,0.04-0.359,0.034l0.133,0.026c-0.045,0.069-0.156,0.061-0.312,0.082
							c-0.013-0.054,0.141-0.037,0.086-0.061c-0.173,0.123-0.39-0.126-0.631-0.044c-0.111-0.047-0.011-0.131-0.108-0.163
							c-0.27,0.09-0.292-0.095-0.575-0.021c0.082,0.094,0.096,0.071-0.104,0.162l0.466-0.066l-0.299,0.136
							c0.141,0.001,0.297-0.059,0.381-0.043c-0.143,0.077-0.128,0.053-0.061,0.131c-0.192-0.141-0.382,0.082-0.604-0.013L242.909,29
							c-0.335-0.104-0.595,0.119-1.028,0.061l0.14,0.04c-0.059,0.092-0.268,0.013-0.409,0.05c0.014-0.078-0.074-0.105-0.135-0.154
							c0.008,0.058-0.317-0.005-0.356,0.149l-0.194-0.102c-0.35-0.042-0.399,0.221-0.736,0.194c0.101-0.084-0.052-0.139,0.174-0.199
							c-0.112-0.001-0.214-0.015-0.216,0.039c-0.065-0.048-0.312,0.104-0.415,0.031c-0.048,0.034-0.063,0.115-0.189,0.109
							c-0.014-0.016,0.001-0.038,0.001-0.038c-0.001,0.038-0.198,0.052-0.088,0.138c-0.346-0.242-0.968,0.017-1.271-0.19
							c-0.245,0.026-0.541,0.051-0.764,0.056c0.015-0.023,0.001-0.039,0.043-0.03c-0.308-0.072-0.189,0.222-0.538,0.142
							c-0.18-0.125,0.186-0.067,0.073-0.115c-0.048-0.255-0.422,0.035-0.657-0.114l0.057-0.015c-0.18-0.087-0.438,0.096-0.732,0.078
							c0,0,0.015-0.022,0.002-0.039c-0.201,0.13-0.582,0.173-0.865,0.209c0.088-0.1,0.129-0.053,0.075-0.154
							c-0.127,0.014,0.037,0.163-0.216,0.191c-0.083-0.055-0.266-0.102-0.289-0.21l0.238-0.006c-0.122-0.14-0.309,0.005-0.435-0.02
							l0.016-0.061c-0.365,0.02-0.37,0.174-0.764,0.163l0.04,0.046c-0.216,0.154-0.176-0.089-0.397,0.031l-0.083-0.148
							c-0.18,0.027-0.552,0.262-0.742,0.459c0.043-0.208,0.36-0.4,0.58-0.507c-0.179,0.017-0.58,0.199-0.6,0.33
							c0.044-0.058,0.11-0.124,0.182-0.134c-0.144,0.193-0.306,0.392-0.478,0.648c-0.109-0.109-0.262,0.072-0.332,0.346
							c-0.058,0.307-0.034,0.507-0.157,0.62c0.11,0.496-0.048,0.983-0.03,1.56c0.234-0.205,0.007,0.168,0.247,0.133
							c0.015,0.134,0.011,0.186-0.004,0.197l-0.144,0.408c-0.07,0.097-0.053-0.128-0.106-0.115
							c-0.019,0.294-0.102,0.124-0.166,0.318c0.086-0.04,0.123,0.103,0.091,0.27l0.11-0.236c0.128,0.411-0.201,0.355-0.075,0.77
							l-0.075-0.131c0.044,0.213-0.002,0.785,0.191,0.993c-0.028,0.038-0.094,0.087-0.111-0.006
							c-0.022,0.527,0.191,1.09,0.101,1.569l-0.064-0.05c0.032,0.142,0.129,0.217,0.134,0.389c-0.025,0-0.074-0.034-0.056,0.029
							c0.036,0.073,0.238,0.284,0.325,0.427c-0.002,0.004-0.147-0.073-0.144-0.079c0.181,0.31,0.439,0.457,0.68,0.501
							c0.239,0.06,0.466,0.036,0.713,0.031c0.019,0.181,0.395,0.231,0.594,0.261l-0.007,0.024c0.578,0.021,0.981-0.143,1.517-0.211
							c0.332,0.187,1.124,0.079,1.657,0.184c-0.081-0.031,0.014-0.135,0.108-0.152c0.126,0.035,0.347-0.12,0.326,0.038l-0.044-0.002
							c0.094,0.155,0.352,0.114,0.552,0.118l0.034-0.207c0.524,0.301,1.377-0.111,1.663,0.159c0.127-0.051,0.284-0.051,0.41-0.103
							l-0.007,0.111c0.352,0.028,0.526,0.042,0.961,0.016l-0.088,0.079c0.244,0.007,0.309-0.32,0.534-0.327l0.068,0.166
							c0.428-0.002,0.86,0.143,1.282-0.007c-0.007,0.024-0.02,0.072-0.089,0.079c0.202,0.004,0.779,0.112,0.706-0.115
							c0.005,0.148,0.44,0.014,0.671-0.051l-0.035,0.109c0.194-0.14,0.201-0.178,0.473-0.217c0.064,0.014,0.057,0.087-0.029,0.06
							c0.215,0.057,0.168-0.104,0.429-0.045l-0.098,0.07c0.222,0.008,0.203-0.029,0.325-0.11c0.14-0.044,0.42,0.028,0.452,0.126
							c0.03-0.06,0.151-0.141,0.281-0.112c0.018,0.037-0.03,0.061-0.054,0.072c0.37,0.074,0.55-0.127,0.804-0.02
							c0.006,0.036,0.021,0.054,0.043,0.065c-0.294-0.002-0.53-0.009-0.508-0.017c0,0.101,0.237,0.119,0.049,0.258
							c0.19-0.076,0.516-0.241,0.746-0.194c0.012,0.01,0.022,0.02,0.031,0.035l-0.023,0.011c0.053,0.01,0.101,0,0.146-0.017
							c0.074,0.017,0.12,0.029,0.191,0.03c0.027,0.083,0.272,0.045,0.391,0.049c-0.01-0.11,0.145-0.093,0-0.184
							c0.019,0.008-0.022,0.013-0.102,0.018c-0.018,0.003-0.038,0.004-0.05,0.011l0.008-0.01c-0.078,0.002-0.18,0.004-0.294,0.007
							c0.093-0.056,0.19-0.103,0.322-0.042c0.061-0.071,0.127-0.144,0.165-0.178c0.161,0.154,0.474,0.237,0.517,0.332
							c0.361-0.062,0.852-0.041,1.078-0.248c0.103-0.026,0.118,0.06,0.156,0.092c-0.06,0.021-0.13,0.018-0.162,0.048
							c0.206-0.053,0.608-0.021,0.658-0.166c0.259,0.065-0.146,0.133,0.21,0.109l-0.049,0.044c0.7,0.231,1.138-0.37,1.913-0.073
							c-0.054-0.018-0.08-0.026-0.092-0.051c0.885,0.131,1.822-0.123,2.695,0.085c0.247,0.042,0.274-0.051,0.426-0.121l0.054,0.119
							l0.259-0.137c0.369-0.101,0.631,0.293,1.104,0.099c-0.003,0.001-0.066-0.076-0.064-0.078c0.188,0.027,0.568-0.135,0.564-0.049
							c0.017-0.017,0.028-0.1,0.11-0.094l0.032,0.054c0.018,0.013,0.35-0.335,0.326-0.35c0.266-0.257,0.172,0.256,0.502-0.269
							c0.095-0.245-0.049-0.663-0.095-0.573c-0.011,0.082-0.062,0.201-0.123,0.193l-0.013-0.168
							c-0.178-0.056-0.359-0.076-0.517,0.111c0.004-0.008,0.052,0.188,0.037,0.192l-0.104,0c-0.002-0.002,0.07-0.116,0.059-0.119
							c-0.104,0.03-0.062,0.096-0.057,0.178c-0.047-0.019-0.088-0.025-0.12-0.015c0.017,0-0.013,0.238-0.021,0.245
							c-0.054-0.049-0.021-0.162-0.128-0.132c-0.037,0.105,0.16,0.102,0.048,0.212c-0.126-0.033-0.112-0.102-0.196-0.009
							c-0.027-0.041-0.013-0.077,0.018-0.105c-0.067,0.086-0.222,0.071-0.27,0.17c-0.12-0.098-0.451,0.028-0.435-0.144
							c-0.043,0.042-0.238,0.136-0.361,0.143c0.226-0.207-0.464-0.012-0.404-0.234c-0.167,0.187-0.604,0.083-0.9,0.186
							c0.017-0.015,0.049-0.044,0.075-0.035c-0.167-0.016-0.215-0.071-0.322-0.106c-0.021,0.153-0.281,0.188-0.422,0.283
							c-0.204-0.148,0.124-0.18,0.061-0.323c0.01,0.125-0.355,0.125-0.286,0.228c-0.156-0.092-0.135-0.044-0.216-0.172
							c-0.027,0.192-0.145,0.033-0.274,0.15c-0.227-0.094-0.059-0.18-0.308-0.121C252.417,37.035,252.638,36.967,252.638,36.967z
							 M246.725,37.299v-0.002c0.051-0.002,0.095-0.004,0.122-0.006C246.821,37.292,246.786,37.295,246.725,37.299z M246.228,37.301
							c0.062,0.001,0.136,0.002,0.216,0.004c0.018,0.038-0.001,0.077-0.052,0.075C246.419,37.355,246.302,37.333,246.228,37.301z
							 M247.279,38.065c-0.079,0.016-0.105-0.006-0.116-0.028c0.036-0.003,0.079-0.008,0.138-0.013l0.009-0.014
							C247.303,38.031,247.294,38.05,247.279,38.065z"/>
						<path fill="#202020" d="M247.42,37.921c0.012-0.003,0.019-0.007,0.033-0.008c-0.018-0.009-0.033-0.018-0.047-0.025
							l-0.028,0.035L247.42,37.921z"/>
						<path fill="#202020" d="M254.217,29.255l-0.01-0.002c0.008,0.004,0.017,0.009,0.021,0.016
							C254.222,29.263,254.222,29.26,254.217,29.255z"/>
						<polygon fill="#202020" points="239.365,37.09 239.366,37.118 239.409,37.094 						"/>
						<path fill="#202020" d="M256.829,29.765c-0.001,0.01,0.002,0.023,0.013,0.038C256.845,29.795,256.838,29.781,256.829,29.765z"
							/>
						<path fill="#202020" d="M257.307,30.52l-0.037,0.163C257.291,30.612,257.305,30.553,257.307,30.52z"/>
						<path fill="#202020" d="M257.254,31.424c0.02,0.011,0.034,0.015,0.047,0.018l0.001-0.002L257.254,31.424z"/>
						<path fill="#202020" d="M244.592,29.843l-0.035,0.005C244.475,29.869,244.53,29.861,244.592,29.843z"/>
						<path fill="#202020" d="M248.893,29.585c-0.045,0.02-0.09,0.04-0.138,0.052C248.832,29.646,248.891,29.648,248.893,29.585z"/>
						<polygon fill="#202020" points="239.789,29.976 239.79,29.974 239.76,29.974 						"/>
						<path fill="#202020" d="M248.555,29.636c0.077,0.021,0.141,0.017,0.2,0.002C248.692,29.63,248.618,29.619,248.555,29.636z"/>
						<path fill="#202020" d="M257.204,35.364l-0.005,0.043c0.008,0,0.014,0.002,0.018,0.005L257.204,35.364z"/>
						<path fill="#202020" d="M257.217,35.413l0.014,0.049C257.23,35.439,257.229,35.42,257.217,35.413z"/>
						<path fill="#202020" d="M257.258,35.564l-0.027-0.102C257.229,35.497,257.227,35.541,257.258,35.564z"/>
						<path fill="#202020" d="M257.255,34.161l-0.04-0.014C257.224,34.154,257.236,34.159,257.255,34.161z"/>
						<path fill="#202020" d="M257.243,33.795c-0.009,0.087-0.085,0.219-0.06,0.341l0.031,0.011
							C257.155,34.09,257.311,33.878,257.243,33.795z"/>
						<path fill="#202020" d="M257.737,32.269l-0.032,0.307c0.043-0.054,0.101-0.124,0.11,0.015
							C257.942,32.204,257.721,32.67,257.737,32.269z"/>
						<path fill="#202020" d="M257.8,31.318c0.02,0.165,0.062-0.002,0.085,0.007C257.847,31.221,257.837,31.195,257.8,31.318z"/>
						<path fill="#202020" d="M252.073,29.167l0.017-0.101C251.963,29.082,252.088,29.106,252.073,29.167z"/>
						<polygon fill="#202020" points="250.761,29.686 250.884,29.749 250.943,29.657 						"/>
						<polygon fill="#202020" points="249.985,28.971 250.04,28.957 249.829,28.994 						"/>
						<path fill="#202020" d="M238.453,29.007l0.038,0.124C238.577,29.108,238.595,28.97,238.453,29.007z"/>
						<path fill="#202020" d="M233.475,29.133c-0.055-0.062-0.194-0.101-0.28-0.041C233.306,29.101,233.417,29.149,233.475,29.133z"
							/>
						<polygon fill="#202020" points="238.045,38.081 237.944,38.123 238.134,38.088 						"/>
					</g>
				</g>
			</g>
		</g>
	</g>
	<text transform="matrix(1.1146 0 0 1 236.8438 35.5845)" font-family="'AlphaRuler'" font-size="6.6873">search</text>
	<g>
		<path fill-rule="evenodd" clip-rule="evenodd" fill="#FFFFFF" d="M27.311,6.638c0-1.663-0.008-3.326,0.007-4.989
			c0.002-0.303-0.092-0.388-0.39-0.385c-1.525,0.013-3.052,0.013-4.578-0.002c-0.306-0.003-0.39,0.099-0.389,0.393
			c0.008,3.314,0.009,6.629-0.002,9.943c-0.001,0.314,0.108,0.375,0.396,0.373c1.526-0.013,3.053-0.014,4.579,0.001
			c0.299,0.003,0.388-0.074,0.385-0.378C27.302,9.941,27.311,8.29,27.311,6.638z M11.264,6.638c0-1.663-0.007-3.326,0.006-4.989
			c0.002-0.303-0.091-0.388-0.389-0.385C9.355,1.276,7.829,1.276,6.303,1.261C5.998,1.258,5.913,1.36,5.914,1.654
			c0.007,3.314,0.009,6.629-0.002,9.943c-0.001,0.314,0.108,0.375,0.396,0.373c1.526-0.013,3.053-0.014,4.579,0.001
			c0.299,0.003,0.388-0.074,0.385-0.378C11.256,9.941,11.264,8.29,11.264,6.638z M20.711,6.694c-0.502-0.128-0.48-0.421-0.35-0.758
			c0.049-0.127,0.079-0.262,0.118-0.392c0.142-0.47,0.142-0.47-0.344-0.366c-0.571,0.123-0.576,0.125-0.882-0.411
			c-0.089-0.157-0.138-0.128-0.241-0.012c-0.255,0.291-0.526,0.567-0.792,0.848c-0.071,0.075-0.152,0.152-0.267,0.086
			c-0.093-0.054-0.093-0.155-0.079-0.244c0.034-0.213,0.077-0.424,0.118-0.637c0.097-0.504,0.247-1,0.301-1.531
			c-0.201,0.038-0.328,0.135-0.463,0.216c-0.378,0.225-0.409,0.219-0.617-0.178c-0.199-0.378-0.39-0.76-0.616-1.2
			c-0.245,0.472-0.466,0.878-0.667,1.293c-0.119,0.25-0.261,0.268-0.487,0.135c-0.168-0.099-0.322-0.24-0.57-0.282
			c0.153,0.724,0.299,1.41,0.445,2.097c0.026,0.122,0.076,0.259-0.071,0.333c-0.142,0.072-0.235-0.038-0.32-0.129
			c-0.2-0.217-0.394-0.439-0.592-0.658c-0.295-0.324-0.31-0.328-0.472,0.075c-0.105,0.262-0.253,0.359-0.525,0.263
			c-0.117-0.041-0.243-0.059-0.366-0.083c-0.411-0.081-0.42-0.068-0.295,0.32c0.073,0.227,0.15,0.454,0.216,0.683
			c0.053,0.18,0.038,0.338-0.165,0.425c-0.207,0.09-0.167,0.188-0.018,0.313c0.427,0.359,0.831,0.745,1.271,1.087
			c0.383,0.297,0.659,0.587,0.359,1.101c-0.103,0.179-0.006,0.242,0.187,0.199c0.456-0.099,0.914-0.186,1.37-0.28
			c0.493-0.101,0.561-0.047,0.543,0.465c-0.015,0.467-0.037,0.934-0.062,1.399c-0.01,0.171,0.009,0.279,0.227,0.28
			c0.229,0.001,0.222-0.117,0.213-0.283c-0.025-0.489-0.042-0.979-0.057-1.468c-0.012-0.424,0.071-0.492,0.473-0.41
			c0.435,0.089,0.869,0.179,1.304,0.263c0.107,0.021,0.235,0.111,0.32,0.005c0.077-0.098-0.006-0.22-0.052-0.32
			c-0.144-0.309-0.102-0.537,0.188-0.767C19.566,7.72,20.101,7.225,20.711,6.694z M34.578,3.334c-0.16,0-0.32,0.011-0.478-0.003
			c-0.254-0.022-0.355,0.052-0.361,0.335c-0.006,0.311,0.144,0.331,0.373,0.311c0.079-0.007,0.161-0.011,0.238,0.001
			c0.099,0.015,0.259-0.07,0.27,0.109c0.009,0.136,0.077,0.305-0.083,0.407c-0.374,0.24-0.776,0.335-1.201,0.174
			c-0.407-0.156-0.573-0.501-0.619-0.908c-0.021-0.19-0.017-0.386-0.005-0.579c0.029-0.479,0.288-0.805,0.72-0.923
			c0.508-0.139,0.798-0.031,1.106,0.417c0.039,0.055,0.06,0.146,0.141,0.121c0.212-0.068,0.517,0.012,0.625-0.181
			c0.092-0.165-0.088-0.384-0.216-0.542c-0.092-0.112-0.207-0.214-0.331-0.292c-0.624-0.396-1.645-0.32-2.212,0.154
			c-0.667,0.559-0.848,1.658-0.419,2.538c0.358,0.738,1.212,1.102,2.119,0.905c0.978-0.212,1.136-0.386,1.136-1.253
			C35.38,3.333,35.38,3.333,34.578,3.334z M70.251,3.419c-0.193,0-0.387-0.002-0.58,0c-0.088,0.001-0.173-0.009-0.21,0.118
			c-0.1,0.347,0.007,0.506,0.361,0.508c0.079,0,0.16-0.008,0.239,0.002c0.09,0.011,0.234-0.055,0.243,0.101
			c0.008,0.139,0.079,0.307-0.068,0.415c-0.528,0.386-1.471,0.426-1.767-0.4c-0.138-0.384-0.142-0.783-0.032-1.176
			c0.108-0.387,0.37-0.622,0.762-0.696c0.34-0.065,0.703-0.042,0.895,0.266c0.188,0.302,0.392,0.278,0.674,0.228
			c0.251-0.045,0.262-0.138,0.172-0.34c-0.267-0.604-0.776-0.787-1.379-0.824c-1.087-0.065-1.83,0.577-1.958,1.694
			c-0.124,1.089,0.483,1.962,1.497,2.14c0.376,0.066,0.746,0.024,1.111-0.092c0.782-0.248,0.854-0.339,0.854-1.132
			C71.065,3.418,71.065,3.418,70.251,3.419z M50.838,2.924c0.017-0.495-0.322-0.269-0.513-0.296
			c-0.254-0.034-0.172,0.187-0.173,0.313c-0.008,0.638-0.003,1.275-0.003,1.913c0,0.514,0,0.506,0.515,0.495
			c0.173-0.004,0.244-0.046,0.236-0.23c-0.014-0.296-0.009-0.592-0.002-0.889c0.007-0.259-0.04-0.522,0.063-0.777
			c0.096-0.234,0.264-0.326,0.511-0.301c0.231,0.023,0.258,0.195,0.263,0.371c0.014,0.511,0.016,1.023,0.028,1.534
			c0.003,0.096-0.05,0.247,0.075,0.269c0.187,0.034,0.396,0.048,0.576-0.002c0.158-0.044,0.075-0.237,0.081-0.362
			c0.02-0.466-0.036-0.935,0.049-1.397c0.048-0.261,0.202-0.431,0.495-0.413c0.306,0.018,0.317,0.249,0.321,0.468
			c0.008,0.41,0.003,0.82,0.003,1.229c0,0.516,0,0.509,0.511,0.499c0.167-0.004,0.246-0.034,0.241-0.224
			c-0.012-0.57,0.006-1.14-0.01-1.708C54.09,2.911,53.8,2.603,53.308,2.56c-0.283-0.025-0.535,0.08-0.75,0.267
			c-0.061,0.052-0.114,0.168-0.219,0.058C51.856,2.382,51.372,2.504,50.838,2.924z M92.599,3.006
			c-0.019-0.397-0.29-0.282-0.496-0.296c-0.155-0.01-0.19,0.068-0.189,0.208c0.004,0.764,0.002,1.527,0.003,2.291
			c0,0.087-0.015,0.172,0.118,0.205c0.435,0.107,0.599-0.01,0.599-0.452c0-0.285-0.005-0.569,0.001-0.854
			c0.004-0.17,0.008-0.344,0.042-0.509c0.059-0.266,0.236-0.417,0.515-0.401c0.276,0.015,0.313,0.226,0.317,0.441
			c0.008,0.49,0.03,0.981,0.004,1.469c-0.018,0.32,0.149,0.307,0.373,0.31C94.118,5.419,94.26,5.409,94.25,5.1
			c-0.017-0.487-0.058-0.979,0.031-1.465c0.051-0.279,0.225-0.462,0.521-0.435c0.304,0.026,0.322,0.28,0.325,0.515
			c0.006,0.489,0.016,0.98-0.003,1.469c-0.01,0.264,0.148,0.247,0.304,0.223c0.157-0.023,0.424,0.139,0.42-0.213
			c-0.006-0.581,0.014-1.163-0.02-1.743c-0.038-0.664-0.648-0.998-1.254-0.716c-0.39,0.181-0.413,0.18-0.767,0.002
			c-0.167-0.084-0.344-0.101-0.531-0.083C93.015,2.679,92.82,2.832,92.599,3.006z M38.249,9.819
			c-0.034,0.244,0.036,0.577,0.192,0.885c0.331,0.655,0.87,0.952,1.604,0.931c0.644-0.017,1.113-0.291,1.375-0.88
			c0.056-0.125,0.25-0.341-0.053-0.392c-0.208-0.035-0.476-0.386-0.654,0.082c-0.155,0.406-0.401,0.533-0.825,0.514
			c-0.371-0.016-0.635-0.204-0.752-0.584c-0.15-0.489-0.169-0.991,0.042-1.465c0.253-0.571,1.132-0.678,1.425-0.152
			c0.172,0.31,0.34,0.26,0.595,0.213c0.297-0.055,0.312-0.178,0.196-0.417c-0.37-0.767-1.459-1.051-2.279-0.575
			C38.448,8.364,38.244,8.988,38.249,9.819z M52.909,11.255c-0.001,0.503,0.33,0.269,0.522,0.302
			c0.247,0.042,0.187-0.17,0.188-0.302c0.004-1.036-0.01-2.072,0.01-3.107c0.006-0.322-0.142-0.331-0.39-0.34
			c-0.278-0.011-0.388,0.063-0.363,0.356c0.024,0.297,0.005,0.599,0.005,0.938c-0.092-0.055-0.13-0.076-0.166-0.1
			c-0.679-0.442-1.43-0.183-1.689,0.589c-0.095,0.284-0.095,0.579-0.066,0.875c0.047,0.489,0.247,0.88,0.707,1.085
			C52.111,11.75,52.509,11.616,52.909,11.255z M69.505,9.186c-0.101-0.067-0.154-0.104-0.209-0.139
			c-0.648-0.398-1.418-0.104-1.637,0.626c-0.062,0.208-0.087,0.422-0.08,0.641c0.015,0.529,0.162,0.996,0.659,1.265
			c0.477,0.259,0.897,0.091,1.304-0.272c-0.027,0.478,0.296,0.308,0.506,0.321c0.283,0.017,0.181-0.212,0.182-0.344
			c0.008-1.024-0.006-2.05,0.011-3.074c0.005-0.281-0.111-0.32-0.343-0.309c-0.222,0.01-0.437-0.032-0.399,0.321
			C69.53,8.522,69.505,8.828,69.505,9.186z M76.157,9.755c0.017-0.292,0.023-0.576,0.171-0.834c0.297-0.515,1.116-0.612,1.405-0.124
			c0.178,0.3,0.349,0.296,0.623,0.227c0.235-0.06,0.28-0.143,0.177-0.369c-0.415-0.904-1.852-1.109-2.6-0.362
			c-0.714,0.712-0.74,2.17-0.053,2.909c0.787,0.845,2.302,0.593,2.702-0.453c0.03-0.079,0.124-0.2,0.036-0.247
			c-0.177-0.095-0.376-0.161-0.574-0.201c-0.167-0.034-0.135,0.152-0.179,0.238c-0.184,0.358-0.439,0.524-0.813,0.506
			c-0.385-0.019-0.66-0.227-0.792-0.593C76.176,10.225,76.176,9.985,76.157,9.755z M90.001,9.173
			c-1.098-0.753-1.953,0.076-1.925,0.977c0.002,0.068-0.001,0.136,0,0.204c0.012,0.52,0.176,0.965,0.657,1.228
			c0.469,0.255,0.875,0.084,1.251-0.223c0.007-0.004,0.022,0,0.052,0c-0.011,0.433,0.315,0.263,0.522,0.266
			c0.274,0.004,0.154-0.232,0.155-0.361c0.011-0.92,0.019-1.842-0.002-2.762c-0.005-0.231,0.216-0.646-0.343-0.6
			c-0.445,0.036-0.357-0.059-0.366,0.615C90,8.719,90.001,8.922,90.001,9.173z M50.566,11.584c-0.223-0.491-0.148-0.957-0.149-1.417
			c0-0.206,0.009-0.41-0.008-0.614c-0.032-0.383-0.234-0.627-0.577-0.71c-0.358-0.087-0.72-0.098-1.078,0.004
			c-0.29,0.083-0.492,0.274-0.591,0.563c-0.019,0.053-0.093,0.147,0.017,0.16c0.23,0.025,0.474,0.263,0.692-0.059
			c0.155-0.227,0.408-0.16,0.625-0.104c0.118,0.03,0.156,0.161,0.164,0.276c0.007,0.137-0.106,0.152-0.208,0.178
			c-0.317,0.081-0.643,0.141-0.95,0.252c-0.376,0.136-0.533,0.465-0.471,0.88c0.051,0.342,0.366,0.613,0.738,0.64
			c0.278,0.02,0.542-0.014,0.779-0.18c0.058-0.04,0.14-0.145,0.199-0.051C49.959,11.73,50.261,11.491,50.566,11.584z M44.466,11.589
			c-0.044-0.276-0.139-0.473-0.135-0.694c0.01-0.432,0.001-0.864,0.004-1.296c0.002-0.268-0.086-0.488-0.314-0.643
			c-0.394-0.266-1.294-0.239-1.657,0.057c-0.152,0.125-0.319,0.299-0.277,0.481c0.047,0.197,0.305,0.117,0.467,0.169
			c0.117,0.037,0.163-0.019,0.213-0.108c0.143-0.254,0.385-0.204,0.606-0.17c0.136,0.021,0.2,0.138,0.209,0.276
			c0.01,0.159-0.104,0.174-0.22,0.202c-0.307,0.075-0.62,0.138-0.917,0.243c-0.356,0.126-0.547,0.48-0.496,0.839
			c0.053,0.366,0.364,0.654,0.74,0.686c0.278,0.021,0.543-0.01,0.783-0.171c0.063-0.043,0.168-0.143,0.203-0.077
			C43.867,11.756,44.183,11.473,44.466,11.589z M56.617,11.575c-0.214-0.57-0.134-1.115-0.127-1.657
			c0.012-0.865-0.305-1.168-1.175-1.144c-0.157,0.005-0.318,0.028-0.471,0.068c-0.291,0.077-0.502,0.258-0.608,0.546
			c-0.019,0.051-0.046,0.118-0.027,0.157c0.059,0.119,0.609,0.149,0.675,0.03c0.155-0.277,0.398-0.215,0.631-0.188
			c0.153,0.018,0.183,0.153,0.198,0.28c0.017,0.138-0.084,0.165-0.189,0.19c-0.31,0.074-0.623,0.133-0.922,0.236
			c-0.393,0.134-0.565,0.47-0.499,0.895c0.058,0.367,0.37,0.625,0.766,0.645c0.281,0.014,0.542-0.033,0.774-0.201
			c0.047-0.034,0.116-0.124,0.167-0.039C56.018,11.733,56.323,11.49,56.617,11.575z M31.894,10.205
			c-0.001,0.895,0.526,1.428,1.411,1.428c0.796,0,1.384-0.596,1.389-1.41c0.005-0.82-0.6-1.447-1.4-1.45
			C32.468,8.771,31.896,9.355,31.894,10.205z M38.729,3.996c0.001-0.835-0.586-1.443-1.391-1.441
			c-0.813,0.002-1.413,0.613-1.41,1.435c0.004,0.862,0.551,1.418,1.4,1.422C38.163,5.415,38.729,4.843,38.729,3.996z M87.656,11.652
			c-0.088-0.277-0.147-0.497-0.146-0.725c0.001-0.227,0.01-0.454,0.014-0.681c0.005-0.26,0.012-0.52-0.036-0.781
			c-0.037-0.194-0.135-0.333-0.293-0.437c-0.35-0.227-1.234-0.215-1.576,0.018c-0.155,0.106-0.261,0.251-0.327,0.425
			c-0.023,0.062-0.046,0.161,0.043,0.167c0.214,0.016,0.444,0.237,0.642-0.06c0.143-0.216,0.374-0.181,0.589-0.136
			c0.158,0.033,0.208,0.163,0.219,0.307c0.013,0.167-0.124,0.163-0.229,0.191c-0.308,0.081-0.619,0.145-0.919,0.244
			c-0.346,0.115-0.492,0.391-0.485,0.741c0.005,0.356,0.191,0.6,0.528,0.716c0.344,0.119,0.67,0.061,0.979-0.125
			c0.063-0.038,0.162-0.149,0.198-0.079C87.045,11.8,87.356,11.561,87.656,11.652z M56.3,4.209c0.125,0,0.25,0,0.376,0
			c0.584,0.001,0.619-0.042,0.497-0.615c-0.131-0.619-0.562-0.999-1.183-1.041c-0.541-0.037-1.048,0.307-1.231,0.845
			c-0.147,0.436-0.144,0.872,0.034,1.3c0.177,0.427,0.505,0.665,0.962,0.709c0.513,0.049,0.98-0.042,1.28-0.523
			c0.049-0.079,0.145-0.168,0.059-0.272c-0.112-0.137-0.645-0.106-0.756,0.038c-0.245,0.312-0.688,0.251-0.849-0.121
			c-0.08-0.187-0.111-0.353,0.197-0.325C55.889,4.223,56.096,4.208,56.3,4.209z M43.599,4.212c0,0,0-0.001,0-0.002
			c0.227,0,0.455-0.007,0.682,0.002c0.162,0.006,0.233-0.054,0.216-0.218c-0.013-0.112-0.014-0.227-0.031-0.338
			c-0.082-0.541-0.424-0.934-0.895-1.047c-0.552-0.132-1.015,0.001-1.36,0.463c-0.375,0.5-0.352,1.435,0.039,1.924
			c0.502,0.628,1.668,0.565,2.073-0.114c0.045-0.077,0.12-0.157,0.074-0.25c-0.07-0.143-0.658-0.142-0.76,0.003
			c-0.115,0.165-0.26,0.265-0.46,0.215c-0.223-0.056-0.372-0.193-0.435-0.43c-0.04-0.151-0.023-0.211,0.141-0.208
			C43.121,4.216,43.36,4.212,43.599,4.212z M81.604,11.667c-0.126-0.315-0.163-0.571-0.159-0.834
			c0.007-0.386,0.011-0.773,0.006-1.16c-0.003-0.306-0.11-0.574-0.413-0.687c-0.46-0.172-0.935-0.179-1.396,0.012
			c-0.197,0.081-0.32,0.249-0.404,0.443c-0.027,0.061-0.065,0.123-0.007,0.186c0.105,0.113,0.554,0.11,0.646-0.02
			c0.153-0.215,0.359-0.208,0.58-0.172c0.158,0.025,0.231,0.125,0.253,0.278c0.025,0.178-0.099,0.202-0.226,0.233
			c-0.277,0.064-0.557,0.119-0.827,0.204c-0.408,0.128-0.627,0.47-0.575,0.853c0.054,0.384,0.358,0.661,0.771,0.695
			c0.281,0.023,0.539-0.045,0.774-0.206c0.055-0.038,0.139-0.153,0.191-0.045C81.006,11.833,81.319,11.531,81.604,11.667z
			 M92.919,11.377c0.117,0.406,0.454,0.286,0.674,0.233c0.25-0.06-0.015-0.268,0.003-0.417c0.023-0.176-0.023-0.36-0.027-0.541
			c-0.009-0.375,0.05-0.748-0.003-1.123c-0.029-0.205-0.107-0.365-0.279-0.482c-0.355-0.242-1.246-0.241-1.603,0.003
			c-0.156,0.106-0.26,0.251-0.325,0.426c-0.018,0.048-0.059,0.098-0.006,0.152c0.105,0.11,0.571,0.093,0.674-0.039
			c0.171-0.221,0.394-0.19,0.62-0.141c0.146,0.031,0.19,0.153,0.207,0.281c0.021,0.157-0.099,0.182-0.213,0.209
			c-0.287,0.068-0.578,0.122-0.858,0.212c-0.427,0.138-0.616,0.463-0.553,0.894c0.052,0.354,0.363,0.617,0.765,0.652
			C92.345,11.729,92.638,11.597,92.919,11.377z M74.416,4.047c-0.004-0.829-0.601-1.416-1.427-1.404
			c-0.792,0.012-1.363,0.598-1.367,1.401C71.62,4.913,72.19,5.488,73.047,5.48C73.838,5.472,74.418,4.864,74.416,4.047z
			 M47.756,2.979c0.064-0.453-0.214-0.353-0.426-0.36c-0.146-0.005-0.263-0.001-0.261,0.206c0.008,0.774,0.003,1.549,0.004,2.323
			c0,0.09-0.011,0.169,0.123,0.198c0.48,0.104,0.612-0.002,0.626-0.488c0.012-0.453-0.069-0.911,0.057-1.357
			c0.083-0.291,0.308-0.384,0.584-0.347c0.253,0.034,0.316,0.228,0.319,0.451c0.004,0.421,0,0.842,0.008,1.263
			c0.012,0.522-0.121,0.464,0.497,0.481c0.2,0.005,0.251-0.063,0.247-0.253c-0.011-0.569,0.001-1.139-0.008-1.708
			c-0.006-0.437-0.225-0.681-0.651-0.792C48.452,2.484,48.122,2.652,47.756,2.979z M90.561,4.261
			C90.561,4.261,90.561,4.261,90.561,4.261c0.057,0,0.114,0,0.171,0c0.778,0,0.874-0.148,0.566-0.894
			c-0.201-0.486-0.589-0.707-1.097-0.722c-0.512-0.015-0.911,0.202-1.131,0.668c-0.225,0.475-0.227,0.97-0.03,1.458
			c0.181,0.447,0.539,0.661,1.004,0.702c0.482,0.043,0.904-0.073,1.195-0.496c0.057-0.083,0.136-0.175,0.098-0.277
			c-0.044-0.12-0.659-0.124-0.736-0.002c-0.127,0.201-0.304,0.274-0.524,0.218c-0.216-0.055-0.343-0.214-0.402-0.424
			c-0.041-0.144-0.02-0.242,0.171-0.233C90.083,4.27,90.322,4.261,90.561,4.261z M82.447,4.261
			C82.447,4.261,82.447,4.261,82.447,4.261c0.091,0,0.182,0,0.272,0c0.717,0,0.766-0.07,0.539-0.772
			c-0.174-0.541-0.6-0.844-1.186-0.846c-0.545,0-0.992,0.32-1.16,0.839C80.8,3.837,80.792,4.201,80.886,4.56
			c0.222,0.85,1.287,1.22,2.002,0.701c0.15-0.109,0.265-0.249,0.343-0.417c0.026-0.057,0.066-0.121-0.016-0.178
			c-0.172-0.121-0.602-0.062-0.75,0.109c-0.146,0.169-0.33,0.202-0.526,0.121c-0.215-0.089-0.343-0.256-0.358-0.498
			c-0.008-0.137,0.089-0.137,0.183-0.137C81.991,4.26,82.219,4.261,82.447,4.261z M100.193,3.047c0.018-0.482-0.3-0.317-0.503-0.332
			c-0.279-0.02-0.18,0.208-0.182,0.34C99.5,3.737,99.517,4.42,99.498,5.101c-0.008,0.263,0.074,0.338,0.325,0.315
			c0.212-0.018,0.428,0.049,0.409-0.31c-0.025-0.464-0.006-0.932,0.023-1.396c0.021-0.328,0.271-0.54,0.563-0.517
			c0.327,0.026,0.398,0.259,0.401,0.531c0.005,0.398,0.005,0.796,0.005,1.193c0.001,0.53,0.033,0.558,0.553,0.494
			c0.102-0.013,0.178-0.03,0.175-0.153c-0.02-0.657,0.053-1.318-0.043-1.974c-0.051-0.346-0.274-0.535-0.603-0.611
			C100.894,2.578,100.547,2.71,100.193,3.047z M76.751,5.014c-0.075,0.523,0.231,0.372,0.427,0.398
			c0.251,0.034,0.235-0.134,0.234-0.301c-0.002-0.707-0.013-1.413,0.005-2.12c0.007-0.272-0.123-0.304-0.331-0.28
			c-0.183,0.02-0.426-0.088-0.41,0.273c0.021,0.477,0.009,0.958-0.014,1.434c-0.016,0.321-0.236,0.514-0.533,0.513
			c-0.325-0.002-0.429-0.206-0.432-0.494c-0.006-0.501-0.02-1.002-0.017-1.503c0.003-0.291-0.202-0.227-0.356-0.218
			c-0.142,0.008-0.369-0.109-0.365,0.198c0.007,0.581-0.014,1.163,0.014,1.743c0.029,0.604,0.542,0.945,1.132,0.79
			C76.332,5.387,76.518,5.267,76.751,5.014z M98.065,4.261c0.08,0,0.16,0,0.239,0c0.74,0,0.783-0.065,0.532-0.797
			c-0.181-0.527-0.592-0.814-1.167-0.819c-0.544-0.004-0.988,0.313-1.167,0.826c-0.11,0.32-0.113,0.651-0.06,0.977
			c0.093,0.572,0.454,0.921,1.003,1.015c0.574,0.098,1.086-0.11,1.329-0.544c0.04-0.071,0.129-0.148,0.048-0.237
			c-0.122-0.133-0.633-0.085-0.754,0.069c-0.138,0.175-0.314,0.223-0.516,0.156c-0.224-0.075-0.349-0.239-0.382-0.477
			c-0.021-0.147,0.061-0.171,0.18-0.17C97.588,4.263,97.826,4.261,98.065,4.261z M45.747,9.176c0.003-0.517-0.336-0.315-0.543-0.324
			c-0.263-0.01-0.166,0.225-0.168,0.36c-0.009,0.66,0.011,1.319-0.011,1.978c-0.011,0.296,0.064,0.393,0.373,0.385
			c0.281-0.007,0.397-0.047,0.384-0.368c-0.02-0.463-0.052-0.931,0.04-1.394c0.061-0.306,0.243-0.451,0.547-0.446
			c0.303,0.005,0.372,0.214,0.379,0.462c0.011,0.409,0.02,0.817,0.021,1.226c0.004,0.556,0,0.55,0.539,0.512
			c0.143-0.01,0.205-0.049,0.202-0.197c-0.014-0.625-0.009-1.25-0.033-1.874c-0.014-0.361-0.24-0.57-0.578-0.671
			C46.472,8.697,46.121,8.846,45.747,9.176z M58.479,2.931c-0.024-0.474-0.356-0.308-0.579-0.3
			c-0.257,0.007-0.145,0.242-0.148,0.374c-0.012,0.682-0.008,1.365-0.004,2.048c0.001,0.094-0.052,0.247,0.069,0.269
			c0.199,0.034,0.42,0.054,0.607-0.003c0.135-0.041,0.053-0.244,0.06-0.374c0.026-0.464-0.05-0.934,0.062-1.394
			c0.069-0.284,0.255-0.413,0.547-0.402c0.29,0.011,0.358,0.203,0.365,0.438c0.014,0.42,0.023,0.841,0.026,1.261
			c0.004,0.543,0.01,0.544,0.55,0.5c0.154-0.013,0.191-0.075,0.189-0.21c-0.011-0.614-0.004-1.229-0.032-1.842
			c-0.017-0.378-0.229-0.583-0.595-0.694C59.167,2.473,58.827,2.65,58.479,2.931z M86.597,3.083
			c0.054-0.505-0.258-0.358-0.467-0.369c-0.272-0.015-0.193,0.199-0.194,0.339c-0.006,0.706,0.009,1.412-0.006,2.117
			c-0.006,0.345,0.23,0.229,0.398,0.239c0.161,0.01,0.344,0.062,0.33-0.233c-0.022-0.442-0.013-0.887,0.003-1.33
			c0.014-0.408,0.234-0.653,0.553-0.654c0.295-0.001,0.439,0.188,0.45,0.637c0.011,0.455,0.014,0.911-0.001,1.365
			c-0.008,0.267,0.167,0.234,0.315,0.212c0.146-0.02,0.398,0.137,0.395-0.198c-0.006-0.603,0.005-1.206-0.016-1.809
			c-0.013-0.401-0.25-0.644-0.641-0.728C87.298,2.582,86.958,2.725,86.597,3.083z M82.882,9.265
			c0.008-0.462-0.304-0.332-0.524-0.327c-0.274,0.007-0.154,0.236-0.156,0.366c-0.011,0.683,0.012,1.368-0.012,2.05
			c-0.012,0.315,0.165,0.279,0.361,0.28c0.198,0.001,0.372,0.033,0.361-0.282c-0.017-0.487-0.052-0.98,0.036-1.466
			c0.054-0.306,0.291-0.501,0.569-0.471c0.302,0.033,0.389,0.249,0.394,0.509c0.008,0.444,0.03,0.891-0.002,1.332
			c-0.023,0.333,0.107,0.425,0.4,0.375c0.125-0.021,0.328,0.089,0.325-0.169c-0.008-0.637,0.041-1.276-0.03-1.912
			c-0.043-0.373-0.264-0.582-0.636-0.659C83.553,8.805,83.21,8.95,82.882,9.265z M72.721,11.298
			c-0.104,0.496,0.236,0.299,0.421,0.333c0.248,0.044,0.238-0.127,0.237-0.296c-0.003-0.706-0.016-1.413,0.005-2.118
			c0.01-0.311-0.166-0.29-0.365-0.285c-0.187,0.006-0.392-0.053-0.377,0.273c0.021,0.478,0.008,0.957-0.012,1.434
			c-0.013,0.304-0.248,0.515-0.533,0.512c-0.324-0.003-0.43-0.207-0.433-0.494c-0.007-0.5-0.022-1.001-0.017-1.502
			c0.003-0.294-0.205-0.224-0.356-0.215c-0.139,0.008-0.368-0.117-0.364,0.194c0.007,0.569-0.018,1.14,0.01,1.708
			c0.035,0.707,0.683,1.066,1.324,0.754C72.402,11.528,72.526,11.426,72.721,11.298z M35.669,11.553
			c0.358,0.109,0.401-0.089,0.388-0.394c-0.02-0.488,0.001-0.978-0.007-1.467c-0.003-0.182,0.041-0.288,0.244-0.257
			c0.231,0.035,0.259-0.094,0.252-0.283c-0.008-0.18,0.012-0.355-0.258-0.311c-0.248,0.039-0.248-0.12-0.229-0.294
			c0.03-0.264,0.231-0.206,0.391-0.198c0.156,0.008,0.237-0.036,0.231-0.203c-0.003-0.111,0.138-0.262-0.049-0.321
			c-0.624-0.196-1.42-0.029-1.324,0.778c0.012,0.105,0.036,0.251-0.149,0.236c-0.234-0.019-0.25,0.12-0.251,0.3
			c-0.001,0.183,0.02,0.316,0.252,0.297c0.184-0.015,0.149,0.129,0.149,0.237c0.002,0.512,0.013,1.023-0.003,1.535
			C35.299,11.473,35.343,11.639,35.669,11.553z M40.313,4.394c-0.181-0.493-0.371-0.893-0.472-1.315
			c-0.099-0.413-0.324-0.503-0.701-0.466c-0.199,0.019-0.229,0.06-0.153,0.241c0.318,0.776,0.632,1.554,0.933,2.337
			c0.078,0.201,0.228,0.156,0.362,0.148c0.153-0.009,0.342,0.088,0.434-0.15c0.303-0.783,0.619-1.56,0.927-2.34
			c0.027-0.069,0.076-0.147-0.013-0.211c-0.184-0.132-0.689,0.022-0.768,0.237C40.687,3.353,40.515,3.833,40.313,4.394z
			 M79.175,4.497c-0.198-0.546-0.376-1.047-0.56-1.545c-0.076-0.208-0.57-0.35-0.746-0.22c-0.075,0.056-0.041,0.12-0.016,0.181
			c0.317,0.79,0.635,1.58,0.955,2.369c0.084,0.21,0.271,0.117,0.416,0.125c0.125,0.007,0.267,0.049,0.338-0.137
			c0.307-0.793,0.626-1.583,0.939-2.375c0.022-0.056,0.069-0.119-0.025-0.172c-0.216-0.123-0.667,0.032-0.752,0.265
			C79.546,3.477,79.368,3.965,79.175,4.497z M61.699,1.678c-0.323,0.278-0.828,0.273-0.745,0.825
			c0.013,0.085-0.057,0.116-0.134,0.112c-0.237-0.011-0.203,0.16-0.203,0.305c0.001,0.133-0.03,0.294,0.183,0.29
			c0.18-0.003,0.158,0.121,0.158,0.232c0.002,0.399-0.008,0.797,0.005,1.194c0.025,0.663,0.497,0.959,1.128,0.733
			c0.269-0.096,0.125-0.299,0.142-0.456c0.022-0.195-0.12-0.139-0.229-0.122C61.771,4.829,61.7,4.698,61.7,4.495
			c0-0.318,0.012-0.637-0.004-0.955c-0.012-0.232,0.027-0.369,0.306-0.333c0.235,0.03,0.205-0.157,0.201-0.301
			c-0.002-0.127,0.042-0.313-0.18-0.283c-0.326,0.045-0.348-0.132-0.327-0.378C61.71,2.088,61.699,1.928,61.699,1.678z
			 M103.457,1.755c-0.337,0.276-0.817,0.284-0.734,0.819c0.013,0.079-0.037,0.133-0.119,0.129c-0.19-0.009-0.224,0.099-0.219,0.259
			c0.006,0.154-0.011,0.297,0.214,0.303c0.179,0.005,0.125,0.162,0.127,0.263c0.006,0.398-0.01,0.796,0.007,1.195
			c0.024,0.637,0.52,0.936,1.115,0.704c0.238-0.093,0.109-0.261,0.119-0.401c0.009-0.145-0.052-0.198-0.207-0.164
			c-0.226,0.051-0.308-0.067-0.304-0.284c0.007-0.319,0.009-0.637-0.001-0.956c-0.008-0.228-0.003-0.414,0.312-0.368
			c0.191,0.028,0.189-0.119,0.178-0.247c-0.01-0.12,0.063-0.317-0.164-0.292c-0.328,0.037-0.346-0.145-0.327-0.388
			C103.468,2.17,103.457,2.012,103.457,1.755z M45.727,2.921c-0.021-0.447-0.325-0.275-0.525-0.299
			c-0.26-0.03-0.178,0.18-0.18,0.305c-0.006,0.718,0.012,1.436-0.01,2.153c-0.009,0.292,0.15,0.28,0.338,0.26
			c0.174-0.019,0.432,0.115,0.415-0.256c-0.02-0.42-0.01-0.843,0.008-1.264c0.02-0.487,0.176-0.599,0.658-0.551
			c0.268,0.026,0.201-0.245,0.279-0.38c0.072-0.125,0.024-0.226-0.136-0.282C46.22,2.484,45.959,2.613,45.727,2.921z M84.576,3.02
			c-0.016-0.438-0.309-0.296-0.513-0.304c-0.276-0.008-0.174,0.219-0.176,0.352c-0.009,0.658,0.013,1.319-0.012,1.977
			c-0.01,0.304,0.08,0.38,0.378,0.377c0.287-0.001,0.367-0.08,0.354-0.362c-0.018-0.419-0.036-0.842,0.029-1.259
			c0.068-0.446,0.199-0.541,0.634-0.486c0.311,0.038,0.208-0.252,0.297-0.388c0.094-0.14-0.016-0.197-0.135-0.239
			C85.081,2.565,84.818,2.708,84.576,3.02z"/>
	</g>
	<g>
		<path fill-rule="evenodd" clip-rule="evenodd" fill="#FF0000" d="M127.701,39.46c0.028-0.811,0.055-1.621,0.086-2.431
			c0.03-0.804,0.067-1.609,0.098-2.413c0.011-0.263-0.156-0.422-0.419-0.393c-0.682,0.076-1.363,0.161-2.044,0.243
			c-0.729,0.087-1.457,0.177-2.185,0.263c-0.057,0.007-0.117,0.023-0.188-0.012c0.112-0.389,0.217-0.782,0.342-1.168
			c0.113-0.354,0.026-0.627-0.259-0.867c-1.421-1.198-2.836-2.403-4.254-3.607c-0.155-0.132-0.155-0.132,0.021-0.219
			c0.25-0.123,0.499-0.246,0.749-0.368c0.271-0.132,0.333-0.241,0.262-0.538c-0.088-0.374-0.189-0.745-0.286-1.116
			c-0.154-0.589-0.311-1.177-0.466-1.766c-0.011-0.044-0.031-0.089-0.008-0.155c0.377,0.083,0.757,0.164,1.136,0.248
			c0.444,0.098,0.888,0.198,1.333,0.294c0.329,0.072,0.508-0.035,0.6-0.359c0.103-0.367,0.202-0.735,0.309-1.126
			c0.061,0.068,0.105,0.115,0.146,0.163c0.627,0.733,1.254,1.467,1.881,2.201c0.078,0.09,0.156,0.178,0.264,0.234
			c0.246,0.127,0.472,0.011,0.504-0.265c0.04-0.348-0.063-0.682-0.122-1.018c-0.25-1.403-0.506-2.804-0.759-4.207
			c-0.004-0.022-0.001-0.046-0.001-0.073c0.075-0.009,0.123,0.042,0.177,0.07c0.377,0.196,0.748,0.405,1.13,0.593
			c0.342,0.168,0.571,0.084,0.746-0.255c0.498-0.967,0.994-1.936,1.491-2.904c0.03-0.058,0.061-0.115,0.092-0.174
			c0.076,0.03,0.085,0.102,0.112,0.155c0.489,0.946,0.974,1.894,1.46,2.84c0.231,0.45,0.425,0.522,0.883,0.295
			c0.402-0.199,0.792-0.42,1.194-0.635c0.035,0.049,0.015,0.093,0.008,0.136c-0.285,1.583-0.571,3.166-0.856,4.748
			c-0.025,0.14-0.035,0.282-0.017,0.424c0.036,0.283,0.266,0.399,0.517,0.261c0.112-0.061,0.191-0.157,0.272-0.251
			c0.627-0.734,1.254-1.467,1.881-2.201c0.034-0.04,0.07-0.077,0.125-0.137c0.102,0.372,0.199,0.721,0.294,1.071
			c0.107,0.394,0.265,0.489,0.663,0.4c0.756-0.167,1.513-0.333,2.269-0.499c0.05-0.011,0.103-0.017,0.18-0.028
			c-0.072,0.286-0.142,0.552-0.21,0.819c-0.188,0.721-0.38,1.44-0.563,2.163c-0.091,0.361-0.042,0.451,0.293,0.614
			c0.239,0.118,0.475,0.242,0.717,0.35c0.146,0.064,0.139,0.105,0.024,0.203c-1.041,0.878-2.078,1.761-3.116,2.642
			c-0.393,0.333-0.783,0.67-1.179,0.999c-0.263,0.218-0.344,0.481-0.245,0.808c0.121,0.4,0.236,0.803,0.361,1.235
			c-0.309-0.036-0.595-0.066-0.881-0.1c-1.174-0.14-2.35-0.283-3.524-0.422c-0.261-0.03-0.433,0.118-0.427,0.373
			c0.037,1.581,0.076,3.16,0.117,4.741c0.001,0.041,0.013,0.082,0.019,0.122C128.198,39.46,127.949,39.46,127.701,39.46z"/>
	</g>
	<text transform="matrix(1 0 0 1 235.3848 22.605)" fill="#FFFFFF" font-family="'MyriadPro-Regular'" font-size="8.6473">Canada</text>
	<g>
		<path fill-rule="evenodd" clip-rule="evenodd" fill="#FFFFFF" d="M262.91,16.999c0-0.405-0.001-0.81,0.002-1.214
			c0.001-0.074-0.021-0.094-0.095-0.094c-0.371,0.003-0.743,0.003-1.114,0c-0.074-0.001-0.095,0.024-0.095,0.095
			c0.002,0.807,0.002,1.614,0,2.42c-0.001,0.077,0.026,0.092,0.096,0.091c0.372-0.003,0.744-0.003,1.114,0
			c0.073,0,0.095-0.018,0.094-0.092C262.909,17.803,262.91,17.401,262.91,16.999z"/>
		<path fill-rule="evenodd" clip-rule="evenodd" fill="#FFFFFF" d="M259.004,16.999c0-0.405-0.002-0.81,0.002-1.214
			c0-0.074-0.021-0.094-0.095-0.094c-0.372,0.003-0.742,0.003-1.114,0c-0.074-0.001-0.095,0.024-0.095,0.095
			c0.002,0.807,0.002,1.614,0,2.42c0,0.077,0.025,0.092,0.097,0.091c0.371-0.003,0.741-0.003,1.114,0
			c0.072,0,0.093-0.018,0.093-0.092C259.002,17.803,259.004,17.401,259.004,16.999z"/>
		<path fill-rule="evenodd" clip-rule="evenodd" fill="#FFFFFF" d="M261.304,17.013c-0.122-0.031-0.116-0.102-0.085-0.185
			c0.012-0.031,0.02-0.064,0.029-0.095c0.034-0.115,0.034-0.115-0.083-0.089c-0.141,0.029-0.142,0.03-0.216-0.101
			c-0.021-0.038-0.034-0.031-0.059-0.003c-0.063,0.071-0.128,0.138-0.192,0.207c-0.018,0.018-0.038,0.037-0.065,0.021
			c-0.022-0.013-0.022-0.038-0.019-0.06c0.008-0.051,0.019-0.103,0.028-0.155c0.023-0.123,0.061-0.243,0.074-0.373
			c-0.051,0.009-0.081,0.032-0.114,0.053c-0.092,0.055-0.099,0.053-0.15-0.043c-0.047-0.092-0.095-0.185-0.149-0.292
			c-0.06,0.115-0.114,0.213-0.162,0.315c-0.029,0.061-0.063,0.065-0.118,0.033c-0.04-0.024-0.079-0.059-0.139-0.069
			c0.036,0.177,0.072,0.344,0.108,0.511c0.005,0.03,0.018,0.063-0.018,0.081s-0.058-0.009-0.077-0.031
			c-0.05-0.053-0.097-0.107-0.146-0.16c-0.071-0.079-0.075-0.08-0.115,0.018c-0.024,0.063-0.061,0.087-0.128,0.064
			c-0.027-0.01-0.059-0.015-0.088-0.02c-0.1-0.02-0.103-0.017-0.071,0.078c0.017,0.055,0.035,0.11,0.052,0.167
			c0.013,0.043,0.009,0.082-0.04,0.103c-0.05,0.022-0.04,0.046-0.004,0.077c0.103,0.087,0.201,0.181,0.31,0.265
			c0.093,0.072,0.159,0.143,0.087,0.268c-0.025,0.043-0.002,0.059,0.046,0.048c0.11-0.024,0.222-0.045,0.333-0.068
			c0.12-0.025,0.136-0.012,0.133,0.113c-0.004,0.113-0.009,0.227-0.016,0.34c-0.002,0.042,0.003,0.068,0.055,0.068
			c0.056,0,0.055-0.028,0.053-0.069c-0.006-0.119-0.01-0.238-0.014-0.357c-0.003-0.103,0.017-0.12,0.115-0.1
			c0.104,0.021,0.211,0.043,0.317,0.064c0.025,0.005,0.056,0.027,0.077,0.001c0.02-0.023-0.001-0.054-0.013-0.077
			c-0.034-0.077-0.024-0.131,0.046-0.188C261.025,17.262,261.155,17.142,261.304,17.013z"/>
	</g>
</g>
</svg>
