<?xml version="1.0" encoding="utf-8"?>
<!-- Generator: Adobe Illustrator 16.0.3, SVG Export Plug-In . SVG Version: 6.00 Build 0)  -->
<!DOCTYPE svg PUBLIC "-//W3C//DTD SVG 1.1//EN" "http://www.w3.org/Graphics/SVG/1.1/DTD/svg11.dtd">
<svg version="1.1" id="Layer_1" xmlns="http://www.w3.org/2000/svg" xmlns:xlink="http://www.w3.org/1999/xlink" x="0px" y="0px"
	 width="280px" height="280px" viewBox="0 0 280 280" enable-background="new 0 0 280 280" xml:space="preserve">
<g>
	<rect fill="#EEEEEE" width="280" height="281"/>
	<rect x="14" y="34" fill="#FFFFFF" width="251" height="246"/>
	<rect y="10" fill="#155889" width="280" height="26"/>
	
		<text transform="matrix(1 0 0 1 8.3481 26.6763)" fill="#FFFFFF" font-family="'AlphaRuler'" font-size="14.6095" text-decoration=" underline">Web Experience Toolkit</text>
	<g>
		<rect x="155" y="17" fill="#FFFFFF" width="89" height="12"/>
		<g>
			<g>
				<g>
					<g>
						<g opacity="0.85">
							<g opacity="0.9">
								<path fill="#D3D3D3" d="M155.095,25.381c0.125-0.588,0.268-1.089,0.433-1.488c0.001-1.126,0.002-2.245,0.003-3.371
									c-0.001-0.458-0.003-0.913-0.005-1.367c-0.063,1.032-0.126,2.055-0.188,3.071C155.256,23.284,155.175,24.335,155.095,25.381
									z"/>
								<path fill="#D3D3D3" d="M173.803,30.182c-2.599-0.462-8.056-0.517-13.185-0.726
									C165.138,29.787,169.551,30.059,173.803,30.182z"/>
								<path fill="#D3D3D3" d="M190.148,27.183c-0.464-0.064-0.916-0.135-1.354-0.217c-2.395,0.059-4.781,0.117-7.167,0.174
									c0.508,0.048,1.006,0.095,1.514,0.144L190.148,27.183z"/>
								<path fill="#D3D3D3" d="M155.95,25.642c0.004,0.407,0.008,0.817,0.012,1.231c-0.002,0.298-0.004,0.598-0.006,0.9
									c0.987,0.026,1.99,0.053,3.001,0.08c1.343,0.046,2.697,0.092,4.056,0.139c2.716,0.103,5.447,0.205,8.129,0.306
									c5.367,0.166,10.555,0.186,15.09-0.345c-1.55-0.242-3.231-0.451-4.954-0.647c-5.067,0.043-10.134,0.086-15.192,0.129
									l-4.568,0.025l-4.381-0.018l-0.844-0.006c0.013-1.516,0.026-3.031,0.04-4.543c-0.313,0.11-0.579,0.452-0.805,0.999
									c-0.006,1.444-0.012,2.887-0.018,4.326l1.027,0.007c-0.287-0.053-0.576-0.106-0.873-0.161
									c0.052-0.369,0.105-0.743,0.159-1.123l0.068-0.499C155.911,26.179,155.931,25.911,155.95,25.642z"/>
								<path fill="#D3D3D3" d="M180.124,27.178c-4.68,0.113-9.361,0.212-14.039,0.258c5.059-0.043,10.125-0.086,15.192-0.129
									C180.896,27.264,180.511,27.221,180.124,27.178z"/>
								<path fill="#D3D3D3" d="M167.489,29.448c-2.034-0.082-3.91-0.272-5.737-0.5c-0.91-0.121-1.813-0.24-2.716-0.36
									c-0.874-0.123-1.909-0.247-2.499-0.362l-1.027-0.007c0.006-1.439,0.012-2.881,0.018-4.326
									c-0.165,0.399-0.308,0.9-0.433,1.488c-0.096,1.184-0.19,2.363-0.284,3.538c1.086,0.082,2.17,0.163,3.253,0.244l3.105,0.193
									C163.247,29.459,165.345,29.505,167.489,29.448z"/>
								<path fill="#D3D3D3" d="M160.618,29.456c-1.944-0.144-3.911-0.289-5.908-0.437c0.06-0.821,0.121-1.662,0.183-2.504
									c-0.104,0.703-0.192,1.571-0.268,2.589c0.473,0.036,0.961,0.073,1.463,0.112c0.518,0.031,1.048,0.062,1.589,0.094
									C158.63,29.357,159.618,29.407,160.618,29.456z"/>
								<path fill="#D3D3D3" d="M157.136,27.443l4.381,0.018l4.568-0.025C163.1,27.438,160.114,27.441,157.136,27.443z"/>
								<path fill="#D3D3D3" d="M197.498,27.066c-0.709-0.048-1.412-0.096-2.122-0.145c-1.355-0.001-2.707-0.002-4.057-0.003
									l-1.049,0.014l-1.476,0.033c0.438,0.083,0.89,0.153,1.354,0.217L197.498,27.066z"/>
								<path fill="#D3D3D3" d="M207.35,28.768c-0.308-0.057-0.62-0.115-0.931-0.172c-1.498,0-3.003,0-4.503,0
									C203.724,28.671,205.531,28.731,207.35,28.768z"/>
								<path fill="#D3D3D3" d="M156.445,22.856c-0.039,0.002-0.074,0.024-0.113,0.038c-0.014,1.512-0.027,3.027-0.04,4.543
									l0.844,0.006l-0.827-0.023L156.445,22.856z"/>
								<path fill="#D3D3D3" d="M206.419,28.596c5.927-0.011,11.838-0.068,17.745-0.192c-5.389-0.314-10.775-0.646-16.369-0.833
									c-3.417-0.086-6.868-0.278-10.297-0.504l-7.35,0.117C195.076,27.872,201.28,27.72,206.419,28.596z"/>
								<path fill="#D3D3D3" d="M183.142,27.284l-1.864,0.023c1.723,0.196,3.404,0.405,4.954,0.647
									c-4.535,0.531-9.723,0.51-15.09,0.345c-2.682-0.101-5.413-0.204-8.129-0.306c-1.358-0.047-2.713-0.093-4.056-0.139
									c-1.011-0.027-2.014-0.054-3.001-0.08c0.002-0.302,0.004-0.603,0.006-0.9c-0.004-0.414-0.008-0.824-0.012-1.231
									c-0.02,0.269-0.039,0.537-0.059,0.802l-0.068,0.499c-0.054,0.379-0.107,0.753-0.159,1.123
									c0.297,0.055,0.586,0.108,0.873,0.161c7.636,0.07,15.204,0.139,22.724,0.208c7.593,0.079,15.138,0.15,22.655,0.162
									C195.572,28.331,189.303,27.852,183.142,27.284z"/>
								<path fill="#D3D3D3" d="M190.148,27.183l-7.007,0.101c6.161,0.568,12.431,1.047,18.774,1.312c1.5,0,3.005,0,4.503,0
									C201.28,27.72,195.076,27.872,190.148,27.183z"/>
								<path fill="#D3D3D3" d="M183.142,27.284c-0.508-0.048-1.006-0.095-1.514-0.144l-1.504,0.038
									c0.387,0.043,0.771,0.086,1.153,0.129L183.142,27.284z"/>
								<path fill="#D3D3D3" d="M155.562,18.519l-0.036,0.636c0.002,0.454,0.004,0.909,0.005,1.367
									c-0.001,1.126-0.002,2.245-0.003,3.371c0.226-0.547,0.491-0.889,0.805-0.999c0.01-0.939,0.021-1.878,0.031-2.814l0.019-0.84
									l0.021-0.519l0.553,0.023l0.265,0.012l0.619,0.013l2.862,0.058c1.905,0.048,3.805,0.097,5.702,0.145
									c0.749-0.053,1.473-0.119,2.172-0.199c-2.263-0.092-4.532-0.213-6.804-0.354l-3.405-0.226
									c-0.563-0.04-1.196-0.08-1.493-0.122l-1.246-0.127L155.562,18.519z"/>
								<path fill="#D3D3D3" d="M181.628,27.14c-0.39-0.037-0.78-0.074-1.173-0.112c-0.559,0-1.119,0.001-1.685,0.001l1.354,0.148
									L181.628,27.14z"/>
								<path fill="#D3D3D3" d="M190.271,26.933c-0.516,0.007-1.025,0.014-1.543,0.021c0.019,0.003,0.042,0.007,0.067,0.012
									L190.271,26.933z"/>
								<path fill="#D3D3D3" d="M188.795,26.966c-0.025-0.004-0.049-0.008-0.067-0.012c-2.732,0.024-5.48,0.049-8.272,0.074
									c0.393,0.038,0.783,0.075,1.173,0.112C184.014,27.083,186.4,27.024,188.795,26.966z"/>
								<path fill="#D3D3D3" d="M156.445,22.856l-0.137,4.564l0.827,0.023c2.979-0.002,5.964-0.005,8.949-0.007
									c4.678-0.046,9.359-0.146,14.039-0.258l-1.354-0.148c-3.488-0.001-7.059-0.042-10.787-0.155
									c-4.088,0.033-7.639,0.062-11.221,0.091c0.007-1.062,0.015-2.127,0.022-3.224c0.014-0.854,0.028-1.719,0.043-2.602
									c0.01-0.441,0.021-0.887,0.03-1.337c0.006-0.311,0.013-0.222,0.019-0.291l0.021-0.109c-0.001-0.059-0.002-0.12-0.003-0.191
									c1.082-0.006,2.323-0.012,3.605-0.019c1.967-0.026,3.996-0.085,5.903-0.222c-1.897-0.048-3.797-0.097-5.702-0.145
									l-2.862-0.058l-0.619-0.013l-0.265-0.012l-0.553-0.023l-0.021,0.519l-0.019,0.84c-0.011,0.936-0.021,1.875-0.031,2.814
									C156.371,22.88,156.406,22.858,156.445,22.856z"/>
								<path fill="#D3D3D3" d="M189.1,17.085c-9.077,0.126-18.148,0.475-27.371,0.653c4.515,0.404,9.01,0.807,13.541,1.212
									c1.088,0.001,2.168,0.003,3.245,0.004c0.856-0.207,1.709-0.408,2.364-0.364c1.143,0.076,2.229,0.147,3.292,0.218
									c4.597-0.208,9.091-0.646,13.408-1.405C194.732,17.297,191.906,17.191,189.1,17.085z"/>
								<path fill="#D3D3D3" d="M173.554,18.923c1.147,0.118,2.352,0.251,3.598,0.335c0.146-0.029,0.299-0.06,0.456-0.091
									l-2.338-0.216C174.701,18.942,174.126,18.933,173.554,18.923z"/>
								<path fill="#D3D3D3" d="M201.902,17.558c-1.451-0.052-2.889-0.103-4.323-0.154c-4.317,0.759-8.812,1.198-13.408,1.405
									c3.634,0.233,6.967,0.405,11.044,0.443c2.252-0.154,3.196-1.318,5.208-1.181c7.051,0.477,15.925,1.479,23.146,0.433
									c3.087-0.121,6.445-0.252,9.866-0.387c1.71-0.072,3.436-0.145,5.15-0.216c0.856-0.041,1.711-0.082,2.559-0.122
									c0.726-0.045,1.446-0.089,2.159-0.133c0.14,1.978,0.275,3.901,0.404,5.723c0.154,1.931,0.328,3.747,0.529,5.394
									c-0.1-4.123-0.195-8.08-0.284-11.766c-7.983,0.168-15.325,0.323-22.287,0.469C214.792,17.573,208.29,17.618,201.902,17.558z
									"/>
								<path fill="#D3D3D3" d="M177.607,19.167c0.294-0.069,0.601-0.141,0.907-0.212c-1.077-0.001-2.157-0.002-3.245-0.004
									L177.607,19.167z"/>
								<path fill="#D3D3D3" d="M197.498,27.066l4.403-0.074c-2.183-0.023-4.361-0.047-6.525-0.071
									C196.086,26.97,196.789,27.018,197.498,27.066z"/>
								<path fill="#D3D3D3" d="M155.519,18.204l0.006,0.663c0.013-0.118,0.024-0.231,0.037-0.349l0.027-0.542L155.519,18.204z"/>
								<path fill="#D3D3D3" d="M155.147,29.572c-0.322-0.018-0.643-0.036-0.938-0.052c0.039-0.689,0.077-1.369,0.114-2.039
									c0.021-0.316,0.041-0.63,0.062-0.942l0.063-0.743c0.088-0.959,0.184-1.892,0.29-2.802s0.224-1.797,0.353-2.667
									c0.13-0.925,0.271-1.603,0.428-2.124l-0.004-0.371c2.083-0.032,4.151-0.063,6.214-0.095
									c-1.119-0.091-2.24-0.182-3.366-0.273c-1.151-0.085-2.309-0.171-3.472-0.257c-0.127,1.905-0.255,3.823-0.384,5.758
									c-0.056,0.957-0.111,1.918-0.167,2.883l-0.076,1.711l-0.072,1.977C154.5,29.549,154.823,29.561,155.147,29.572z"/>
								<path fill="#D3D3D3" d="M155.589,17.976l-0.027,0.542l0.065-0.573l1.246,0.127c0.297,0.042,0.931,0.082,1.493,0.122
									l3.405,0.226c2.271,0.141,4.541,0.262,6.804,0.354c0.173-0.02,0.349-0.041,0.516-0.06c1.323-0.091,2.83,0.042,4.463,0.209
									c0.572,0.009,1.147,0.019,1.716,0.027c-4.531-0.406-9.026-0.808-13.541-1.212c-2.063,0.032-4.131,0.063-6.214,0.095
									l0.004,0.371L155.589,17.976z"/>
								<path fill="#D3D3D3" d="M154.893,26.515c0.062-0.406,0.128-0.785,0.202-1.134c0.08-1.046,0.161-2.097,0.243-3.155
									c0.062-1.017,0.124-2.039,0.188-3.071l-0.001-0.288C155.313,21.427,155.102,23.985,154.893,26.515z"/>
								<path fill="#D3D3D3" d="M155.525,19.155l0.036-0.636c-0.013,0.118-0.024,0.23-0.037,0.349L155.525,19.155z"/>
								<path fill="#D3D3D3" d="M206.419,28.596c0.311,0.058,0.623,0.115,0.931,0.172c-1.818-0.037-3.626-0.097-5.434-0.172
									c-7.518-0.012-15.063-0.083-22.655-0.162c-7.52-0.069-15.088-0.138-22.724-0.208c0.59,0.115,1.625,0.239,2.499,0.362
									c0.903,0.12,1.806,0.239,2.716,0.36c1.827,0.228,3.703,0.417,5.737,0.5c-2.145,0.058-4.242,0.012-6.32-0.092l-3.105-0.193
									c-1.083-0.081-2.167-0.163-3.253-0.244c0.094-1.175,0.188-2.354,0.284-3.538c-0.074,0.349-0.141,0.728-0.202,1.134
									c-0.062,0.842-0.123,1.683-0.183,2.504c1.997,0.148,3.964,0.293,5.908,0.437c5.129,0.209,10.586,0.264,13.185,0.726
									c-4.252-0.123-8.665-0.395-13.185-0.726c-1-0.049-1.988-0.099-2.941-0.146c-0.541-0.032-1.071-0.063-1.589-0.094
									c-0.502-0.039-0.99-0.076-1.463-0.112c0.075-1.018,0.164-1.886,0.268-2.589c0.209-2.53,0.421-5.088,0.632-7.648
									l-0.006-0.663c-0.156,0.521-0.298,1.199-0.428,2.124c-0.129,0.87-0.246,1.757-0.353,2.667s-0.202,1.842-0.29,2.802
									l-0.063,0.743c-0.021,0.312-0.041,0.626-0.062,0.942c-0.037,0.67-0.075,1.35-0.114,2.039
									c0.296,0.016,0.616,0.034,0.938,0.052c-0.324-0.012-0.647-0.023-0.956-0.035l0.072-1.977l0.076-1.711
									c0.056-0.965,0.111-1.926,0.167-2.883c0.129-1.935,0.257-3.853,0.384-5.758c1.163,0.086,2.32,0.172,3.472,0.257
									c1.126,0.091,2.247,0.182,3.366,0.273c9.223-0.178,18.294-0.526,27.371-0.653c-5.673-0.205-11.293-0.407-16.948-0.61
									c-2.83-0.081-5.669-0.162-8.528-0.244c-1.431-0.032-2.866-0.064-4.309-0.097c-1.849-0.025-3.705-0.05-5.573-0.075
									c-0.023,3.052-0.049,6.167-0.073,9.323c-0.074,0.791-0.11,3.004-0.121,4.799c0.811,0,1.627,0.001,2.449,0.002
									c0.671-0.006,1.346-0.013,2.023-0.019c1.029-0.024,2.066-0.049,3.104-0.074c4.503-0.31,9.063,0.612,13.565,0.303
									c17.768-0.947,36.608-0.594,54.741,0.632c3.021,0.203,6.75-0.464,10.479-1.133c0.996-0.178,1.755-0.439,2.299-0.732
									c-6.197-0.088-12.122-0.412-18.043-0.757C218.257,28.528,212.346,28.584,206.419,28.596z"/>
								<path fill="#D3D3D3" d="M207.795,27.571c5.594,0.187,10.98,0.519,16.369,0.833c6.366-0.134,12.729-0.348,19.095-0.675
									c-0.083-0.333-0.431-0.606-0.992-0.743c-2.079-1.367-7.757,0.397-12.026,0.416c-9.3,0.04-18.886-0.261-28.339-0.409
									l-4.403,0.074C200.927,27.293,204.378,27.484,207.795,27.571z"/>
								<path fill="#D3D3D3" d="M242.207,29.161c0.844-0.458,1.169-0.995,1.052-1.432c-6.366,0.327-12.729,0.541-19.095,0.675
									C230.085,28.749,236.01,29.073,242.207,29.161z"/>
								<path fill="#A1A1A1" d="M190.214,27.193c-0.021-0.003-0.035-0.005-0.057-0.008c-0.045,0.003-0.095,0.006-0.138,0.008
									H190.214z"/>
								<path fill="#A1A1A1" d="M157.136,27.443l4.381,0.018l4.568-0.025C163.1,27.438,160.114,27.441,157.136,27.443z"/>
								<path fill="#A1A1A1" d="M195.786,26.95c-1.356-0.001-2.705-0.002-4.043-0.003c-0.188,0.002-0.364,0.005-0.544,0.007
									c-0.115,0.031-0.217,0.057-0.328,0.087c0.498,0.034,0.498,0.034,1.002,0.068c-0.603,0.027-1.162,0.051-1.677,0.074
									c2.437-0.039,4.87-0.078,7.302-0.116C196.927,27.027,196.354,26.989,195.786,26.95z"/>
								<path fill="#A1A1A1" d="M165.499,18.978c0.103-0.007,0.198-0.015,0.301-0.022c-0.109-0.003-0.216-0.006-0.321-0.009
									C165.481,18.957,165.496,18.967,165.499,18.978z"/>
								<path fill="#A1A1A1" d="M163.6,19.076c0.067-0.002,0.138-0.005,0.209-0.008c-0.012-0.048-0.066-0.108-0.124-0.169
									c-0.374-0.009-0.756-0.019-1.13-0.028C162.895,18.914,163.247,18.991,163.6,19.076z"/>
								<path fill="#A1A1A1" d="M207.35,28.768c-0.308-0.057-0.62-0.115-0.931-0.172c-1.498,0-3.003,0-4.503,0
									C203.724,28.671,205.531,28.731,207.35,28.768z"/>
								<path opacity="0.9" fill="#A1A1A1" d="M156.445,22.856l-0.137,4.564l0.827,0.023c2.979-0.002,5.964-0.005,8.949-0.007
									c4.678-0.046,9.359-0.146,14.039-0.258c-0.199-0.021-0.4-0.043-0.598-0.065c-0.68,0.042-1.374,0.077-2.076,0.095
									l0.621-0.111c-0.155-0.01-0.367-0.024-0.601-0.04c-1.92-0.023-3.876-0.047-5.874-0.071c-1.063,0.032-2.038,0.04-2.755-0.071
									l-0.441-0.011c-4.067,0.031-7.662,0.059-11.222,0.086c-0.014,0.069-0.04,0.135-0.071,0.2
									c-0.183-0.04-0.329-0.086-0.436-0.132c0.021-0.085,0.042-0.168,0.063-0.251c0.021-1.684,0.042-3.384,0.064-5.169
									c-0.121-0.3-0.34,0.833-0.441,0.258c-0.004-0.074-0.008-0.138-0.012-0.205c-0.005,0.402-0.01,0.801-0.014,1.204
									C156.371,22.88,156.406,22.858,156.445,22.856z"/>
								<path fill="#A1A1A1" d="M181.628,27.14c-0.294-0.028-0.59-0.056-0.877-0.083c-0.151,0.001-0.296,0.001-0.441,0.002
									l-0.783,0.054c0.197,0.021,0.398,0.043,0.598,0.065L181.628,27.14z"/>
								<path fill="#A1A1A1" d="M163.681,18.533l-4.362-0.272l-2.13-0.153l-1.562-0.162l-0.065,0.573l-0.036,0.636
									c0.002,0.454,0.004,0.909,0.005,1.367c-0.001,1.126-0.002,2.245-0.003,3.371c0.226-0.547,0.491-0.889,0.805-0.999
									c0.004-0.403,0.009-0.802,0.014-1.204c-0.021-0.399-0.014-0.728,0.011-1.007l0.021-1.327l0.024-0.634l0.651,0.027
									l0.466,0.015l0.85,0.016l3.391,0.072c0.255-0.026,0.519-0.016,0.795,0.02c0.374,0.009,0.756,0.019,1.13,0.028
									C163.553,18.762,163.423,18.613,163.681,18.533z"/>
								<path fill="#A1A1A1" d="M211.058,17.409c-0.045-0.007-0.088-0.013-0.128-0.019c-0.052,0.002-0.104,0.004-0.153,0.006
									C210.866,17.4,210.962,17.404,211.058,17.409z"/>
								<path opacity="0.9" fill="#AFAFAF" d="M189.34,17.083c-9.162,0.125-18.308,0.476-27.611,0.656
									c3.401,0.301,6.792,0.602,10.192,0.902c0.248,0.003,0.503,0.006,0.765,0.009c-0.124,0.011-0.238,0.02-0.34,0.029
									c0.318,0.029,0.633,0.059,0.947,0.088c0.126-0.104,0.18-0.227,0.133-0.373c0.892,0.213,3.14,0.058,2.782,0.495
									c-0.014,0.025-0.061,0.048-0.115,0.068l1.871,0.002c0.9-0.218,1.812-0.442,2.497-0.396c0.126,0.008,0.246,0.017,0.37,0.025
									c0.423,0.004,0.878,0.033,1.377,0.091l0.014,0.002c0.354-0.437-1.543-0.716-0.921-0.828c2.87-0.283,3.601,0.296,3.364,0.934
									c4.449-0.219,8.792-0.656,12.975-1.394C194.853,17.289,192.087,17.185,189.34,17.083z"/>
								<path opacity="0.9" fill="#ADADAD" d="M210.93,17.39c0.04,0.006,0.083,0.012,0.128,0.019
									c-0.096-0.004-0.191-0.009-0.281-0.013c-3.116,0.109-6.215,0.163-9.291,0.134c-1.288-0.046-2.566-0.092-3.846-0.138
									c-4.183,0.738-8.525,1.175-12.975,1.394l-0.019,0.049c3.292,0.206,6.409,0.354,10.151,0.389
									c2.254-0.155,5.469-0.473,7.483-0.336c7.055,0.475,11.825,0.106,19.047-0.939c3.974-0.007,7.763-0.024,11.456-0.091
									c1.846-0.048,3.668-0.095,5.479-0.142c0.904-0.036,1.806-0.072,2.707-0.108l2.508-0.138
									c0.089,1.266,0.178,2.533,0.268,3.807c0.103,1.333,0.22,2.67,0.353,4.015c-0.032-1.271-0.066-2.572-0.101-3.906
									c-0.021-1.421-0.043-2.877-0.065-4.369c-5.41,0.031-11.132,0.064-16.799,0.097C221.557,17.145,216.034,17.205,210.93,17.39z
									"/>
								<path fill="#A1A1A1" d="M175.888,19.008c0.445,0.041,0.893,0.082,1.334,0.123c0.245-0.057,0.49-0.114,0.742-0.172
									l-1.871-0.002C176.033,18.972,175.963,18.989,175.888,19.008z"/>
								<path fill="#A1A1A1" d="M156.867,19.448c0-0.067,0-0.138-0.001-0.21c-0.027-0.037-0.042-0.071-0.048-0.101
									c0.038-0.014,0.135,0.017,0.203,0.048c0.624-0.002,1.279-0.005,1.956-0.008l0.056-0.069c0,0,0.119,0.027,0.291,0.066
									c0.585-0.008,1.175-0.016,1.772-0.024c0.084-0.069,0.145-0.142,0.187-0.196c0.152-0.054,0.317-0.086,0.477-0.102
									l-3.391-0.072l-0.85-0.016l-0.466-0.015l-0.651-0.027l-0.024,0.634l-0.021,1.327c0.036-0.404,0.112-0.71,0.206-1.001
									C156.655,19.467,156.765,19.499,156.867,19.448z"/>
								<path fill="#A1A1A1" d="M164.802,18.595c0.366,0.083,0.592,0.215,0.677,0.352c0.105,0.003,0.212,0.006,0.321,0.009
									c0.787-0.054,1.554-0.12,2.288-0.201C166.998,18.701,165.899,18.648,164.802,18.595z"/>
								<path fill="#A1A1A1" d="M175.213,19.105c0.496,0.041,1.004,0.082,1.519,0.125c0.159-0.032,0.322-0.065,0.49-0.099
									c-0.441-0.041-0.889-0.082-1.334-0.123C175.704,19.045,175.467,19.076,175.213,19.105z"/>
								<path fill="#A1A1A1" d="M156.445,22.856c-0.039,0.002-0.074,0.024-0.113,0.038c-0.014,1.512-0.027,3.027-0.04,4.543
									l0.844,0.006l-0.827-0.023L156.445,22.856z"/>
								<path opacity="0.9" fill="#A1A1A1" d="M201.916,28.596c1.5,0,3.005,0,4.503,0c-5.113-0.87-11.272-0.727-16.188-1.4
									c-0.381,0.03-0.805,0.104-1.229,0.179c0.3-0.104,0.643-0.152,1.017-0.181c-0.07-0.001-0.148-0.003-0.219-0.005
									c-2.218,0.032-4.441,0.063-6.659,0.095C189.303,27.852,195.572,28.331,201.916,28.596z"/>
								<path opacity="0.9" fill="#CCCCCC" d="M206.419,28.596c0.311,0.058,0.623,0.115,0.931,0.172
									c-1.818-0.037-3.626-0.097-5.434-0.172c-7.518-0.012-15.063-0.083-22.655-0.162c-7.52-0.069-15.088-0.138-22.724-0.208
									c0.59,0.115,1.625,0.239,2.499,0.362c0.903,0.12,1.806,0.239,2.716,0.36c1.827,0.228,3.703,0.417,5.737,0.5
									c-2.145,0.058-4.242,0.012-6.32-0.092l-3.105-0.193c-1.083-0.081-2.167-0.163-3.253-0.244
									c0.094-1.175,0.188-2.354,0.284-3.538c-0.074,0.349-0.141,0.728-0.202,1.134c-0.062,0.842-0.123,1.683-0.183,2.504
									c1.997,0.148,3.964,0.293,5.908,0.437c4.244,0.172,8.707,0.241,11.592,0.522c3.274,0.103,6.571,0.177,10.07,0.01
									c0.685-0.047,1.606-0.134,2.503-0.108c0.742-0.047,1.522-0.07,2.342-0.077c0.96-0.198,2.573-0.119,3.418-0.177
									c1.896-0.129,3.764-0.021,5.575,0.138c0.18-0.01,0.359-0.02,0.533-0.03c0.473-0.085,1.745-0.028,2.673,0.162
									c0.964,0.01,1.932,0.019,2.895,0.029c0.216,0.003,0.424,0.006,0.633,0.009l2.531,0.046c0.322-0.082,0.678-0.058,1.074,0.021
									c7.835,0.172,15.677,0.534,23.392,1.055c3.022,0.204,6.751-0.463,10.479-1.131c1.024-0.184,1.794-0.454,2.341-0.757
									c-6.366-0.077-12.436-0.408-18.505-0.762C218.257,28.528,212.346,28.584,206.419,28.596z"/>
								<path fill="#A1A1A1" d="M163.428,29.655l-0.102,0.125c0.748,0.004,1.497,0.009,2.238,0.014
									C164.855,29.747,164.143,29.701,163.428,29.655z"/>
								<path fill="#A1A1A1" d="M183.142,27.284c2.218-0.032,4.441-0.063,6.659-0.095c-0.967-0.011-2.002-0.072-2.92-0.176
									l-5.253,0.128C182.136,27.188,182.634,27.235,183.142,27.284z"/>
								<path fill="#B8B8B8" d="M154.893,26.515c0.209-2.53,0.421-5.088,0.632-7.648l-0.006-0.663
									c-0.156,0.521-0.298,1.199-0.428,2.124c-0.129,0.87-0.246,1.757-0.353,2.667s-0.202,1.842-0.29,2.802l-0.063,0.743
									c-0.021,0.312-0.041,0.626-0.062,0.942c-0.037,0.67-0.075,1.35-0.114,2.039c0.296,0.016,0.616,0.034,0.938,0.052
									c-0.324-0.012-0.647-0.023-0.956-0.035l0.072-1.977l0.076-1.711c0.056-0.965,0.111-1.926,0.167-2.883
									c0.129-1.935,0.257-3.853,0.384-5.758c1.163,0.086,2.32,0.172,3.472,0.257c1.126,0.091,2.247,0.182,3.366,0.273
									c9.304-0.18,18.449-0.531,27.611-0.656c-7.938-0.3-15.763-0.602-23.717-0.815c-0.551,0.074-0.95,0.252-1.108,0.451
									c-1.542-0.238-3.114-0.376-4.709-0.452c-0.797-0.038-1.6-0.061-2.406-0.072c-1.171-0.002-2.347-0.004-3.529-0.006
									c0.026,6.458,0.188,7.175,0.014,13.656l1.933,0.075c0.37,0.128-0.687,0.112-1.152,0.16c1.221-0.004,2.432-0.009,3.648-0.013
									c1.468-0.169,2.997-0.436,4.841-0.43c-0.839-0.06-1.684-0.12-2.535-0.18c-1-0.049-1.988-0.099-2.941-0.146
									c-0.541-0.032-1.071-0.063-1.589-0.094c-0.502-0.039-0.99-0.076-1.463-0.112C154.7,28.086,154.789,27.218,154.893,26.515z"
									/>
								<path fill="#A1A1A1" d="M155.147,29.572c-0.322-0.018-0.643-0.036-0.938-0.052c0.039-0.689,0.077-1.369,0.114-2.039
									c0.021-0.316,0.041-0.63,0.062-0.942l0.063-0.743c0.088-0.959,0.184-1.892,0.29-2.802s0.224-1.797,0.353-2.667
									c0.13-0.925,0.271-1.603,0.428-2.124l-0.004-0.371c2.083-0.032,4.151-0.063,6.214-0.095
									c-1.119-0.091-2.24-0.182-3.366-0.273c-1.151-0.085-2.309-0.171-3.472-0.257c-0.127,1.905-0.255,3.823-0.384,5.758
									c-0.056,0.957-0.111,1.918-0.167,2.883l-0.076,1.711l-0.072,1.977C154.5,29.549,154.823,29.561,155.147,29.572z"/>
								<path fill="#A1A1A1" d="M160.618,29.456c0.852,0.061,1.696,0.121,2.535,0.18c0.099,0,0.19-0.001,0.286-0.001l-0.012,0.02
									c0.715,0.046,1.428,0.092,2.137,0.139c2.239,0.031,4.436,0.113,6.646,0.185C169.325,29.697,164.862,29.628,160.618,29.456z"
									/>
								<path fill="#A1A1A1" d="M195.786,26.95c0.568,0.039,1.141,0.077,1.712,0.116l3.348-0.057l-0.052-0.011
									C199.119,26.982,197.449,26.966,195.786,26.95z"/>
								<path opacity="0.9" fill="#C4C4C4" d="M224.164,28.403c6.5-0.136,12.994-0.358,19.502-0.696
									c-0.11-0.31-0.445-0.563-0.981-0.693c-0.873-0.575-2.385-0.595-4.16-0.425c-0.011,0.128,2.104-0.014,0.886,0.204
									c-0.737,0.257-2.485,0.445-3.993,0.344c-0.278-0.021-0.522-0.038-0.745-0.055l-0.311,0.042
									c-0.103,0.118-0.233,0.203-0.544,0.069c-1.088,0.132-6.938-0.23-7.934-0.226c0.017,0.001,4.699,0.46,4.721,0.462
									c-0.263,0.03-0.53,0.062-0.815,0.095c0.024-0.032,0.048-0.063,0.081-0.094c-0.297,0-0.589,0.001-0.887,0.002
									c-0.32,0.163-0.435,0.382-1.059,0.425c0.505,0.035,0.505,0.035,1.006,0.069c-0.738,0.256-2.249,0.154-3.256,0.086
									c0.233-0.289,1.243-0.222,1.744-0.188l-0.501-0.034c0.501,0.034,1.628-0.043,1.239-0.222
									c-0.286-0.135-1.052-0.045-1.631-0.004c-0.12,0.014-0.255,0.021-0.389,0.016c-0.039-0.001-0.073-0.002-0.109-0.004
									c0.036,0.001,0.07,0.002,0.109,0.004c0.109-0.004,0.243-0.01,0.389-0.016c0.204-0.023,0.353-0.071,0.353-0.137
									c-0.498-0.003-0.999-0.006-1.5-0.009c-0.078,0.025-0.165,0.048-0.255,0.069c0.12,0.013,0.255,0.03,0.399,0.056l-0.505-0.034
									l0.105-0.021c-1.073-0.104-1.462,0.252-2.471,0.321c0.582-0.104-0.166-0.3,0.254-0.415
									c-0.113-0.001-0.227-0.002-0.347-0.003c-0.511,0.072-1.059,0.095-1.628,0.093c-0.716,0.107-1.397,0.263-2.04,0.378
									c-0.089-0.266,0.356-0.35,0.894-0.417c-0.554-0.039-1.125-0.079-1.706-0.12c-0.396,0.195-0.332,0.331-1.709,0.366
									c0.1-0.123,0.134-0.279,0.279-0.395c-1.027-0.02-2.052-0.039-3.084-0.059c-0.198,0.024-0.402,0.048-0.603,0.073
									c-0.015,0.012-0.138,0.141-0.618,0.109c0.201-0.043,0.41-0.079,0.618-0.109v-0.002c-0.443-0.036-0.906-0.073-1.381-0.111
									l-5.187-0.104c0.024,0.023,0.058,0.045,0.103,0.063c0.059,0.011,0.118,0.022,0.185,0.035
									c-0.078-0.006-0.14-0.019-0.185-0.035c-0.76-0.118-1.123,0.242-1.946,0.044l0.502,0.034
									c-1.285-0.191-2.38-0.016-3.425,0.084c2.059,0.112,4.117,0.202,6.165,0.254C213.389,27.757,218.775,28.089,224.164,28.403z"
									/>
								<path fill="#A1A1A1" d="M200.708,27.266c0.188-0.034,0.339-0.061,0.703-0.126l-0.565-0.13l-3.348,0.057
									C198.569,27.133,199.643,27.2,200.708,27.266z"/>
								<path fill="#B3B3B3" d="M190.196,27.183c-0.01,0.001-0.028,0.002-0.039,0.002c0.021,0.003,0.035,0.005,0.057,0.008
									c0.015,0,0.035,0,0.051,0c0.168-0.013,0.333-0.018,0.484-0.006c-0.157,0.002-0.322,0.004-0.484,0.006l-0.033,0.002
									c4.915,0.673,11.074,0.53,16.188,1.4c5.927-0.011,11.838-0.068,17.745-0.192c-5.389-0.314-10.775-0.646-16.369-0.833
									c-2.048-0.052-4.106-0.142-6.165-0.254c-0.491,0.048-0.978,0.079-1.462,0.046c0.258-0.046,0.405-0.073,0.54-0.097
									c-1.065-0.066-2.139-0.133-3.21-0.2C195.066,27.105,192.633,27.144,190.196,27.183z"/>
								<path fill="#ADADAD" d="M242.669,29.166c0.846-0.469,1.148-1.02,0.997-1.458c-6.508,0.338-13.002,0.56-19.502,0.696
									C230.233,28.757,236.303,29.089,242.669,29.166z"/>
								<path fill="#DFDFDF" d="M155.589,17.976l-0.027,0.542l0.065-0.573l1.562,0.162l2.13,0.153l4.362,0.272
									c0.027-0.008,0.052-0.015,0.089-0.025c0.421-0.01,0.763,0.025,1.032,0.087c1.098,0.053,2.196,0.106,3.286,0.16
									c0.197-0.023,0.395-0.046,0.586-0.069c0.438-0.03,0.9-0.035,1.381-0.022c0.585-0.02,1.207-0.026,1.866-0.022
									c-3.4-0.301-6.791-0.601-10.192-0.902c-2.063,0.032-4.131,0.063-6.214,0.095l0.004,0.371L155.589,17.976z"/>
								<path fill="#A1A1A1" d="M155.525,19.155l0.036-0.636c-0.013,0.118-0.024,0.23-0.037,0.349L155.525,19.155z"/>
								<path fill="#A1A1A1" d="M167.489,29.448c-2.034-0.082-3.91-0.272-5.737-0.5c-0.91-0.121-1.813-0.24-2.716-0.36
									c-0.874-0.123-1.909-0.247-2.499-0.362l-1.027-0.007c0.006-1.439,0.012-2.881,0.018-4.326
									c-0.165,0.399-0.308,0.9-0.433,1.488c-0.096,1.184-0.19,2.363-0.284,3.538c1.086,0.082,2.17,0.163,3.253,0.244l3.105,0.193
									C163.247,29.459,165.345,29.505,167.489,29.448z"/>
								<path fill="#ADADAD" d="M155.95,25.642c0.004,0.407,0.008,0.817,0.012,1.231c-0.002,0.298-0.004,0.598-0.006,0.9
									c0.987,0.026,1.99,0.053,3.001,0.08c1.343,0.046,2.697,0.092,4.056,0.139c2.716,0.103,5.447,0.205,8.129,0.306
									c5.367,0.166,10.555,0.186,15.09-0.345c-1.55-0.242-3.231-0.451-4.954-0.647c-5.067,0.043-10.134,0.086-15.192,0.129
									l-4.568,0.025l-4.381-0.018l-0.844-0.006c0.013-1.516,0.026-3.031,0.04-4.543c-0.313,0.11-0.579,0.452-0.805,0.999
									c-0.006,1.444-0.012,2.887-0.018,4.326l1.027,0.007c-0.287-0.053-0.576-0.106-0.873-0.161
									c0.052-0.369,0.105-0.743,0.159-1.123l0.068-0.499C155.911,26.179,155.931,25.911,155.95,25.642z"/>
								<path fill="#CACACA" d="M180.124,27.178c-4.68,0.113-9.361,0.212-14.039,0.258c5.059-0.043,10.125-0.086,15.192-0.129
									C180.896,27.264,180.511,27.221,180.124,27.178z"/>
								<path fill="#A1A1A1" d="M186.881,27.012l-0.014-0.002c-2.024,0.016-4.058,0.032-6.116,0.047
									c0.287,0.027,0.583,0.055,0.877,0.083L186.881,27.012z"/>
								<path fill="#CCCCCC" d="M160.618,29.456c-1.944-0.144-3.911-0.289-5.908-0.437c0.06-0.821,0.121-1.662,0.183-2.504
									c-0.104,0.703-0.192,1.571-0.268,2.589c0.473,0.036,0.961,0.073,1.463,0.112c0.518,0.031,1.048,0.062,1.589,0.094
									C158.63,29.357,159.618,29.407,160.618,29.456z"/>
								<path fill="#A1A1A1" d="M183.142,27.284c-0.508-0.048-1.006-0.095-1.514-0.144l-1.504,0.038
									c0.387,0.043,0.771,0.086,1.153,0.129L183.142,27.284z"/>
								<path fill="#A1A1A1" d="M171.799,18.768c0.415,0.04,0.847,0.081,1.288,0.123c0.089-0.037,0.147-0.079,0.206-0.124
									c-0.314-0.029-0.629-0.059-0.947-0.088C172.109,18.704,171.937,18.732,171.799,18.768z"/>
								<path fill="#A1A1A1" d="M155.519,18.204l0.006,0.663c0.013-0.118,0.024-0.231,0.037-0.349l0.027-0.542L155.519,18.204z"/>
								<path fill="#A1A1A1" d="M154.893,26.515c0.062-0.406,0.128-0.785,0.202-1.134c0.08-1.046,0.161-2.097,0.243-3.155
									c0.062-1.017,0.124-2.039,0.188-3.071l-0.001-0.288C155.313,21.427,155.102,23.985,154.893,26.515z"/>
								<path fill="#CACACA" d="M155.095,25.381c0.125-0.588,0.268-1.089,0.433-1.488c0.001-1.126,0.002-2.245,0.003-3.371
									c-0.001-0.458-0.003-0.913-0.005-1.367c-0.063,1.032-0.126,2.055-0.188,3.071C155.256,23.284,155.175,24.335,155.095,25.381
									z"/>
								<path fill="#A1A1A1" d="M186.231,27.954c-4.535,0.531-9.723,0.51-15.09,0.345c-2.682-0.101-5.413-0.204-8.129-0.306
									c-1.358-0.047-2.713-0.093-4.056-0.139c-1.011-0.027-2.014-0.054-3.001-0.08c0.002-0.302,0.004-0.603,0.006-0.9
									c-0.004-0.414-0.008-0.824-0.012-1.231c-0.02,0.269-0.039,0.537-0.059,0.802l-0.068,0.499
									c-0.054,0.379-0.107,0.753-0.159,1.123c0.297,0.055,0.586,0.108,0.873,0.161c7.636,0.07,15.204,0.139,22.724,0.208
									c7.593,0.079,15.138,0.15,22.655,0.162c-6.344-0.265-12.613-0.744-18.774-1.312l-1.864,0.023
									C183,27.502,184.682,27.711,186.231,27.954z"/>
							</g>
						</g>
					</g>
				</g>
			</g>
		</g>
	</g>
	<rect y="36" fill="#104165" width="280" height="12"/>
	<g>
		<path fill="#E5EEEC" d="M276,27.198c0,0.865-0.687,1.802-1.55,1.802h-29.219c-0.864,0-1.231-0.938-1.231-1.802V18.85
			c0-0.865,0.367-1.85,1.231-1.85h29.219c0.863,0,1.55,0.985,1.55,1.85V27.198z"/>
		<g>
			<g>
				<g>
					<g>
						<path fill="#202020" d="M275.669,27.198c0.044,0.044,0.146,0.02,0.126-0.104l-0.173-0.087L275.669,27.198z"/>
						<path fill="#202020" d="M275.988,26.369c-0.084-0.145-0.23-0.312-0.39-0.218c0.166,0.144,0.097,0.178,0.295,0.333
							c0.02,0.123-0.056,0.215-0.119,0.194c0.044,0.043-0.038,0.191,0.07,0.258c0.134-0.16,0.139-0.364,0.028-0.576
							C275.911,26.314,275.956,26.358,275.988,26.369z"/>
						<path fill="#202020" d="M272.377,17.042l0.077,0.02C272.433,17.051,272.406,17.045,272.377,17.042z"/>
						<path fill="#202020" d="M264.912,16.947c0.057-0.004,0.08-0.021,0.083-0.037C264.943,16.922,264.899,16.933,264.912,16.947z"
							/>
						<path fill="#202020" d="M263.638,16.757c0.028,0.004,0.05,0.008,0.075,0.012C263.685,16.753,263.655,16.744,263.638,16.757z"
							/>
						<path fill="#202020" d="M272.377,17.042l-0.199-0.055C272.163,17.044,272.279,17.03,272.377,17.042z"/>
						<path fill="#202020" d="M275.571,24.708c0.009,0.042,0.024,0.076,0.046,0.108l-0.019-0.102L275.571,24.708z"/>
						<path fill="#202020" d="M275.817,17.464c0.002-0.002,0.05,0.056,0.05,0.056c0.029,0.003,0.061,0.004,0.093,0.001
							C275.96,17.521,275.819,17.46,275.817,17.464z"/>
						<path fill="#202020" d="M276.424,20.137c0.007-0.057-0.14-0.077-0.204-0.099c0.061,0.032,0.089,0.075,0.101,0.125
							C276.349,20.164,276.381,20.156,276.424,20.137z"/>
						<path fill="#202020" d="M276.166,24.141l0.021,0.071C276.181,24.193,276.173,24.165,276.166,24.141z"/>
						<path fill="#202020" d="M273.859,16.871c-0.004-0.022-0.013-0.041-0.022-0.053C273.837,16.836,273.846,16.854,273.859,16.871z
							"/>
						<path fill="#202020" d="M273.978,28.075c-0.001,0.01,0.001,0.017,0.001,0.026C273.993,28.086,273.998,28.076,273.978,28.075z"
							/>
						<path fill="#202020" d="M276.054,27.198l0.004,0.042c0.027,0.005,0.054,0.011,0.081,0.011L276.054,27.198z"/>
						<path fill="#202020" d="M261.306,16.569l0.01,0.002C261.377,16.555,261.343,16.558,261.306,16.569z"/>
						<path fill="#202020" d="M243.06,21.732c0.131-0.242,0.168,0.395,0.313,0.03C243.315,21.796,243.145,21.43,243.06,21.732z"/>
						<path fill="#202020" d="M275.591,24.642l-0.001-0.104C275.585,24.585,275.585,24.617,275.591,24.642z"/>
						<path fill="#202020" d="M243.373,21.762L243.373,21.762l0.016-0.038C243.382,21.74,243.379,21.749,243.373,21.762z"/>
						<path fill="#202020" d="M255.931,16.658c0.012,0.025,0.032,0.045,0.055,0.064C255.984,16.707,255.972,16.688,255.931,16.658z"
							/>
						<path fill="#202020" d="M259.935,16.866l-0.1-0.02C259.875,16.86,259.906,16.864,259.935,16.866z"/>
						<path fill="#202020" d="M253.853,16.864c-0.054-0.011-0.072-0.031-0.146-0.012l0.022,0.018
							C253.756,16.851,253.791,16.841,253.853,16.864z"/>
						<polygon fill="#202020" points="251.688,16.865 251.729,16.895 251.797,16.887 						"/>
						<path fill="#202020" d="M267.402,28.145c0.048,0.042,0.077,0.087,0.1,0.132C267.469,28.173,267.787,28.136,267.402,28.145z"/>
						<path fill="#202020" d="M275.654,24.706c-0.037-0.013-0.056-0.031-0.063-0.064l0.008,0.072
							C275.621,24.72,275.642,24.722,275.654,24.706z"/>
						<path fill="#202020" d="M253.764,18.021L253.42,18C253.517,18.014,253.642,18.021,253.764,18.021z"/>
						<path fill="#202020" d="M251.88,28.166l0.079-0.018C251.929,28.145,251.9,28.149,251.88,28.166z"/>
						<path fill="#202020" d="M252.4,18.021c-0.062-0.052-0.126-0.082-0.194-0.101c-0.014,0.011-0.029,0.021-0.039,0.038
							L252.4,18.021z"/>
						<path fill="#202020" d="M267.503,28.278l-0.001-0.001L267.503,28.278z"/>
						<path fill="#202020" d="M269.768,27.93c-0.328-0.004-0.153,0.189-0.223,0.299c-0.392,0.055-0.182-0.142-0.314-0.24
							c-0.244,0.051-0.432,0.228-0.613,0.22c-0.014-0.032-0.049-0.043-0.008-0.083c-0.258,0.153-0.766,0.007-1.066,0.2
							c-0.022-0.017-0.034-0.033-0.04-0.048c0.049,0.097,0.057,0.195,0.046,0.265c-0.146,0.003-0.272,0.122-0.327-0.004
							c0.09,0.003,0.098-0.047,0.14-0.087l-0.154,0.055c-0.138-0.182,0.211-0.063,0.211-0.197c-0.301,0.059-0.65,0.208-0.88,0.158
							c-0.048-0.178,0.537-0.06,0.23-0.217l0.355,0.067c-0.271-0.279,0.217,0.02-0.033-0.279c-0.469-0.052-0.523,0.09-0.991,0.039
							c-0.104,0.099,0.035,0.146-0.07,0.244c-0.663,0.177-0.522-0.446-1.01-0.209c-0.127,0.118-0.176,0.342-0.523,0.224l0.119-0.2
							c-0.453-0.02-0.259,0.288-0.733,0.153c0.084-0.079,0.356-0.066,0.287-0.09c-0.307-0.158-0.217,0.114-0.453,0.114l-0.05-0.177
							c-0.482,0.028-1.014,0.156-1.548,0.188c0.029-0.053,0.121-0.108-0.004-0.163c-0.674,0.089-1.439-0.022-2.089-0.127
							l-0.248,0.153c-0.059-0.001-0.107-0.069-0.046-0.099c-0.253-0.058-0.013,0.097-0.134,0.158c-0.145,0.01-0.19-0.088-0.1-0.134
							c-0.447,0.13-1.273,0.28-1.745,0.116l0.092-0.045c-0.366-0.062-0.414,0.314-0.754,0.171l0.065-0.027
							c-0.796-0.066-1.676,0.074-2.284-0.157c-0.115,0.221-0.787-0.098-0.839,0.209c-0.454-0.152-0.324-0.208-0.965-0.31
							c-0.171-0.014-0.254,0.192-0.466,0.224l-0.005-0.161l-0.287,0.169l-0.153-0.192l-0.198,0.041
							c0.079,0.01,0.168,0.072,0.156,0.119c-0.311,0.073-0.755-0.112-0.763-0.194l-0.733,0.136c0.017-0.064,0.14-0.087,0.236-0.128
							c-0.392,0.164-0.071-0.169-0.43-0.019c0.048,0.037-0.025,0.096-0.034,0.128c-0.179-0.098-0.585-0.098-0.886-0.057l0.058-0.111
							c-0.544-0.028-1.146,0.054-1.756,0.052c0.219,0.051,0.169,0.244-0.011,0.262l-0.071-0.17c-0.116,0.105,0.187,0.064-0.05,0.192
							c-0.229-0.02-0.153-0.193-0.022-0.249l-0.277,0.059c-0.016-0.051,0.049-0.078,0.065-0.142
							c-0.113,0.105-0.479-0.171-0.642,0.013l-0.016-0.05c-0.61-0.002-0.887,0.057-1.384,0.065
							c-0.016,0.148-0.208,0.115-0.295,0.217c-0.256-0.079-0.432-0.298-0.6-0.488c-0.18-0.105-0.135,0.029-0.26-0.004
							c0.09-0.083-0.019-0.331,0.121-0.233c-0.063-0.148-0.074-0.238-0.104-0.368c-0.018-0.186-0.046-0.39-0.1-0.724
							c-0.056,0.073-0.079,0.154-0.124,0.112c-0.022-0.121,0.056-0.275,0.12-0.258l0.014,0.031c-0.2-0.749,0.39-1.729,0.111-2.326
							l0.014,0.033l-0.146-0.618c0.022-0.285,0.101,0.171,0.183-0.041c-0.223-0.667,0.033-1.054-0.116-1.604
							c0.395-0.425-0.027-1.51,0.225-2.084l-0.093,0.033c-0.092-0.148,0.053-0.18,0.074-0.289c-0.072,0.016-0.084,0.161-0.134,0.069
							c-0.026-0.291-0.042-0.702-0.006-0.843c0.052-0.192,0.171-0.36,0.325-0.473c0.155-0.116,0.348-0.146,0.515-0.139
							c0.294,0.024,0.586,0.048,0.873,0.071c0.471,0.024,0.267-0.48,0.861-0.259l-0.168,0.172c0.951-0.207,1.945,0.007,2.877-0.168
							c-0.056,0.04-0.058,0.091-0.148,0.09c0.197,0.125,0.729,0.006,0.731-0.096c0.145,0.012,0.034,0.093,0.123,0.145
							c0.197,0.074,0.495-0.16,0.601-0.036c0.018,0.021-0.056,0.041-0.092,0.05c0.128-0.061,0.599,0.016,0.476-0.129
							c0.35,0.069,0.669-0.064,0.947,0.021c0.183-0.162,0.6,0.078,0.657-0.151c-0.025,0.236,0.613,0.19,0.834,0.079
							c-0.074,0.072,0.192,0.074,0.105,0.173c0.252-0.003,0.483-0.047,0.439-0.168c0.465,0.282,0.935-0.228,1.196,0.135
							c0.749-0.127,1.442-0.213,2.116-0.268c-0.024,0.235-0.745,0.023-0.716,0.271c0.64-0.097,1.009-0.299,1.643-0.242
							c0.164,0.032-0.094,0.102-0.148,0.143c0.639-0.097,1.235,0.021,1.804-0.107c-0.002,0.022-0.063,0.046-0.121,0.063
							c0.112-0.007,0.261,0.035,0.248-0.072l-0.109,0.029c-0.179-0.156,0.445-0.325,0.465-0.407c-0.19,0.307,0.562,0.078,0.26,0.465
							c0.073-0.021,0.166-0.071,0.149-0.143c0.109,0.021,0.144,0.063,0.033,0.144c0.401-0.058,0.259-0.172,0.622-0.169
							c-0.001,0.052-0.074,0.072-0.112,0.133c0.185-0.101,0.369-0.202,0.676-0.158c-0.018,0.031,0.018,0.072-0.073,0.071
							c0.527-0.016,0.898-0.269,1.478-0.171c-0.17,0.225,0.197,0.074,0.228,0.268l0.312-0.058l-0.125-0.095
							c0.272,0.003,0.514-0.138,0.748-0.075l-0.202,0.08l0.511-0.037l-0.289-0.074c0.276-0.1-0.03-0.247,0.333-0.192
							c-0.073,0.02,0.273,0.002,0.415,0.117l-0.001,0c0.136-0.062,0.273-0.127,0.476-0.079c0.053,0.063-0.042,0.215-0.008,0.257
							c0.133-0.163,0.639-0.045,0.807-0.218c-0.057,0.041-0.059,0.143-0.04,0.164l0.111-0.132c0.126,0.042,0.145,0.063,0.124,0.145
							c0.38,0.024-0.121-0.247,0.33-0.141c-0.035,0.011-0.018,0.03-0.092,0.05c0.453,0.056,0.875-0.084,1.292-0.019
							c0.122,0.196-0.364,0.048-0.224,0.214c0.6-0.036,1.242-0.235,1.823-0.189l-0.108-0.021c0.08-0.277,0.433,0.136,0.727,0.006
							c-0.072,0.021-0.095,0.154-0.075,0.123c0.397,0.044,0.813-0.068,1.416-0.155l-0.075,0.071c0.234,0.063,0.617,0.037,0.87,0.069
							c0.075-0.071,0.221-0.06,0.132-0.163c0.391,0.203,0.763,0.148,1.124,0.086c0.19-0.038,0.351-0.059,0.495-0.045
							c0.146,0.03,0.294,0.095,0.369,0.245c-0.06-0.031-0.161-0.02-0.117,0.006c0,0,0.106,0.035,0.212,0.083
							c0.095,0.063,0.204,0.119,0.197,0.126c0.063-0.116,0.006-0.091-0.017-0.234c0.101-0.02,0.259,0.052,0.345,0.172
							c-0.227-0.146-0.14,0.128-0.15,0.234c0.023-0.035,0.073-0.027,0.101-0.055c-0.076,0.345,0.273-0.086,0.262,0.358l-0.067-0.003
							c0.087,0.123,0.158,0.26,0.16,0.429c-0.135,0.066-0.075-0.163-0.193-0.158c0.035,0.198,0.271,0.459,0.139,0.666
							c-0.039-0.101-0.04-0.247-0.078-0.348c-0.164,0.235-0.122,0.262-0.148,0.437l0.004-0.018l-0.074,0.404l0.044-0.103
							c0.364,0.298,0.067,0.608,0.305,1.01c-0.225-0.391-0.13-0.064-0.288-0.095c-0.044,0.103-0.093,0.259-0.138,0.214
							c0.128,0.19-0.101,0.317,0.086,0.585c-0.051,0.012-0.005,0.203-0.132,0.161c0.039,0.247,0.088-0.059,0.152-0.038
							c0.173,0.381-0.211,0.896,0.027,1.443c0.098,0.472,0.27,0.56,0.354,0.998c-0.081,0.148-0.185-0.121-0.185-0.121
							c-0.075,0.238-0.062,0.418-0.003,0.643c-0.045-0.046-0.082,0.001-0.14,0.07c0.014,0.181,0.186,0.121,0.11,0.359
							c-0.057-0.041-0.147-0.093-0.204-0.181c0.047,0.213,0.142,0.423,0.188,0.643c-0.089,0.059-0.135-0.133-0.192-0.21
							c0.04,0.248,0.08,0.641,0.221,0.718l0.05-0.159c0.008,0.09-0.12,0.046-0.146-0.021c-0.11-0.212,0.049-0.306,0.1-0.318
							l0.032,0.157c0.299-0.161-0.048-0.63-0.03-0.946l0.217,0.132l-0.18-0.324c0.057-0.069,0.178-0.116,0.21,0.04
							c0.107-0.226-0.077-0.2,0.042-0.395c0.019-0.021,0.029-0.012,0.038,0.008l-0.064-0.221c0.045,0.043,0.153-0.037,0.122,0.099
							c0.125-0.396-0.163-0.64,0.001-0.789l0.014,0.033c-0.073-0.551-0.159-0.053-0.347-0.466l0.394-0.278l-0.159-0.054
							c0.006-0.057,0.018-0.169,0.081-0.148c-0.109-0.211-0.069,0.036-0.172-0.087c0.145-0.273-0.068-0.754,0.186-0.815
							c-0.121-0.098-0.094,0.261-0.178-0.03c0.273-0.083-0.047-0.338,0.078-0.587c0.142,0.077,0.066,0.313,0.192,0.063
							c-0.238-0.151,0.053-0.486,0.007-0.697c-0.189-0.01-0.079-0.458-0.143-0.812c0.049,0.027,0.156-0.648,0.072-1.089l0.034,0.001
							c-0.197-0.018-0.307-0.389-0.539-0.562c0.093-0.068,0.16-0.059,0.307,0.041l-0.185-0.223c-0.083-0.014-0.179-0.04-0.327-0.136
							l0.143-0.068c-0.323-0.236-0.724-0.264-1.187-0.364c-0.008,0.135,0.296,0.396-0.112,0.457
							c-0.015-0.072-0.031-0.197,0.08-0.224c-0.037,0.007-0.129,0.06-0.202,0.028l0.168-0.121c-0.182-0.054-0.095,0.101-0.239,0.09
							c0.003-0.103-0.107-0.073-0.086-0.155c0.036-0.01,0.126,0.043,0.181,0.002c-0.163-0.018-0.36-0.079-0.426-0.157
							c0.015,0.059,0,0.139-0.119,0.152c-0.31,0.008-0.105-0.124-0.286-0.177c-0.074,0.072-0.272-0.002-0.277,0.151
							c-0.091,0-0.106-0.072-0.142-0.114c-0.16,0.068-0.748,0.02-0.567,0.184l0.041,0.011c-0.009,0.002-0.016,0.004-0.026,0.006
							h0.002h-0.002c-0.524,0.153-1.089-0.087-1.609-0.021l0.001-0.051c-0.311,0.059-0.69,0.035-0.913,0.146
							c-0.092,0-0.217-0.094-0.178-0.155c-0.237,0.039-0.264,0.097-0.606,0.012c0.238-0.09-0.082-0.08,0.245-0.066
							c-0.309-0.044-0.379-0.127-0.71,0.014c0.112-0.132-0.232-0.166-0.379-0.126l0.216,0.094c-0.165,0.019-0.309,0.007-0.455-0.003
							l0.079-0.174c-0.631-0.211-1.138,0.359-1.619,0.006c-0.167,0.122,0.343,0.085,0.194,0.228
							c-0.291-0.023-0.593-0.273-0.685-0.273c-0.397-0.096-0.371,0.254-0.787,0.188c0.054,0.062,0.104,0.228-0.208,0.286
							c-0.29-0.023-0.356-0.26-0.173-0.31c0.069-0.005,0.103,0.015,0.1,0.036c0.094-0.023,0.218-0.049,0.103-0.116l-0.038,0.062
							c-0.144-0.063-0.544-0.057-0.449-0.158c-0.22,0.059-0.095,0.102,0.068,0.134c-0.373-0.09-0.582-0.003-0.966-0.063
							c0.061,0.034,0.117,0.106,0.056,0.106c-0.562-0.077-0.247,0.118-0.629,0.145c-0.216-0.095,0.078-0.226-0.306-0.146
							c-0.234-0.064-0.05-0.165,0.043-0.215c-0.349,0.12-0.653-0.079-0.853-0.101l0.185-0.05c-0.11,0.03-0.2,0.029-0.293,0.028
							l0.105,0.124c-0.107-0.021-0.199-0.022-0.197-0.073c-0.112,0.081,0.085,0.206-0.136,0.317
							c-0.145-0.063-0.439,0.067-0.489-0.097c0.453,0.055-0.05-0.166,0.334-0.192c-0.074,0.02-0.165,0.019-0.272-0.003
							c-0.017-0.019,0.015-0.034,0.045-0.043c-0.435-0.147-0.2,0.186-0.649,0.182c0.058-0.093-0.104-0.176-0.178-0.156
							c0.182,0.002,0.087,0.155-0.08,0.226c-0.288-0.072-0.313,0.054-0.464,0.045l0.173,0.034c-0.059,0.093-0.203,0.081-0.403,0.11
							c-0.018-0.072,0.182-0.049,0.11-0.082c-0.224,0.163-0.504-0.168-0.815-0.059c-0.145-0.063-0.015-0.174-0.141-0.217
							c-0.349,0.12-0.378-0.127-0.744-0.028c0.105,0.125,0.124,0.094-0.134,0.215l0.603-0.087l-0.388,0.181
							c0.183,0.001,0.385-0.078,0.493-0.057c-0.185,0.102-0.165,0.07-0.078,0.174c-0.249-0.187-0.493,0.109-0.781-0.017l0.009-0.308
							c-0.433-0.138-0.769,0.158-1.33,0.08l0.181,0.054c-0.075,0.123-0.347,0.017-0.528,0.067c0.017-0.103-0.097-0.14-0.175-0.205
							c0.01,0.077-0.411-0.007-0.462,0.199l-0.251-0.136c-0.452-0.056-0.517,0.293-0.952,0.259c0.131-0.112-0.067-0.185,0.225-0.265
							c-0.146-0.001-0.276-0.02-0.278,0.051c-0.086-0.064-0.404,0.139-0.538,0.041c-0.061,0.045-0.081,0.153-0.244,0.145
							c-0.019-0.021,0-0.051,0-0.051c0,0.051-0.256,0.069-0.113,0.183c-0.447-0.321-1.252,0.023-1.643-0.252
							c-0.318,0.034-0.7,0.067-0.988,0.075c0.018-0.03,0.001-0.051,0.055-0.041c-0.397-0.096-0.244,0.296-0.696,0.189
							c-0.231-0.167,0.24-0.09,0.096-0.153c-0.063-0.339-0.546,0.046-0.851-0.151l0.073-0.02c-0.232-0.115-0.567,0.128-0.948,0.104
							c0,0,0.019-0.03,0.003-0.051c-0.261,0.173-0.753,0.229-1.119,0.278c0.114-0.133,0.166-0.07,0.097-0.205
							c-0.163,0.02,0.049,0.217-0.279,0.254c-0.106-0.073-0.343-0.136-0.374-0.28l0.31-0.008c-0.158-0.187-0.4,0.006-0.563-0.026
							l0.021-0.082c-0.474,0.026-0.479,0.231-0.988,0.217l0.052,0.062c-0.283,0.208-0.22-0.126-0.522,0.048
							c-0.001,0-0.12-0.194-0.12-0.194c-0.236,0.056-0.711,0.384-0.923,0.679c0.037-0.26,0.411-0.58,0.704-0.728
							c-0.239,0.038-0.75,0.322-0.752,0.501c0.056-0.073,0.118-0.189,0.219-0.201c-0.158,0.281-0.352,0.544-0.533,0.901
							c-0.162-0.133-0.331,0.115-0.404,0.461c-0.065,0.379-0.041,0.647-0.203,0.792c0.147,0.641-0.063,1.271-0.04,2.018
							c0.311-0.265,0.009,0.218,0.328,0.172c0.021,0.174,0.016,0.24-0.006,0.255l-0.19,0.527c-0.093,0.125-0.07-0.165-0.142-0.148
							c-0.024,0.38-0.135,0.16-0.22,0.411c0.113-0.051,0.163,0.133,0.119,0.349l0.147-0.305c0.17,0.532-0.268,0.46-0.1,0.997
							l-0.101-0.169c0.06,0.275-0.002,1.015,0.255,1.285c-0.037,0.049-0.125,0.113-0.147-0.008
							c-0.038,0.658,0.272,1.464,0.115,1.975l-0.078-0.049c0.022,0.123,0.146,0.214,0.067,0.367
							c-0.031-0.008-0.077-0.05-0.082,0.007c0.014,0.034,0.047,0.111,0.073,0.211c0.035,0.127,0.065,0.266,0.057,0.379l-0.108-0.179
							c-0.016,0.463,0.215,0.788,0.442,1.007c0.254,0.21,0.513,0.349,0.821,0.479c-0.142,0.217,0.504,0.57,0.89,0.583l-0.013,0.031
							c0.779,0.036,1.277-0.188,1.978-0.277c0.429,0.249,1.454,0.104,2.145,0.244c-0.105-0.042,0.018-0.179,0.14-0.202
							c0.163,0.046,0.448-0.16,0.423,0.051l-0.058-0.004c0.121,0.207,0.454,0.152,0.714,0.157l0.044-0.275
							c0.68,0.401,1.781-0.147,2.152,0.212c0.164-0.069,0.367-0.068,0.53-0.137l-0.009,0.147c0.454,0.038,0.681,0.057,1.243,0.021
							l-0.114,0.105c0.316,0.009,0.399-0.426,0.692-0.435l0.088,0.221c0.553-0.003,1.112,0.19,1.658-0.01
							c-0.009,0.032-0.024,0.096-0.114,0.105c0.261,0.006,1.007,0.149,0.912-0.153c0.007,0.197,0.57,0.02,0.869-0.067l-0.046,0.146
							c0.252-0.186,0.26-0.237,0.612-0.288c0.083,0.019,0.072,0.116-0.038,0.079c0.277,0.076,0.217-0.138,0.554-0.06l-0.126,0.093
							c0.286,0.011,0.264-0.039,0.421-0.147c0.18-0.059,0.543,0.037,0.585,0.168c0.038-0.08,0.195-0.188,0.363-0.149
							c0.023,0.05-0.038,0.081-0.069,0.096c0.479,0.099,0.712-0.169,1.04-0.026c0.007,0.048,0.028,0.072,0.056,0.087
							c-0.38-0.003-0.686-0.012-0.657-0.022c0,0.134,0.307,0.158,0.063,0.342c0.246-0.101,0.668-0.32,0.967-0.257
							c0.015,0.013,0.028,0.026,0.04,0.046l-0.031,0.015c0.068,0.013,0.131,0.001,0.188-0.022c0.096,0.022,0.156,0.039,0.248,0.041
							c0.035,0.111,0.353,0.06,0.505,0.065c-0.013-0.147,0.188-0.124,0-0.245c0.024,0.011-0.029,0.018-0.131,0.024
							c-0.022,0.004-0.05,0.006-0.065,0.015l0.011-0.013c-0.101,0.003-0.231,0.006-0.38,0.01c0.12-0.074,0.247-0.137,0.416-0.056
							c0.079-0.094,0.165-0.191,0.214-0.237c0.209,0.205,0.613,0.315,0.669,0.441c0.468-0.082,1.102-0.054,1.395-0.33
							c0.133-0.035,0.152,0.079,0.202,0.122c-0.076,0.028-0.168,0.023-0.209,0.063c0.266-0.071,0.787-0.027,0.851-0.22
							c0.335,0.087-0.188,0.177,0.271,0.146l-0.063,0.059c0.905,0.308,1.472-0.491,2.475-0.097
							c-0.069-0.024-0.104-0.035-0.118-0.067c1.144,0.174,2.357-0.164,3.486,0.113c0.32,0.055,0.355-0.067,0.551-0.161l0.069,0.158
							l0.335-0.182c0.484-0.138,0.802,0.397,1.443,0.125l-0.095-0.098c0.261,0.027,0.741-0.215,0.743-0.108
							c0.017-0.031,0.023-0.137,0.135-0.135l0.049,0.067c0.032,0.022,0.404-0.489,0.374-0.499c0.17-0.155,0.222-0.106,0.291-0.071
							c0.062,0.031,0.164,0.046,0.331-0.318c0.1-0.309-0.104-0.831-0.16-0.719c-0.013,0.104-0.076,0.256-0.159,0.248l-0.021-0.215
							c-0.237-0.067-0.48-0.113-0.684,0.167c-0.003-0.011,0.082,0.259,0.063,0.261l-0.141,0.011
							c0.004,0.001,0.079-0.164,0.068-0.168c-0.122,0.062-0.085,0.134-0.057,0.249c-0.058-0.016-0.119-0.023-0.161-0.006
							c0.017-0.003,0.026,0.318,0.008,0.319c-0.077-0.059-0.05-0.205-0.185-0.159c-0.019,0.154,0.213,0.109,0.099,0.276
							c-0.169-0.041-0.16-0.129-0.247,0.004c-0.04-0.056-0.024-0.095,0.006-0.14c-0.071,0.112-0.255,0.11-0.309,0.234
							c-0.113-0.118-0.572,0.041-0.541-0.186c-0.055,0.055-0.308,0.181-0.467,0.19c0.292-0.275-0.6-0.016-0.522-0.311
							c-0.217,0.248-0.782,0.11-1.166,0.247c0.021-0.02,0.063-0.059,0.098-0.047c-0.216-0.021-0.278-0.095-0.417-0.142
							c-0.028,0.204-0.364,0.251-0.545,0.377c-0.265-0.198,0.16-0.24,0.077-0.43c0.014,0.166-0.46,0.165-0.37,0.303
							c-0.202-0.122-0.174-0.059-0.278-0.229c-0.035,0.256-0.188,0.043-0.356,0.2c-0.293-0.126-0.075-0.24-0.396-0.162
							C269.481,28.021,269.768,27.93,269.768,27.93z M262.117,28.372v-0.003c0.065-0.003,0.122-0.006,0.157-0.008
							C262.242,28.363,262.196,28.367,262.117,28.372z M261.475,28.375c0.078,0.006,0.175,0.007,0.278,0.006
							c0.022,0.05-0.002,0.103-0.066,0.1C261.722,28.447,261.57,28.417,261.475,28.375z M262.834,29.391
							c-0.102,0.021-0.136-0.008-0.149-0.038c0.047-0.005,0.103-0.01,0.178-0.018l0.012-0.018
							C262.864,29.346,262.854,29.372,262.834,29.391z"/>
						<path fill="#202020" d="M263.017,29.199c0.016-0.003,0.023-0.01,0.042-0.011c-0.022-0.012-0.042-0.023-0.061-0.033
							l-0.036,0.046L263.017,29.199z"/>
						<path fill="#202020" d="M272.468,17.066l-0.014-0.004c0.012,0.006,0.022,0.012,0.028,0.021
							C272.474,17.076,272.474,17.072,272.468,17.066z"/>
						<polygon fill="#202020" points="252.597,28.094 252.598,28.131 252.653,28.099 						"/>
						<path fill="#202020" d="M275.523,18.157c-0.009,0.012-0.015,0.029-0.015,0.053C275.517,18.204,275.521,18.183,275.523,18.157z
							"/>
						<path fill="#202020" d="M275.697,19.483l-0.052,0.216C275.675,19.605,275.688,19.537,275.697,19.483z"/>
						<path fill="#202020" d="M275.625,20.659c0.025,0.015,0.045,0.019,0.063,0.023l0.001-0.002L275.625,20.659z"/>
						<path fill="#202020" d="M260.016,17.847l-0.045,0.007C259.864,17.882,259.937,17.871,260.016,17.847z"/>
						<path fill="#202020" d="M265.58,17.505c-0.059,0.026-0.117,0.053-0.179,0.069C265.501,17.585,265.577,17.588,265.58,17.505z"
							/>
						<polygon fill="#202020" points="253.802,18.024 253.803,18.021 253.764,18.021 						"/>
						<path fill="#202020" d="M265.143,17.572c0.099,0.029,0.182,0.023,0.259,0.002C265.32,17.564,265.225,17.549,265.143,17.572z"
							/>
						<path fill="#202020" d="M275.559,25.756l-0.007,0.057c0.01-0.001,0.018,0.002,0.024,0.007L275.559,25.756z"/>
						<path fill="#202020" d="M275.576,25.819l0.017,0.063C275.593,25.854,275.592,25.828,275.576,25.819z"/>
						<path fill="#202020" d="M275.63,26.015l-0.037-0.132C275.593,25.928,275.588,25.985,275.63,26.015z"/>
						<path fill="#202020" d="M275.626,24.199l-0.054-0.018C275.584,24.191,275.601,24.197,275.626,24.199z"/>
						<path fill="#202020" d="M275.61,23.726c-0.012,0.113-0.113,0.283-0.08,0.44l0.042,0.015
							C275.494,24.107,275.7,23.833,275.61,23.726z"/>
						<path fill="#202020" d="M276.268,21.751l-0.042,0.396c0.057-0.069,0.133-0.161,0.146,0.02
							C276.541,21.668,276.245,22.271,276.268,21.751z"/>
						<path fill="#202020" d="M276.351,20.522c0.026,0.213,0.082-0.002,0.114,0.009C276.413,20.396,276.399,20.363,276.351,20.522z"
							/>
						<path fill="#202020" d="M269.694,16.949l0.021-0.134C269.552,16.835,269.714,16.868,269.694,16.949z"/>
						<polygon fill="#202020" points="267.996,17.639 268.156,17.722 268.232,17.6 						"/>
						<polygon fill="#202020" points="266.993,16.688 267.064,16.669 266.791,16.718 						"/>
						<path fill="#202020" d="M252.073,16.735l0.05,0.165C252.234,16.871,252.257,16.686,252.073,16.735z"/>
						<path fill="#202020" d="M245.633,16.903c-0.07-0.083-0.252-0.135-0.363-0.055C245.414,16.86,245.559,16.924,245.633,16.903z"
							/>
						<polygon fill="#202020" points="250.889,29.412 250.759,29.467 251.003,29.421 						"/>
					</g>
				</g>
			</g>
		</g>
	</g>
	<text transform="matrix(1 0 0 1 249.9277 26.6763)" font-family="'AlphaRuler'" font-size="9.3918">search</text>
	<rect y="-1" fill="#343434" width="280" height="11"/>
	<text transform="matrix(1 0 0 1 224.3604 6.8491)" fill="#FFFFFF" font-family="'AlphaRuler'" font-size="7.3048">english   francais</text>
	<text transform="matrix(1 0 0 1 19.3052 89.854)" font-family="'AlphaRuler'" font-size="12.5225">WET theme</text>
	<g>
		
			<text transform="matrix(1 0 0 1 20.3486 70.0259)" fill="#662D91" font-family="'AlphaRuler'" font-size="7.3048" text-decoration=" underline">Home       Working examples</text>
		<g>
			<g>
				<g>
					<polygon fill="#202020" points="36,67 39.641,67 40.997,67 40.287,65.132 46.16,67.514 40.287,69.833 40.997,68 39.641,68 
						36,68 					"/>
				</g>
			</g>
		</g>
	</g>
	<g>
		<path fill="#2671AD" d="M69,111.4c0,0.491-0.189,0.6-0.742,0.6H20.829c-0.553,0-0.829-0.109-0.829-0.6v-11.266
			C20,99.643,20.276,99,20.829,99h47.429C68.811,99,69,99.643,69,100.134V111.4z"/>
		
			<text transform="matrix(1 0 0 1 26.646 106.9526)" fill="#FFFFFF" font-family="'AlphaRuler'" font-size="4.1504" text-decoration=" underline">Questions or comments?</text>
	</g>
	<text transform="matrix(1 0 0 1 20.3486 125.5952)" font-family="'AlphaRuler'" font-size="7.3048">Purpose</text>
	<text transform="matrix(1 0 0 1 20.3486 136.0303)" font-family="'AlphaRuler'" font-size="7.3048">The WET theme was developed to provide an example implementation of the Base Theme.</text>
	<text transform="matrix(1 0 0 1 20.3486 153.7705)" font-family="'AlphaRuler'" font-size="7.3048">Use When</text>
	<text transform="matrix(1 0 0 1 20.3486 164.2051)" font-family="'AlphaRuler'" font-size="7.3048">This theme can be used for WET-related sites.</text>
	<text transform="matrix(1 0 0 1 20.3486 179.8584)" font-family="'AlphaRuler'" font-size="7.3048">Do not use when</text>
	<text transform="matrix(1 0 0 1 20.3486 190.2939)" font-family="'AlphaRuler'" font-size="7.3048">This theme should not be used for non WET-related sites.</text>
	<text transform="matrix(1 0 0 1 20.3486 211.165)" font-family="'AlphaRuler'" font-size="7.3048">Working examples</text>
	
		<text transform="matrix(1 0 0 1 20.3486 221.5996)" fill="#662D91" font-family="'AlphaRuler'" font-size="7.3048" text-decoration=" underline">English and french examples</text>
	<text transform="matrix(1.1049 0 0 1 13.9775 45.4761)" fill="#FFFFFF" font-family="'AlphaRuler'" font-size="9.3984">WET project</text>
	<text transform="matrix(1.1049 0 0 1 76.5005 45.4761)" fill="#FFFFFF" font-family="'AlphaRuler'" font-size="9.3984">Implement WET</text>
	<text transform="matrix(1.1049 0 0 1 149.5996 45.4761)" fill="#FFFFFF" font-family="'AlphaRuler'" font-size="9.3984">Contribute to WET</text>
	<line fill="none" stroke="#FFFFFF" stroke-miterlimit="10" x1="69.5" y1="37" x2="69.5" y2="48"/>
	<line fill="none" stroke="#FFFFFF" stroke-miterlimit="10" x1="142.5" y1="38" x2="142.5" y2="47"/>
	<line fill="none" stroke="#FFFFFF" stroke-miterlimit="10" x1="226.5" y1="37" x2="226.5" y2="48"/>
	<polygon fill="#FFFFFF" stroke="#FFFFFF" stroke-miterlimit="10" points="62.364,41.5 63.808,41.5 63.086,42.681 62.364,43.896 
		61.643,42.698 60.921,41.5 	"/>
	<polygon fill="#FFFFFF" stroke="#FFFFFF" stroke-miterlimit="10" points="135.852,41.5 137.296,41.5 136.574,42.353 
		135.852,43.404 135.131,42.452 134.409,41.5 	"/>
	<polygon fill="#FFFFFF" stroke="#FFFFFF" stroke-miterlimit="10" points="219.394,41.5 220.837,41.5 220.115,42.681 
		219.394,43.896 218.672,42.698 217.95,41.5 	"/>
</g>
</svg>
